<?xml version="1.0" encoding="utf-8"?>
<svg xmlns="http://www.w3.org/2000/svg" viewBox="0 0 48 48" width="192" height="192">
  <path fill="#e6f1ff" d="M30,8H8c-2.209,0-6.372,1.791-6.372,4c0,2.209,4.163,4,6.372,4h22c2.209,0,4-1.791,4-4 C34,9.791,32.209,8,30,8z" opacity=".15" />
  <path fill="#e5f0fe" d="M29.949,8.071c-0.003,0-21.895,0-21.898,0c-2.17,0-6.252,1.759-6.252,3.929 c0,2.17,4.083,3.929,6.252,3.929c0.003,0,21.895,0,21.898,0c2.17,0,3.929-1.759,3.929-3.929C33.878,9.83,32.119,8.071,29.949,8.071 z" opacity=".167" />
  <path fill="#e4effd" d="M29.898,8.143c-0.006,0-21.79,0-21.797,0c-2.13,0-6.132,1.727-6.132,3.857 c0,2.13,4.002,3.857,6.132,3.857c0.006,0,21.79,0,21.797,0c2.13,0,3.857-1.727,3.857-3.857C33.756,9.87,32.029,8.143,29.898,8.143z" opacity=".185" />
  <path fill="#e3eefc" d="M29.848,8.214c-0.009,0-21.686,0-21.695,0C6.062,8.214,2.14,9.909,2.14,12 c0,2.091,3.922,3.786,6.013,3.786c0.009,0,21.686,0,21.695,0c2.091,0,3.786-1.695,3.786-3.786 C33.633,9.909,31.938,8.214,29.848,8.214z" opacity=".202" />
  <path fill="#e2edfb" d="M29.797,8.286c-0.013,0-21.581,0-21.594,0c-2.051,0-5.893,1.663-5.893,3.714 c0,2.051,3.841,3.714,5.893,3.714c0.013,0,21.581,0,21.594,0c2.051,0,3.714-1.663,3.714-3.714 C33.511,9.949,31.848,8.286,29.797,8.286z" opacity=".219" />
  <path fill="#e1ecfb" d="M29.746,8.357c-0.016,0-21.476,0-21.492,0c-2.012,0-5.773,1.631-5.773,3.643 c0,2.012,3.761,3.643,5.773,3.643c0.016,0,21.476,0,21.492,0c2.012,0,3.643-1.631,3.643-3.643 C33.389,9.988,31.758,8.357,29.746,8.357z" opacity=".237" />
  <path fill="#e0ebfa" d="M29.695,8.429c-0.019,0-21.371,0-21.39,0c-1.972,0-5.653,1.599-5.653,3.571 c0,1.972,3.681,3.571,5.653,3.571c0.019,0,21.371,0,21.39,0c1.972,0,3.571-1.599,3.571-3.571 C33.267,10.027,31.668,8.429,29.695,8.429z" opacity=".254" />
  <path fill="#dfebf9" d="M29.644,8.5c-0.022,0-21.267,0-21.289,0c-1.933,0-5.533,1.567-5.533,3.5 c0,1.933,3.6,3.5,5.533,3.5c0.022,0,21.267,0,21.289,0c1.933,0,3.5-1.567,3.5-3.5C33.144,10.067,31.577,8.5,29.644,8.5z" opacity=".271" />
  <path fill="#deeaf8" d="M29.594,8.571c-0.025,0-21.162,0-21.187,0c-1.894,0-5.413,1.535-5.413,3.429 c0,1.894,3.52,3.429,5.413,3.429c0.025,0,21.162,0,21.187,0c1.894,0,3.429-1.535,3.429-3.429 C33.022,10.106,31.487,8.571,29.594,8.571z" opacity=".289" />
  <path fill="#dde9f7" d="M29.543,8.643c-0.028,0-21.057,0-21.085,0c-1.854,0-5.294,1.503-5.294,3.357 c0,1.854,3.439,3.357,5.294,3.357c0.028,0,21.057,0,21.085,0c1.854,0,3.357-1.503,3.357-3.357 C32.9,10.146,31.397,8.643,29.543,8.643z" opacity=".306" />
  <path fill="#dce8f6" d="M29.492,8.714c-0.032,0-20.952,0-20.984,0c-1.815,0-5.174,1.471-5.174,3.286 c0,1.815,3.359,3.286,5.174,3.286c0.032,0,20.952,0,20.984,0c1.815,0,3.286-1.471,3.286-3.286 C32.778,10.185,31.307,8.714,29.492,8.714z" opacity=".324" />
  <path fill="#dbe7f5" d="M29.441,8.786c-0.035,0-20.848,0-20.882,0c-1.775,0-5.054,1.439-5.054,3.214 c0,1.775,3.279,3.214,5.054,3.214c0.035,0,20.847,0,20.882,0c1.775,0,3.214-1.439,3.214-3.214 C32.655,10.225,31.216,8.786,29.441,8.786z" opacity=".341" />
  <path fill="#dae6f4" d="M29.39,8.857c-0.038,0-20.743,0-20.781,0c-1.736,0-4.934,1.407-4.934,3.143 c0,1.736,3.198,3.143,4.934,3.143c0.038,0,20.743,0,20.781,0c1.736,0,3.143-1.407,3.143-3.143 C32.533,10.264,31.126,8.857,29.39,8.857z" opacity=".358" />
  <path fill="#d9e5f4" d="M29.339,8.929c-0.041,0-20.638,0-20.679,0c-1.696,0-4.814,1.375-4.814,3.071 c0,1.696,3.118,3.071,4.814,3.071c0.041,0,20.638,0,20.679,0c1.696,0,3.071-1.375,3.071-3.071 C32.411,10.304,31.036,8.929,29.339,8.929z" opacity=".376" />
  <path fill="#d8e4f3" d="M29.289,9C29.244,9,8.755,9,8.711,9c-1.657,0-4.694,1.343-4.694,3 c0,1.657,3.038,3,4.694,3c0.044,0,20.533,0,20.577,0c1.657,0,3-1.343,3-3C32.289,10.343,30.945,9,29.289,9z" opacity=".393" />
  <path fill="#d7e3f2" d="M29.238,9.071c-0.047,0-20.428,0-20.476,0c-1.617,0-4.575,1.311-4.575,2.929 c0,1.617,2.957,2.929,4.575,2.929c0.047,0,20.428,0,20.476,0c1.617,0,2.929-1.311,2.929-2.929 C32.166,10.383,30.855,9.071,29.238,9.071z" opacity=".41" />
  <path fill="#d6e2f1" d="M29.187,9.143c-0.05,0-20.324,0-20.374,0c-1.578,0-4.455,1.279-4.455,2.857 c0,1.578,2.877,2.857,4.455,2.857c0.05,0,20.324,0,20.374,0c1.578,0,2.857-1.279,2.857-2.857 C32.044,10.422,30.765,9.143,29.187,9.143z" opacity=".428" />
  <path fill="#d5e1f0" d="M29.136,9.214c-0.054,0-20.219,0-20.272,0c-1.538,0-4.335,1.247-4.335,2.786 c0,1.538,2.796,2.786,4.335,2.786c0.054,0,20.219,0,20.272,0c1.538,0,2.786-1.247,2.786-2.786 C31.922,10.461,30.675,9.214,29.136,9.214z" opacity=".445" />
  <path fill="#d4e0ef" d="M29.085,9.286c-0.057,0-20.114,0-20.171,0C7.416,9.286,4.7,10.501,4.7,12 c0,1.499,2.716,2.714,4.215,2.714c0.057,0,20.114,0,20.171,0c1.499,0,2.714-1.215,2.714-2.714 C31.8,10.501,30.584,9.286,29.085,9.286z" opacity=".462" />
  <path fill="#d3e0ee" d="M29.035,9.357c-0.06,0-20.009,0-20.069,0C7.506,9.357,4.87,10.54,4.87,12 c0,1.46,2.636,2.643,4.095,2.643c0.06,0,20.009,0,20.069,0c1.46,0,2.643-1.183,2.643-2.643C31.677,10.54,30.494,9.357,29.035,9.357 z" opacity=".48" />
  <path fill="#d2dfed" d="M28.984,9.429c-0.063,0-19.905,0-19.968,0c-1.42,0-3.975,1.151-3.975,2.571 c0,1.42,2.555,2.571,3.975,2.571c0.063,0,19.905,0,19.968,0c1.42,0,2.571-1.151,2.571-2.571 C31.555,10.58,30.404,9.429,28.984,9.429z" opacity=".497" />
  <path fill="#d1deed" d="M28.933,9.5c-0.066,0-19.8,0-19.866,0c-1.381,0-3.855,1.119-3.855,2.5 c0,1.381,2.475,2.5,3.855,2.5c0.066,0,19.8,0,19.866,0c1.381,0,2.5-1.119,2.5-2.5C31.433,10.619,30.314,9.5,28.933,9.5z" opacity=".514" />
  <path fill="#d0ddec" d="M28.882,9.571c-0.069,0-19.695,0-19.764,0c-1.341,0-3.736,1.087-3.736,2.429 c0,1.341,2.394,2.429,3.736,2.429c0.069,0,19.695,0,19.764,0c1.341,0,2.429-1.087,2.429-2.429 C31.311,10.659,30.223,9.571,28.882,9.571z" opacity=".532" />
  <path fill="#cfdceb" d="M28.831,9.643c-0.073,0-19.59,0-19.663,0c-1.302,0-3.616,1.055-3.616,2.357 c0,1.302,2.314,2.357,3.616,2.357c0.073,0,19.59,0,19.663,0c1.302,0,2.357-1.055,2.357-2.357 C31.189,10.698,30.133,9.643,28.831,9.643z" opacity=".549" />
  <path fill="#cedbea" d="M28.781,9.714c-0.076,0-19.485,0-19.561,0c-1.262,0-3.496,1.023-3.496,2.286 c0,1.262,2.234,2.286,3.496,2.286c0.076,0,19.485,0,19.561,0c1.262,0,2.286-1.023,2.286-2.286 C31.066,10.738,30.043,9.714,28.781,9.714z" opacity=".566" />
  <path fill="#cedae9" d="M28.73,9.786c-0.079,0-19.381,0-19.46,0c-1.223,0-3.376,0.991-3.376,2.214 c0,1.223,2.153,2.214,3.376,2.214c0.079,0,19.381,0,19.46,0c1.223,0,2.214-0.991,2.214-2.214 C30.944,10.777,29.953,9.786,28.73,9.786z" opacity=".584" />
  <path fill="#cdd9e8" d="M28.679,9.857c-0.082,0-19.276,0-19.358,0c-1.183,0-3.256,0.959-3.256,2.143 c0,1.183,2.073,2.143,3.256,2.143c0.082,0,19.276,0,19.358,0c1.183,0,2.143-0.959,2.143-2.143 C30.822,10.816,29.862,9.857,28.679,9.857z" opacity=".601" />
  <path fill="#ccd8e7" d="M28.628,9.929c-0.085,0-19.171,0-19.256,0c-1.144,0-3.136,0.927-3.136,2.071 c0,1.144,1.992,2.071,3.136,2.071c0.085,0,19.171,0,19.256,0c1.144,0,2.071-0.927,2.071-2.071 C30.7,10.856,29.772,9.929,28.628,9.929z" opacity=".618" />
  <path fill="#cbd7e6" d="M28.577,10c-0.088,0-19.066,0-19.155,0c-1.105,0-3.017,0.895-3.017,2 c0,1.105,1.912,2,3.017,2c0.088,0,19.066,0,19.155,0c1.105,0,2-0.895,2-2C30.577,10.895,29.682,10,28.577,10z" opacity=".636" />
  <path fill="#cad6e6" d="M28.527,10.071c-0.091,0-18.962,0-19.053,0c-1.065,0-2.897,0.863-2.897,1.929 c0,1.065,1.832,1.929,2.897,1.929c0.091,0,18.962,0,19.053,0c1.065,0,1.929-0.863,1.929-1.929 C30.455,10.935,29.592,10.071,28.527,10.071z" opacity=".653" />
  <path fill="#c9d5e5" d="M28.476,10.143c-0.095,0-18.857,0-18.951,0c-1.026,0-2.777,0.831-2.777,1.857 c0,1.026,1.751,1.857,2.777,1.857c0.095,0,18.857,0,18.951,0c1.026,0,1.857-0.831,1.857-1.857 C30.333,10.974,29.501,10.143,28.476,10.143z" opacity=".67" />
  <path fill="#c8d5e4" d="M28.425,10.214c-0.098,0-18.752,0-18.85,0c-0.986,0-2.657,0.799-2.657,1.786 c0,0.986,1.671,1.786,2.657,1.786c0.098,0,18.752,0,18.85,0c0.986,0,1.786-0.8,1.786-1.786 C30.211,11.014,29.411,10.214,28.425,10.214z" opacity=".688" />
  <path fill="#c7d4e3" d="M28.374,10.286c-0.101,0-18.647,0-18.748,0c-0.947,0-2.537,0.767-2.537,1.714 c0,0.947,1.59,1.714,2.537,1.714c0.101,0,18.647,0,18.748,0c0.947,0,1.714-0.768,1.714-1.714 C30.088,11.053,29.321,10.286,28.374,10.286z" opacity=".705" />
  <path fill="#c6d3e2" d="M28.323,10.357c-0.104,0-18.543,0-18.647,0c-0.907,0-2.417,0.735-2.417,1.643 c0,0.907,1.51,1.643,2.417,1.643c0.104,0,18.542,0,18.647,0c0.907,0,1.643-0.736,1.643-1.643 C29.966,11.093,29.231,10.357,28.323,10.357z" opacity=".722" />
  <path fill="#c5d2e1" d="M28.272,10.429c-0.107,0-18.438,0-18.545,0C8.86,10.429,7.43,11.132,7.43,12 c0,0.868,1.43,1.571,2.298,1.571c0.107,0,18.438,0,18.545,0c0.868,0,1.571-0.704,1.571-1.571 C29.844,11.132,29.14,10.429,28.272,10.429z" opacity=".74" />
  <path fill="#c4d1e0" d="M28.222,10.5c-0.11,0-18.333,0-18.443,0c-0.828,0-2.178,0.672-2.178,1.5 c0,0.828,1.349,1.5,2.178,1.5c0.11,0,18.333,0,18.443,0c0.828,0,1.5-0.672,1.5-1.5C29.722,11.172,29.05,10.5,28.222,10.5z" opacity=".757" />
  <path fill="#c3d0df" d="M28.171,10.571c-0.114,0-18.228,0-18.342,0c-0.789,0-2.058,0.64-2.058,1.429 c0,0.789,1.269,1.429,2.058,1.429c0.114,0,18.228,0,18.342,0c0.789,0,1.429-0.64,1.429-1.429 C29.599,11.211,28.96,10.571,28.171,10.571z" opacity=".774" />
  <path fill="#c2cfdf" d="M28.12,10.643c-0.117,0-18.123,0-18.24,0c-0.75,0-1.938,0.608-1.938,1.357 c0,0.75,1.189,1.357,1.938,1.357c0.117,0,18.123,0,18.24,0c0.75,0,1.357-0.608,1.357-1.357C29.477,11.25,28.87,10.643,28.12,10.643 z" opacity=".792" />
  <path fill="#c1cede" d="M28.069,10.714c-0.12,0-18.019,0-18.139,0c-0.71,0-1.818,0.576-1.818,1.286 c0,0.71,1.108,1.286,1.818,1.286c0.12,0,18.019,0,18.139,0c0.71,0,1.286-0.576,1.286-1.286 C29.355,11.29,28.779,10.714,28.069,10.714z" opacity=".809" />
  <path fill="#c0cddd" d="M28.018,10.786c-0.123,0-17.914,0-18.037,0c-0.671,0-1.698,0.544-1.698,1.214 c0,0.671,1.028,1.214,1.698,1.214c0.123,0,17.914,0,18.037,0c0.671,0,1.214-0.544,1.214-1.214 C29.233,11.329,28.689,10.786,28.018,10.786z" opacity=".827" />
  <path fill="#bfccdc" d="M27.968,10.857c-0.126,0-17.809,0-17.935,0c-0.631,0-1.579,0.512-1.579,1.143 c0,0.631,0.947,1.143,1.579,1.143c0.126,0,17.809,0,17.935,0c0.631,0,1.143-0.512,1.143-1.143 C29.11,11.369,28.599,10.857,27.968,10.857z" opacity=".844" />
  <path fill="#becbdb" d="M27.917,10.929c-0.129,0-17.704,0-17.834,0c-0.592,0-1.459,0.48-1.459,1.071 c0,0.592,0.867,1.071,1.459,1.071c0.129,0,17.704,0,17.834,0c0.592,0,1.071-0.48,1.071-1.071 C28.988,11.408,28.509,10.929,27.917,10.929z" opacity=".861" />
  <path fill="#bdcada" d="M27.866,11c-0.133,0-17.6,0-17.732,0c-0.552,0-1.339,0.448-1.339,1 c0,0.552,0.787,1,1.339,1c0.132,0,17.6,0,17.732,0c0.552,0,1-0.448,1-1C28.866,11.448,28.418,11,27.866,11z" opacity=".879" />
  <path fill="#bccad9" d="M27.815,11.071c-0.136,0-17.495,0-17.63,0c-0.513,0-1.219,0.416-1.219,0.929 c0,0.513,0.706,0.929,1.219,0.929c0.136,0,17.495,0,17.63,0c0.513,0,0.929-0.416,0.929-0.929 C28.744,11.487,28.328,11.071,27.815,11.071z" opacity=".896" />
  <path fill="#bbc9d8" d="M27.764,11.143c-0.139,0-17.39,0-17.529,0c-0.473,0-1.099,0.384-1.099,0.857 c0,0.473,0.626,0.857,1.099,0.857c0.139,0,17.39,0,17.529,0c0.473,0,0.857-0.384,0.857-0.857 C28.622,11.527,28.238,11.143,27.764,11.143z" opacity=".913" />
  <path fill="#bac8d8" d="M27.714,11.214c-0.142,0-17.285,0-17.427,0c-0.434,0-0.979,0.352-0.979,0.786 c0,0.434,0.545,0.786,0.979,0.786c0.142,0,17.285,0,17.427,0c0.434,0,0.786-0.352,0.786-0.786 C28.499,11.566,28.148,11.214,27.714,11.214z" opacity=".931" />
  <path fill="#b9c7d7" d="M27.663,11.286c-0.145,0-17.18,0-17.326,0c-0.394,0-0.86,0.32-0.86,0.714 c0,0.394,0.465,0.714,0.86,0.714c0.145,0,17.18,0,17.326,0c0.394,0,0.714-0.32,0.714-0.714 C28.377,11.605,28.057,11.286,27.663,11.286z" opacity=".948" />
  <path fill="#b8c6d6" d="M27.612,11.357c-0.148,0-17.076,0-17.224,0c-0.355,0-0.74,0.288-0.74,0.643 c0,0.355,0.385,0.643,0.74,0.643c0.148,0,17.076,0,17.224,0c0.355,0,0.643-0.288,0.643-0.643 C28.255,11.645,27.967,11.357,27.612,11.357z" opacity=".965" />
  <path fill="#b7c5d5" d="M27.561,11.429c-0.151,0-16.971,0-17.122,0c-0.316,0-0.62,0.256-0.62,0.571 c0,0.316,0.304,0.571,0.62,0.571c0.151,0,16.971,0,17.122,0c0.316,0,0.571-0.256,0.571-0.571 C28.133,11.684,27.877,11.429,27.561,11.429z" opacity=".983" />
  <path fill="#b6c4d4" d="M27.51,11.5c-0.155,0-16.866,0-17.021,0c-0.276,0-0.5,0.224-0.5,0.5c0,0.276,0.224,0.5,0.5,0.5 c0.155,0,16.866,0,17.021,0c0.276,0,0.5-0.224,0.5-0.5C28.01,11.724,27.786,11.5,27.51,11.5z" />
  <g>
    <path fill="#e6f1ff" d="M40,16H27c-2.209,0-4,1.791-4,4c0,2.209,1.791,4,4,4h13c2.209,0,6.503-1.791,6.503-4 C46.503,17.791,42.209,16,40,16z" opacity=".15" />
    <path fill="#e5f0fe" d="M39.97,16.071c-0.003,0-12.936,0-12.939,0c-2.17,0-3.929,1.759-3.929,3.929 c0,2.17,1.759,3.929,3.929,3.929c0.003,0,12.936,0,12.939,0c2.17,0,6.38-1.759,6.38-3.929C46.35,17.83,42.139,16.071,39.97,16.071z" opacity=".167" />
    <path fill="#e4effd" d="M39.939,16.143c-0.006,0-12.872,0-12.878,0c-2.13,0-3.857,1.727-3.857,3.857 c0,2.13,1.727,3.857,3.857,3.857c0.006,0,12.872,0,12.878,0c2.13,0,6.258-1.727,6.258-3.857 C46.197,17.87,42.069,16.143,39.939,16.143z" opacity=".185" />
    <path fill="#e3eefc" d="M39.909,16.214c-0.009,0-12.808,0-12.818,0c-2.091,0-3.786,1.695-3.786,3.786 c0,2.091,1.695,3.786,3.786,3.786c0.009,0,12.808,0,12.818,0c2.091,0,6.135-1.695,6.135-3.786 C46.044,17.909,42,16.214,39.909,16.214z" opacity=".202" />
    <path fill="#e2edfb" d="M39.878,16.286c-0.013,0-12.744,0-12.757,0c-2.051,0-3.714,1.663-3.714,3.714 c0,2.051,1.663,3.714,3.714,3.714c0.013,0,12.744,0,12.757,0c2.051,0,6.013-1.663,6.013-3.714 C45.891,17.949,41.93,16.286,39.878,16.286z" opacity=".219" />
    <path fill="#e1ecfb" d="M39.848,16.357c-0.016,0-12.68,0-12.696,0c-2.012,0-3.643,1.631-3.643,3.643 c0,2.012,1.631,3.643,3.643,3.643c0.016,0,12.68,0,12.696,0c2.012,0,5.89-1.631,5.89-3.643 C45.738,17.988,41.86,16.357,39.848,16.357z" opacity=".237" />
    <path fill="#e0ebfa" d="M39.818,16.429c-0.019,0-12.616,0-12.635,0c-1.972,0-3.571,1.599-3.571,3.571 c0,1.972,1.599,3.571,3.571,3.571c0.019,0,12.616,0,12.635,0c1.972,0,5.768-1.599,5.768-3.571 C45.585,18.027,41.79,16.429,39.818,16.429z" opacity=".254" />
    <path fill="#dfebf9" d="M39.787,16.5c-0.022,0-12.552,0-12.574,0c-1.933,0-3.5,1.567-3.5,3.5 c0,1.933,1.567,3.5,3.5,3.5c0.022,0,12.552,0,12.574,0c1.933,0,5.645-1.567,5.645-3.5C45.432,18.067,41.72,16.5,39.787,16.5z" opacity=".271" />
    <path fill="#deeaf8" d="M39.757,16.571c-0.025,0-12.488,0-12.514,0c-1.894,0-3.429,1.535-3.429,3.429 c0,1.894,1.535,3.429,3.429,3.429c0.025,0,12.488,0,12.514,0c1.894,0,5.523-1.535,5.523-3.429 C45.279,18.106,41.65,16.571,39.757,16.571z" opacity=".289" />
    <path fill="#dde9f7" d="M39.726,16.643c-0.028,0-12.424,0-12.453,0c-1.854,0-3.357,1.503-3.357,3.357 c0,1.854,1.503,3.357,3.357,3.357c0.028,0,12.424,0,12.453,0c1.854,0,5.4-1.503,5.4-3.357 C45.126,18.146,41.58,16.643,39.726,16.643z" opacity=".306" />
    <path fill="#dce8f6" d="M39.696,16.714c-0.032,0-12.36,0-12.392,0c-1.815,0-3.286,1.471-3.286,3.286 c0,1.815,1.471,3.286,3.286,3.286c0.032,0,12.36,0,12.392,0c1.815,0,5.278-1.471,5.278-3.286 C44.974,18.185,41.511,16.714,39.696,16.714z" opacity=".324" />
    <path fill="#dbe7f5" d="M39.666,16.786c-0.035,0-12.296,0-12.331,0c-1.775,0-3.214,1.439-3.214,3.214 c0,1.775,1.439,3.214,3.214,3.214c0.035,0,12.296,0,12.331,0c1.775,0,5.155-1.439,5.155-3.214 C44.821,18.225,41.441,16.786,39.666,16.786z" opacity=".341" />
    <path fill="#dae6f4" d="M39.635,16.857c-0.038,0-12.233,0-12.27,0c-1.736,0-3.143,1.407-3.143,3.143 c0,1.736,1.407,3.143,3.143,3.143c0.038,0,12.233,0,12.27,0c1.736,0,5.033-1.407,5.033-3.143 C44.668,18.264,41.371,16.857,39.635,16.857z" opacity=".358" />
    <path fill="#d9e5f4" d="M39.605,16.929c-0.041,0-12.169,0-12.21,0c-1.696,0-3.071,1.375-3.071,3.071 c0,1.696,1.375,3.071,3.071,3.071c0.041,0,12.169,0,12.21,0c1.696,0,4.91-1.375,4.91-3.071 C44.515,18.304,41.301,16.929,39.605,16.929z" opacity=".376" />
    <path fill="#d8e4f3" d="M39.574,17c-0.044,0-12.105,0-12.149,0c-1.657,0-3,1.343-3,3c0,1.657,1.343,3,3,3 c0.044,0,12.105,0,12.149,0c1.657,0,4.788-1.343,4.788-3C44.362,18.343,41.231,17,39.574,17z" opacity=".393" />
    <path fill="#d7e3f2" d="M39.544,17.071c-0.047,0-12.041,0-12.088,0c-1.617,0-2.929,1.311-2.929,2.929 c0,1.617,1.311,2.929,2.929,2.929c0.047,0,12.041,0,12.088,0c1.617,0,4.665-1.311,4.665-2.929 C44.209,18.383,41.161,17.071,39.544,17.071z" opacity=".41" />
    <path fill="#d6e2f1" d="M39.514,17.143c-0.05,0-11.977,0-12.027,0c-1.578,0-2.857,1.279-2.857,2.857 c0,1.578,1.279,2.857,2.857,2.857c0.05,0,11.977,0,12.027,0c1.578,0,4.543-1.279,4.543-2.857 C44.056,18.422,41.092,17.143,39.514,17.143z" opacity=".428" />
    <path fill="#d5e1f0" d="M39.483,17.214c-0.054,0-11.913,0-11.966,0c-1.538,0-2.786,1.247-2.786,2.786 c0,1.538,1.247,2.786,2.786,2.786c0.054,0,11.913,0,11.966,0c1.538,0,4.42-1.247,4.42-2.786 C43.903,18.461,41.022,17.214,39.483,17.214z" opacity=".445" />
    <path fill="#d4e0ef" d="M39.453,17.286c-0.057,0-11.849,0-11.906,0c-1.499,0-2.714,1.215-2.714,2.714 c0,1.499,1.215,2.714,2.714,2.714c0.057,0,11.849,0,11.906,0c1.499,0,4.298-1.215,4.298-2.714 C43.75,18.501,40.952,17.286,39.453,17.286z" opacity=".462" />
    <path fill="#d3e0ee" d="M39.422,17.357c-0.06,0-11.785,0-11.845,0c-1.46,0-2.643,1.183-2.643,2.643 c0,1.46,1.183,2.643,2.643,2.643c0.06,0,11.785,0,11.845,0c1.46,0,4.175-1.183,4.175-2.643 C43.597,18.54,40.882,17.357,39.422,17.357z" opacity=".48" />
    <path fill="#d2dfed" d="M39.392,17.429c-0.063,0-11.721,0-11.784,0c-1.42,0-2.571,1.151-2.571,2.571 c0,1.42,1.151,2.571,2.571,2.571c0.063,0,11.721,0,11.784,0c1.42,0,4.053-1.151,4.053-2.571 C43.445,18.58,40.812,17.429,39.392,17.429z" opacity=".497" />
    <path fill="#d1deed" d="M39.362,17.5c-0.066,0-11.657,0-11.723,0c-1.381,0-2.5,1.119-2.5,2.5 c0,1.381,1.119,2.5,2.5,2.5c0.066,0,11.657,0,11.723,0c1.381,0,3.93-1.119,3.93-2.5C43.292,18.619,40.742,17.5,39.362,17.5z" opacity=".514" />
    <path fill="#d0ddec" d="M39.331,17.571c-0.069,0-11.593,0-11.662,0c-1.341,0-2.429,1.087-2.429,2.429 c0,1.341,1.087,2.429,2.429,2.429c0.069,0,11.593,0,11.662,0c1.341,0,3.808-1.087,3.808-2.429 C43.139,18.659,40.672,17.571,39.331,17.571z" opacity=".532" />
    <path fill="#cfdceb" d="M39.301,17.643c-0.073,0-11.529,0-11.602,0c-1.302,0-2.357,1.055-2.357,2.357 c0,1.302,1.055,2.357,2.357,2.357c0.073,0,11.529,0,11.602,0c1.302,0,3.685-1.055,3.685-2.357 C42.986,18.698,40.603,17.643,39.301,17.643z" opacity=".549" />
    <path fill="#cedbea" d="M39.27,17.714c-0.076,0-11.465,0-11.541,0c-1.262,0-2.286,1.023-2.286,2.286 c0,1.262,1.023,2.286,2.286,2.286c0.076,0,11.465,0,11.541,0c1.262,0,3.563-1.023,3.563-2.286 C42.833,18.738,40.533,17.714,39.27,17.714z" opacity=".566" />
    <path fill="#cedae9" d="M39.24,17.786c-0.079,0-11.401,0-11.48,0c-1.223,0-2.214,0.991-2.214,2.214 c0,1.223,0.991,2.214,2.214,2.214c0.079,0,11.401,0,11.48,0c1.223,0,3.44-0.991,3.44-2.214 C42.68,18.777,40.463,17.786,39.24,17.786z" opacity=".584" />
    <path fill="#cdd9e8" d="M39.21,17.857c-0.082,0-11.337,0-11.419,0c-1.183,0-2.143,0.959-2.143,2.143 c0,1.183,0.959,2.143,2.143,2.143c0.082,0,11.337,0,11.419,0c1.183,0,3.318-0.959,3.318-2.143 C42.527,18.816,40.393,17.857,39.21,17.857z" opacity=".601" />
    <path fill="#ccd8e7" d="M39.179,17.929c-0.085,0-11.273,0-11.358,0c-1.144,0-2.071,0.927-2.071,2.071 c0,1.144,0.927,2.071,2.071,2.071c0.085,0,11.273,0,11.358,0c1.144,0,3.195-0.927,3.195-2.071 C42.374,18.856,40.323,17.929,39.179,17.929z" opacity=".618" />
    <path fill="#cbd7e6" d="M39.149,18c-0.088,0-11.209,0-11.298,0c-1.105,0-2,0.895-2,2c0,1.105,0.895,2,2,2 c0.088,0,11.209,0,11.298,0c1.105,0,3.073-0.895,3.073-2C42.221,18.895,40.253,18,39.149,18z" opacity=".636" />
    <path fill="#cad6e6" d="M39.118,18.071c-0.091,0-11.145,0-11.237,0c-1.065,0-1.929,0.863-1.929,1.929 c0,1.065,0.863,1.929,1.929,1.929c0.091,0,11.145,0,11.237,0c1.065,0,2.95-0.863,2.95-1.929 C42.068,18.935,40.183,18.071,39.118,18.071z" opacity=".653" />
    <path fill="#c9d5e5" d="M39.088,18.143c-0.095,0-11.081,0-11.176,0c-1.026,0-1.857,0.831-1.857,1.857 c0,1.026,0.831,1.857,1.857,1.857c0.095,0,11.081,0,11.176,0c1.026,0,2.828-0.831,2.828-1.857 C41.915,18.974,40.114,18.143,39.088,18.143z" opacity=".67" />
    <path fill="#c8d5e4" d="M39.058,18.214c-0.098,0-11.017,0-11.115,0c-0.986,0-1.786,0.799-1.786,1.786 c0,0.986,0.8,1.786,1.786,1.786c0.098,0,11.017,0,11.115,0c0.986,0,2.705-0.8,2.705-1.786 C41.763,19.014,40.044,18.214,39.058,18.214z" opacity=".688" />
    <path fill="#c7d4e3" d="M39.027,18.286c-0.101,0-10.953,0-11.054,0c-0.947,0-1.714,0.767-1.714,1.714 c0,0.947,0.768,1.714,1.714,1.714c0.101,0,10.953,0,11.054,0c0.947,0,2.583-0.768,2.583-1.714 C41.61,19.053,39.974,18.286,39.027,18.286z" opacity=".705" />
    <path fill="#c6d3e2" d="M38.997,18.357c-0.104,0-10.889,0-10.994,0c-0.907,0-1.643,0.735-1.643,1.643 c0,0.907,0.736,1.643,1.643,1.643c0.104,0,10.889,0,10.994,0c0.907,0,2.46-0.736,2.46-1.643 C41.457,19.093,39.904,18.357,38.997,18.357z" opacity=".722" />
    <path fill="#c5d2e1" d="M38.966,18.429c-0.107,0-10.825,0-10.933,0c-0.868,0-1.571,0.703-1.571,1.571 c0,0.868,0.704,1.571,1.571,1.571c0.107,0,10.825,0,10.933,0c0.868,0,2.338-0.704,2.338-1.571 C41.304,19.132,39.834,18.429,38.966,18.429z" opacity=".74" />
    <path fill="#c4d1e0" d="M38.936,18.5c-0.11,0-10.762,0-10.872,0c-0.828,0-1.5,0.672-1.5,1.5 c0,0.828,0.672,1.5,1.5,1.5c0.11,0,10.761,0,10.872,0c0.828,0,2.215-0.672,2.215-1.5C41.151,19.172,39.764,18.5,38.936,18.5z" opacity=".757" />
    <path fill="#c3d0df" d="M38.906,18.571c-0.114,0-10.698,0-10.811,0c-0.789,0-1.429,0.64-1.429,1.429 c0,0.789,0.64,1.429,1.429,1.429c0.114,0,10.698,0,10.811,0c0.789,0,2.093-0.64,2.093-1.429 C40.998,19.211,39.695,18.571,38.906,18.571z" opacity=".774" />
    <path fill="#c2cfdf" d="M38.875,18.643c-0.117,0-10.634,0-10.75,0c-0.75,0-1.357,0.608-1.357,1.357 c0,0.75,0.608,1.357,1.357,1.357c0.117,0,10.634,0,10.75,0c0.75,0,1.97-0.608,1.97-1.357C40.845,19.25,39.625,18.643,38.875,18.643 z" opacity=".792" />
    <path fill="#c1cede" d="M38.845,18.714c-0.12,0-10.57,0-10.69,0c-0.71,0-1.286,0.576-1.286,1.286 c0,0.71,0.576,1.286,1.286,1.286c0.12,0,10.57,0,10.69,0c0.71,0,1.848-0.576,1.848-1.286C40.692,19.29,39.555,18.714,38.845,18.714 z" opacity=".809" />
    <path fill="#c0cddd" d="M38.814,18.786c-0.123,0-10.506,0-10.629,0c-0.671,0-1.214,0.544-1.214,1.214 c0,0.671,0.544,1.214,1.214,1.214c0.123,0,10.506,0,10.629,0c0.671,0,1.725-0.544,1.725-1.214 C40.539,19.329,39.485,18.786,38.814,18.786z" opacity=".827" />
    <path fill="#bfccdc" d="M38.784,18.857c-0.126,0-10.442,0-10.568,0c-0.631,0-1.143,0.512-1.143,1.143 c0,0.631,0.512,1.143,1.143,1.143c0.126,0,10.442,0,10.568,0c0.631,0,1.603-0.512,1.603-1.143 C40.386,19.369,39.415,18.857,38.784,18.857z" opacity=".844" />
    <path fill="#becbdb" d="M38.754,18.929c-0.129,0-10.378,0-10.507,0c-0.592,0-1.071,0.48-1.071,1.071 c0,0.592,0.48,1.071,1.071,1.071c0.129,0,10.378,0,10.507,0c0.592,0,1.48-0.48,1.48-1.071 C40.234,19.408,39.345,18.929,38.754,18.929z" opacity=".861" />
    <path fill="#bdcada" d="M38.723,19c-0.133,0-10.314,0-10.446,0c-0.552,0-1,0.448-1,1c0,0.552,0.448,1,1,1 c0.132,0,10.314,0,10.446,0c0.552,0,1.358-0.448,1.358-1C40.081,19.448,39.275,19,38.723,19z" opacity=".879" />
    <path fill="#bccad9" d="M38.693,19.071c-0.136,0-10.25,0-10.386,0c-0.513,0-0.929,0.416-0.929,0.929 c0,0.513,0.416,0.929,0.929,0.929c0.136,0,10.25,0,10.386,0c0.513,0,1.235-0.416,1.235-0.929 C39.928,19.487,39.206,19.071,38.693,19.071z" opacity=".896" />
    <path fill="#bbc9d8" d="M38.662,19.143c-0.139,0-10.186,0-10.325,0c-0.473,0-0.857,0.384-0.857,0.857 c0,0.473,0.384,0.857,0.857,0.857c0.139,0,10.186,0,10.325,0c0.473,0,1.113-0.384,1.113-0.857 C39.775,19.527,39.136,19.143,38.662,19.143z" opacity=".913" />
    <path fill="#bac8d8" d="M38.632,19.214c-0.142,0-10.122,0-10.264,0c-0.434,0-0.786,0.352-0.786,0.786 c0,0.434,0.352,0.786,0.786,0.786c0.142,0,10.122,0,10.264,0c0.434,0,0.99-0.352,0.99-0.786 C39.622,19.566,39.066,19.214,38.632,19.214z" opacity=".931" />
    <path fill="#b9c7d7" d="M38.602,19.286c-0.145,0-10.058,0-10.203,0c-0.394,0-0.714,0.32-0.714,0.714 c0,0.394,0.32,0.714,0.714,0.714c0.145,0,10.058,0,10.203,0c0.394,0,0.868-0.32,0.868-0.714 C39.469,19.605,38.996,19.286,38.602,19.286z" opacity=".948" />
    <path fill="#b8c6d6" d="M38.571,19.357c-0.148,0-9.994,0-10.142,0c-0.355,0-0.643,0.288-0.643,0.643 c0,0.355,0.288,0.643,0.643,0.643c0.148,0,9.994,0,10.142,0c0.355,0,0.745-0.288,0.745-0.643 C39.316,19.645,38.926,19.357,38.571,19.357z" opacity=".965" />
    <path fill="#b7c5d5" d="M38.541,19.429c-0.151,0-9.93,0-10.082,0c-0.316,0-0.571,0.256-0.571,0.571 c0,0.316,0.256,0.571,0.571,0.571c0.151,0,9.93,0,10.082,0c0.316,0,0.623-0.256,0.623-0.571 C39.163,19.684,38.856,19.429,38.541,19.429z" opacity=".983" />
    <path fill="#b6c4d4" d="M38.51,19.5c-0.155,0-9.866,0-10.021,0c-0.276,0-0.5,0.224-0.5,0.5c0,0.276,0.224,0.5,0.5,0.5 c0.155,0,9.866,0,10.021,0c0.276,0,0.5-0.224,0.5-0.5C39.01,19.724,38.786,19.5,38.51,19.5z" />
  </g>
  <g>
    <path fill="#e6f1ff" d="M20,16h-6c-2.209,0-9.888,1.791-9.888,4c0,2.209,7.679,4,9.888,4h6 c2.209,0,4-1.791,4-4C24,17.791,22.209,16,20,16z" opacity=".15" />
    <path fill="#e5f0fe" d="M19.97,16.071c-0.003,0-5.936,0-5.939,0c-2.17,0-9.697,1.759-9.697,3.929 c0,2.17,7.527,3.929,9.697,3.929c0.003,0,5.936,0,5.939,0c2.17,0,3.929-1.759,3.929-3.929C23.898,17.83,22.139,16.071,19.97,16.071 z" opacity=".167" />
    <path fill="#e4effd" d="M19.939,16.143c-0.006,0-5.872,0-5.878,0c-2.13,0-9.505,1.727-9.505,3.857 c0,2.13,7.375,3.857,9.505,3.857c0.006,0,5.872,0,5.878,0c2.13,0,3.857-1.727,3.857-3.857 C23.796,17.87,22.069,16.143,19.939,16.143z" opacity=".185" />
    <path fill="#e3eefc" d="M19.909,16.214c-0.009,0-5.808,0-5.818,0C12,16.214,4.778,17.909,4.778,20 c0,2.091,7.223,3.786,9.313,3.786c0.009,0,5.808,0,5.818,0c2.091,0,3.786-1.695,3.786-3.786C23.695,17.909,22,16.214,19.909,16.214 z" opacity=".202" />
    <path fill="#e2edfb" d="M19.878,16.286c-0.013,0-5.744,0-5.757,0C12.07,16.286,5,17.949,5,20 c0,2.051,7.07,3.714,9.122,3.714c0.013,0,5.744,0,5.757,0c2.051,0,3.714-1.663,3.714-3.714 C23.593,17.949,21.93,16.286,19.878,16.286z" opacity=".219" />
    <path fill="#e1ecfb" d="M19.848,16.357c-0.016,0-5.68,0-5.696,0c-2.012,0-8.93,1.631-8.93,3.643 c0,2.012,6.918,3.643,8.93,3.643c0.016,0,5.68,0,5.696,0c2.012,0,3.643-1.631,3.643-3.643 C23.491,17.988,21.86,16.357,19.848,16.357z" opacity=".237" />
    <path fill="#e0ebfa" d="M19.818,16.429c-0.019,0-5.616,0-5.635,0c-1.972,0-8.739,1.599-8.739,3.571 c0,1.972,6.766,3.571,8.739,3.571c0.019,0,5.616,0,5.635,0c1.972,0,3.571-1.599,3.571-3.571 C23.389,18.027,21.79,16.429,19.818,16.429z" opacity=".254" />
    <path fill="#dfebf9" d="M19.787,16.5c-0.022,0-5.552,0-5.574,0c-1.933,0-8.547,1.567-8.547,3.5 c0,1.933,6.614,3.5,8.547,3.5c0.022,0,5.552,0,5.574,0c1.933,0,3.5-1.567,3.5-3.5C23.287,18.067,21.72,16.5,19.787,16.5z" opacity=".271" />
    <path fill="#deeaf8" d="M19.757,16.571c-0.025,0-5.488,0-5.514,0c-1.894,0-8.355,1.535-8.355,3.429 c0,1.894,6.462,3.429,8.355,3.429c0.025,0,5.488,0,5.514,0c1.894,0,3.429-1.535,3.429-3.429 C23.185,18.106,21.65,16.571,19.757,16.571z" opacity=".289" />
    <path fill="#dde9f7" d="M19.726,16.643c-0.028,0-5.424,0-5.453,0c-1.854,0-8.164,1.503-8.164,3.357 c0,1.854,6.31,3.357,8.164,3.357c0.028,0,5.424,0,5.453,0c1.854,0,3.357-1.503,3.357-3.357 C23.084,18.146,21.58,16.643,19.726,16.643z" opacity=".306" />
    <path fill="#dce8f6" d="M19.696,16.714c-0.032,0-5.36,0-5.392,0c-1.815,0-7.972,1.471-7.972,3.286 c0,1.815,6.158,3.286,7.972,3.286c0.032,0,5.36,0,5.392,0c1.815,0,3.286-1.471,3.286-3.286 C22.982,18.185,21.511,16.714,19.696,16.714z" opacity=".324" />
    <path fill="#dbe7f5" d="M19.666,16.786c-0.035,0-5.296,0-5.331,0c-1.775,0-7.781,1.439-7.781,3.214 c0,1.775,6.005,3.214,7.781,3.214c0.035,0,5.296,0,5.331,0c1.775,0,3.214-1.439,3.214-3.214 C22.88,18.225,21.441,16.786,19.666,16.786z" opacity=".341" />
    <path fill="#dae6f4" d="M19.635,16.857c-0.038,0-5.233,0-5.27,0c-1.736,0-7.589,1.407-7.589,3.143 c0,1.736,5.853,3.143,7.589,3.143c0.038,0,5.233,0,5.27,0c1.736,0,3.143-1.407,3.143-3.143 C22.778,18.264,21.371,16.857,19.635,16.857z" opacity=".358" />
    <path fill="#d9e5f4" d="M19.605,16.929c-0.041,0-5.169,0-5.21,0c-1.696,0-7.397,1.375-7.397,3.071 c0,1.696,5.701,3.071,7.397,3.071c0.041,0,5.169,0,5.21,0c1.696,0,3.071-1.375,3.071-3.071 C22.676,18.304,21.301,16.929,19.605,16.929z" opacity=".376" />
    <path fill="#d8e4f3" d="M19.574,17c-0.044,0-5.105,0-5.149,0c-1.657,0-7.206,1.343-7.206,3 c0,1.657,5.549,3,7.206,3c0.044,0,5.105,0,5.149,0c1.657,0,3-1.343,3-3C22.574,18.343,21.231,17,19.574,17z" opacity=".393" />
    <path fill="#d7e3f2" d="M19.544,17.071c-0.047,0-5.041,0-5.088,0c-1.617,0-7.014,1.311-7.014,2.929 c0,1.617,5.397,2.929,7.014,2.929c0.047,0,5.041,0,5.088,0c1.617,0,2.929-1.311,2.929-2.929 C22.473,18.383,21.161,17.071,19.544,17.071z" opacity=".41" />
    <path fill="#d6e2f1" d="M19.514,17.143c-0.05,0-4.977,0-5.027,0c-1.578,0-6.823,1.279-6.823,2.857 c0,1.578,5.245,2.857,6.823,2.857c0.05,0,4.977,0,5.027,0c1.578,0,2.857-1.279,2.857-2.857 C22.371,18.422,21.092,17.143,19.514,17.143z" opacity=".428" />
    <path fill="#d5e1f0" d="M19.483,17.214c-0.054,0-4.913,0-4.966,0c-1.538,0-6.631,1.247-6.631,2.786 c0,1.538,5.093,2.786,6.631,2.786c0.054,0,4.913,0,4.966,0c1.538,0,2.786-1.247,2.786-2.786 C22.269,18.461,21.022,17.214,19.483,17.214z" opacity=".445" />
    <path fill="#d4e0ef" d="M19.453,17.286c-0.057,0-4.849,0-4.906,0c-1.499,0-6.439,1.215-6.439,2.714 c0,1.499,4.94,2.714,6.439,2.714c0.057,0,4.849,0,4.906,0c1.499,0,2.714-1.215,2.714-2.714 C22.167,18.501,20.952,17.286,19.453,17.286z" opacity=".462" />
    <path fill="#d3e0ee" d="M19.422,17.357c-0.06,0-4.785,0-4.845,0c-1.46,0-6.248,1.183-6.248,2.643 c0,1.46,4.788,2.643,6.248,2.643c0.06,0,4.785,0,4.845,0c1.46,0,2.643-1.183,2.643-2.643C22.065,18.54,20.882,17.357,19.422,17.357 z" opacity=".48" />
    <path fill="#d2dfed" d="M19.392,17.429c-0.063,0-4.721,0-4.784,0c-1.42,0-6.056,1.151-6.056,2.571 c0,1.42,4.636,2.571,6.056,2.571c0.063,0,4.721,0,4.784,0c1.42,0,2.571-1.151,2.571-2.571 C21.963,18.58,20.812,17.429,19.392,17.429z" opacity=".497" />
    <path fill="#d1deed" d="M19.362,17.5c-0.066,0-4.657,0-4.723,0c-1.381,0-5.865,1.119-5.865,2.5 c0,1.381,4.484,2.5,5.865,2.5c0.066,0,4.657,0,4.723,0c1.381,0,2.5-1.119,2.5-2.5C21.862,18.619,20.742,17.5,19.362,17.5z" opacity=".514" />
    <path fill="#d0ddec" d="M19.331,17.571c-0.069,0-4.593,0-4.662,0c-1.341,0-5.673,1.087-5.673,2.429 c0,1.341,4.332,2.429,5.673,2.429c0.069,0,4.593,0,4.662,0c1.341,0,2.429-1.087,2.429-2.429 C21.76,18.659,20.672,17.571,19.331,17.571z" opacity=".532" />
    <path fill="#cfdceb" d="M19.301,17.643c-0.073,0-4.529,0-4.602,0c-1.302,0-5.481,1.055-5.481,2.357 c0,1.302,4.18,2.357,5.481,2.357c0.073,0,4.529,0,4.602,0c1.302,0,2.357-1.055,2.357-2.357 C21.658,18.698,20.603,17.643,19.301,17.643z" opacity=".549" />
    <path fill="#cedbea" d="M19.27,17.714c-0.076,0-4.465,0-4.541,0c-1.262,0-5.29,1.023-5.29,2.286 c0,1.262,4.028,2.286,5.29,2.286c0.076,0,4.465,0,4.541,0c1.262,0,2.286-1.023,2.286-2.286 C21.556,18.738,20.533,17.714,19.27,17.714z" opacity=".566" />
    <path fill="#cedae9" d="M19.24,17.786c-0.079,0-4.401,0-4.48,0c-1.223,0-5.098,0.991-5.098,2.214 c0,1.223,3.875,2.214,5.098,2.214c0.079,0,4.401,0,4.48,0c1.223,0,2.214-0.991,2.214-2.214 C21.454,18.777,20.463,17.786,19.24,17.786z" opacity=".584" />
    <path fill="#cdd9e8" d="M19.21,17.857c-0.082,0-4.337,0-4.419,0c-1.183,0-4.907,0.959-4.907,2.143 c0,1.183,3.723,2.143,4.907,2.143c0.082,0,4.337,0,4.419,0c1.183,0,2.143-0.959,2.143-2.143 C21.352,18.816,20.393,17.857,19.21,17.857z" opacity=".601" />
    <path fill="#ccd8e7" d="M19.179,17.929c-0.085,0-4.273,0-4.358,0c-1.144,0-4.715,0.927-4.715,2.071 c0,1.144,3.571,2.071,4.715,2.071c0.085,0,4.273,0,4.358,0c1.144,0,2.071-0.927,2.071-2.071 C21.251,18.856,20.323,17.929,19.179,17.929z" opacity=".618" />
    <path fill="#cbd7e6" d="M19.149,18c-0.088,0-4.209,0-4.298,0c-1.105,0-4.523,0.895-4.523,2 c0,1.105,3.419,2,4.523,2c0.088,0,4.209,0,4.298,0c1.105,0,2-0.895,2-2C21.149,18.895,20.253,18,19.149,18z" opacity=".636" />
    <path fill="#cad6e6" d="M19.118,18.071c-0.091,0-4.145,0-4.237,0c-1.065,0-4.332,0.863-4.332,1.929 c0,1.065,3.267,1.929,4.332,1.929c0.091,0,4.145,0,4.237,0c1.065,0,1.929-0.863,1.929-1.929 C21.047,18.935,20.183,18.071,19.118,18.071z" opacity=".653" />
    <path fill="#c9d5e5" d="M19.088,18.143c-0.095,0-4.081,0-4.176,0c-1.026,0-4.14,0.831-4.14,1.857 c0,1.026,3.115,1.857,4.14,1.857c0.095,0,4.081,0,4.176,0c1.026,0,1.857-0.831,1.857-1.857 C20.945,18.974,20.114,18.143,19.088,18.143z" opacity=".67" />
    <path fill="#c8d5e4" d="M19.058,18.214c-0.098,0-4.017,0-4.115,0c-0.986,0-3.949,0.799-3.949,1.786 c0,0.986,2.963,1.786,3.949,1.786c0.098,0,4.017,0,4.115,0c0.986,0,1.786-0.8,1.786-1.786 C20.843,19.014,20.044,18.214,19.058,18.214z" opacity=".688" />
    <path fill="#c7d4e3" d="M19.027,18.286c-0.101,0-3.953,0-4.054,0c-0.947,0-3.757,0.767-3.757,1.714 c0,0.947,2.81,1.714,3.757,1.714c0.101,0,3.953,0,4.054,0c0.947,0,1.714-0.768,1.714-1.714 C20.741,19.053,19.974,18.286,19.027,18.286z" opacity=".705" />
    <path fill="#c6d3e2" d="M18.997,18.357c-0.104,0-3.889,0-3.994,0c-0.907,0-3.566,0.735-3.566,1.643 c0,0.907,2.658,1.643,3.566,1.643c0.104,0,3.889,0,3.994,0c0.907,0,1.643-0.736,1.643-1.643 C20.64,19.093,19.904,18.357,18.997,18.357z" opacity=".722" />
    <path fill="#c5d2e1" d="M18.966,18.429c-0.107,0-3.825,0-3.933,0c-0.868,0-3.374,0.703-3.374,1.571 c0,0.868,2.506,1.571,3.374,1.571c0.107,0,3.825,0,3.933,0c0.868,0,1.571-0.704,1.571-1.571 C20.538,19.132,19.834,18.429,18.966,18.429z" opacity=".74" />
    <path fill="#c4d1e0" d="M18.936,18.5c-0.11,0-3.762,0-3.872,0c-0.828,0-3.182,0.672-3.182,1.5 c0,0.828,2.354,1.5,3.182,1.5c0.11,0,3.761,0,3.872,0c0.828,0,1.5-0.672,1.5-1.5C20.436,19.172,19.764,18.5,18.936,18.5z" opacity=".757" />
    <path fill="#c3d0df" d="M18.906,18.571c-0.114,0-3.698,0-3.811,0c-0.789,0-2.991,0.64-2.991,1.429 c0,0.789,2.202,1.429,2.991,1.429c0.114,0,3.698,0,3.811,0c0.789,0,1.429-0.64,1.429-1.429 C20.334,19.211,19.695,18.571,18.906,18.571z" opacity=".774" />
    <path fill="#c2cfdf" d="M18.875,18.643c-0.117,0-3.634,0-3.75,0c-0.75,0-2.799,0.608-2.799,1.357 c0,0.75,2.05,1.357,2.799,1.357c0.117,0,3.634,0,3.75,0c0.75,0,1.357-0.608,1.357-1.357C20.232,19.25,19.625,18.643,18.875,18.643z" opacity=".792" />
    <path fill="#c1cede" d="M18.845,18.714c-0.12,0-3.57,0-3.69,0c-0.71,0-2.608,0.576-2.608,1.286 c0,0.71,1.897,1.286,2.608,1.286c0.12,0,3.57,0,3.69,0c0.71,0,1.286-0.576,1.286-1.286C20.13,19.29,19.555,18.714,18.845,18.714z" opacity=".809" />
    <path fill="#c0cddd" d="M18.814,18.786c-0.123,0-3.506,0-3.629,0c-0.671,0-2.416,0.544-2.416,1.214 c0,0.671,1.745,1.214,2.416,1.214c0.123,0,3.506,0,3.629,0c0.671,0,1.214-0.544,1.214-1.214 C20.029,19.329,19.485,18.786,18.814,18.786z" opacity=".827" />
    <path fill="#bfccdc" d="M18.784,18.857c-0.126,0-3.442,0-3.568,0c-0.631,0-2.224,0.512-2.224,1.143 c0,0.631,1.593,1.143,2.224,1.143c0.126,0,3.442,0,3.568,0c0.631,0,1.143-0.512,1.143-1.143 C19.927,19.369,19.415,18.857,18.784,18.857z" opacity=".844" />
    <path fill="#becbdb" d="M18.754,18.929c-0.129,0-3.378,0-3.507,0c-0.592,0-2.033,0.48-2.033,1.071 c0,0.592,1.441,1.071,2.033,1.071c0.129,0,3.378,0,3.507,0c0.592,0,1.071-0.48,1.071-1.071 C19.825,19.408,19.345,18.929,18.754,18.929z" opacity=".861" />
    <path fill="#bdcada" d="M18.723,19c-0.133,0-3.314,0-3.446,0c-0.552,0-1.841,0.448-1.841,1 c0,0.552,1.289,1,1.841,1c0.132,0,3.314,0,3.446,0c0.552,0,1-0.448,1-1C19.723,19.448,19.275,19,18.723,19z" opacity=".879" />
    <path fill="#bccad9" d="M18.693,19.071c-0.136,0-3.25,0-3.386,0c-0.513,0-1.65,0.416-1.65,0.929 c0,0.513,1.137,0.929,1.65,0.929c0.136,0,3.25,0,3.386,0c0.513,0,0.929-0.416,0.929-0.929 C19.621,19.487,19.206,19.071,18.693,19.071z" opacity=".896" />
    <path fill="#bbc9d8" d="M18.662,19.143c-0.139,0-3.186,0-3.325,0c-0.473,0-1.458,0.384-1.458,0.857 c0,0.473,0.985,0.857,1.458,0.857c0.139,0,3.186,0,3.325,0c0.473,0,0.857-0.384,0.857-0.857 C19.519,19.527,19.136,19.143,18.662,19.143z" opacity=".913" />
    <path fill="#bac8d8" d="M18.632,19.214c-0.142,0-3.122,0-3.264,0c-0.434,0-1.266,0.352-1.266,0.786 c0,0.434,0.832,0.786,1.266,0.786c0.142,0,3.122,0,3.264,0c0.434,0,0.786-0.352,0.786-0.786 C19.418,19.566,19.066,19.214,18.632,19.214z" opacity=".931" />
    <path fill="#b9c7d7" d="M18.602,19.286c-0.145,0-3.058,0-3.203,0c-0.394,0-1.075,0.32-1.075,0.714 c0,0.394,0.68,0.714,1.075,0.714c0.145,0,3.058,0,3.203,0c0.394,0,0.714-0.32,0.714-0.714 C19.316,19.605,18.996,19.286,18.602,19.286z" opacity=".948" />
    <path fill="#b8c6d6" d="M18.571,19.357c-0.148,0-2.994,0-3.142,0c-0.355,0-0.883,0.288-0.883,0.643 c0,0.355,0.528,0.643,0.883,0.643c0.148,0,2.994,0,3.142,0c0.355,0,0.643-0.288,0.643-0.643 C19.214,19.645,18.926,19.357,18.571,19.357z" opacity=".965" />
    <path fill="#b7c5d5" d="M18.541,19.429c-0.151,0-2.93,0-3.082,0c-0.316,0-0.692,0.256-0.692,0.571 c0,0.316,0.376,0.571,0.692,0.571c0.151,0,2.93,0,3.082,0c0.316,0,0.571-0.256,0.571-0.571 C19.112,19.684,18.856,19.429,18.541,19.429z" opacity=".983" />
    <path fill="#b6c4d4" d="M18.51,19.5c-0.155,0-2.866,0-3.021,0c-0.276,0-0.5,0.224-0.5,0.5c0,0.276,0.224,0.5,0.5,0.5 c0.155,0,2.866,0,3.021,0c0.276,0,0.5-0.224,0.5-0.5C19.01,19.724,18.786,19.5,18.51,19.5z" />
  </g>
  <g>
    <path fill="#e6f1ff" d="M41,8h-4c-2.209,0-4,1.791-4,4c0,2.209,1.791,4,4,4h4c2.209,0,4-1.791,4-4 C45,9.791,43.209,8,41,8z" opacity=".15" />
    <path fill="#e5f0fe" d="M40.97,8.071c-0.003,0-3.936,0-3.939,0c-2.17,0-3.929,1.759-3.929,3.929 c0,2.17,1.759,3.929,3.929,3.929c0.003,0,3.936,0,3.939,0c2.17,0,3.929-1.759,3.929-3.929C44.898,9.83,43.139,8.071,40.97,8.071z" opacity=".167" />
    <path fill="#e4effd" d="M40.939,8.143c-0.006,0-3.872,0-3.878,0c-2.13,0-3.857,1.727-3.857,3.857 c0,2.13,1.727,3.857,3.857,3.857c0.006,0,3.872,0,3.878,0c2.13,0,3.857-1.727,3.857-3.857C44.796,9.87,43.069,8.143,40.939,8.143z" opacity=".185" />
    <path fill="#e3eefc" d="M40.909,8.214c-0.009,0-3.808,0-3.818,0C35,8.214,33.305,9.909,33.305,12 c0,2.091,1.695,3.786,3.786,3.786c0.009,0,3.808,0,3.818,0c2.091,0,3.786-1.695,3.786-3.786C44.695,9.909,43,8.214,40.909,8.214z" opacity=".202" />
    <path fill="#e2edfb" d="M40.878,8.286c-0.013,0-3.744,0-3.757,0c-2.051,0-3.714,1.663-3.714,3.714 c0,2.051,1.663,3.714,3.714,3.714c0.013,0,3.744,0,3.757,0c2.051,0,3.714-1.663,3.714-3.714C44.593,9.949,42.93,8.286,40.878,8.286 z" opacity=".219" />
    <path fill="#e1ecfb" d="M40.848,8.357c-0.016,0-3.68,0-3.696,0c-2.012,0-3.643,1.631-3.643,3.643 c0,2.012,1.631,3.643,3.643,3.643c0.016,0,3.68,0,3.696,0c2.012,0,3.643-1.631,3.643-3.643C44.491,9.988,42.86,8.357,40.848,8.357z" opacity=".237" />
    <path fill="#e0ebfa" d="M40.818,8.429c-0.019,0-3.616,0-3.635,0c-1.972,0-3.571,1.599-3.571,3.571 c0,1.972,1.599,3.571,3.571,3.571c0.019,0,3.616,0,3.635,0c1.972,0,3.571-1.599,3.571-3.571 C44.389,10.027,42.79,8.429,40.818,8.429z" opacity=".254" />
    <path fill="#dfebf9" d="M40.787,8.5c-0.022,0-3.552,0-3.574,0c-1.933,0-3.5,1.567-3.5,3.5 c0,1.933,1.567,3.5,3.5,3.5c0.022,0,3.552,0,3.574,0c1.933,0,3.5-1.567,3.5-3.5C44.287,10.067,42.72,8.5,40.787,8.5z" opacity=".271" />
    <path fill="#deeaf8" d="M40.757,8.571c-0.025,0-3.488,0-3.514,0c-1.894,0-3.429,1.535-3.429,3.429 c0,1.894,1.535,3.429,3.429,3.429c0.025,0,3.488,0,3.514,0c1.894,0,3.429-1.535,3.429-3.429 C44.185,10.106,42.65,8.571,40.757,8.571z" opacity=".289" />
    <path fill="#dde9f7" d="M40.726,8.643c-0.028,0-3.424,0-3.453,0c-1.854,0-3.357,1.503-3.357,3.357 c0,1.854,1.503,3.357,3.357,3.357c0.028,0,3.424,0,3.453,0c1.854,0,3.357-1.503,3.357-3.357 C44.084,10.146,42.58,8.643,40.726,8.643z" opacity=".306" />
    <path fill="#dce8f6" d="M40.696,8.714c-0.032,0-3.36,0-3.392,0c-1.815,0-3.286,1.471-3.286,3.286 c0,1.815,1.471,3.286,3.286,3.286c0.032,0,3.36,0,3.392,0c1.815,0,3.286-1.471,3.286-3.286 C43.982,10.185,42.511,8.714,40.696,8.714z" opacity=".324" />
    <path fill="#dbe7f5" d="M40.666,8.786c-0.035,0-3.296,0-3.331,0c-1.775,0-3.214,1.439-3.214,3.214 c0,1.775,1.439,3.214,3.214,3.214c0.035,0,3.296,0,3.331,0c1.775,0,3.214-1.439,3.214-3.214 C43.88,10.225,42.441,8.786,40.666,8.786z" opacity=".341" />
    <path fill="#dae6f4" d="M40.635,8.857c-0.038,0-3.233,0-3.27,0c-1.736,0-3.143,1.407-3.143,3.143 c0,1.736,1.407,3.143,3.143,3.143c0.038,0,3.233,0,3.27,0c1.736,0,3.143-1.407,3.143-3.143 C43.778,10.264,42.371,8.857,40.635,8.857z" opacity=".358" />
    <path fill="#d9e5f4" d="M40.605,8.929c-0.041,0-3.169,0-3.21,0c-1.696,0-3.071,1.375-3.071,3.071 c0,1.696,1.375,3.071,3.071,3.071c0.041,0,3.169,0,3.21,0c1.696,0,3.071-1.375,3.071-3.071 C43.676,10.304,42.301,8.929,40.605,8.929z" opacity=".376" />
    <path fill="#d8e4f3" d="M40.574,9c-0.044,0-3.105,0-3.149,0c-1.657,0-3,1.343-3,3c0,1.657,1.343,3,3,3 c0.044,0,3.105,0,3.149,0c1.657,0,3-1.343,3-3C43.574,10.343,42.231,9,40.574,9z" opacity=".393" />
    <path fill="#d7e3f2" d="M40.544,9.071c-0.047,0-3.041,0-3.088,0c-1.617,0-2.929,1.311-2.929,2.929 c0,1.617,1.311,2.929,2.929,2.929c0.047,0,3.041,0,3.088,0c1.617,0,2.929-1.311,2.929-2.929 C43.473,10.383,42.161,9.071,40.544,9.071z" opacity=".41" />
    <path fill="#d6e2f1" d="M40.514,9.143c-0.05,0-2.977,0-3.027,0c-1.578,0-2.857,1.279-2.857,2.857 c0,1.578,1.279,2.857,2.857,2.857c0.05,0,2.977,0,3.027,0c1.578,0,2.857-1.279,2.857-2.857 C43.371,10.422,42.092,9.143,40.514,9.143z" opacity=".428" />
    <path fill="#d5e1f0" d="M40.483,9.214c-0.054,0-2.913,0-2.966,0c-1.538,0-2.786,1.247-2.786,2.786 c0,1.538,1.247,2.786,2.786,2.786c0.054,0,2.913,0,2.966,0c1.538,0,2.786-1.247,2.786-2.786 C43.269,10.461,42.022,9.214,40.483,9.214z" opacity=".445" />
    <path fill="#d4e0ef" d="M40.453,9.286c-0.057,0-2.849,0-2.906,0c-1.499,0-2.714,1.215-2.714,2.714 c0,1.499,1.215,2.714,2.714,2.714c0.057,0,2.849,0,2.906,0c1.499,0,2.714-1.215,2.714-2.714 C43.167,10.501,41.952,9.286,40.453,9.286z" opacity=".462" />
    <path fill="#d3e0ee" d="M40.422,9.357c-0.06,0-2.785,0-2.845,0c-1.46,0-2.643,1.183-2.643,2.643 c0,1.46,1.183,2.643,2.643,2.643c0.06,0,2.785,0,2.845,0c1.46,0,2.643-1.183,2.643-2.643C43.065,10.54,41.882,9.357,40.422,9.357z" opacity=".48" />
    <path fill="#d2dfed" d="M40.392,9.429c-0.063,0-2.721,0-2.784,0c-1.42,0-2.571,1.151-2.571,2.571 c0,1.42,1.151,2.571,2.571,2.571c0.063,0,2.721,0,2.784,0c1.42,0,2.571-1.151,2.571-2.571C42.963,10.58,41.812,9.429,40.392,9.429z" opacity=".497" />
    <path fill="#d1deed" d="M40.362,9.5c-0.066,0-2.657,0-2.723,0c-1.381,0-2.5,1.119-2.5,2.5 c0,1.381,1.119,2.5,2.5,2.5c0.066,0,2.657,0,2.723,0c1.381,0,2.5-1.119,2.5-2.5C42.862,10.619,41.742,9.5,40.362,9.5z" opacity=".514" />
    <path fill="#d0ddec" d="M40.331,9.571c-0.069,0-2.593,0-2.662,0c-1.341,0-2.429,1.087-2.429,2.429 c0,1.341,1.087,2.429,2.429,2.429c0.069,0,2.593,0,2.662,0c1.341,0,2.429-1.087,2.429-2.429 C42.76,10.659,41.672,9.571,40.331,9.571z" opacity=".532" />
    <path fill="#cfdceb" d="M40.301,9.643c-0.073,0-2.529,0-2.602,0c-1.302,0-2.357,1.055-2.357,2.357 c0,1.302,1.055,2.357,2.357,2.357c0.073,0,2.529,0,2.602,0c1.302,0,2.357-1.055,2.357-2.357 C42.658,10.698,41.603,9.643,40.301,9.643z" opacity=".549" />
    <path fill="#cedbea" d="M40.27,9.714c-0.076,0-2.465,0-2.541,0c-1.262,0-2.286,1.023-2.286,2.286 c0,1.262,1.023,2.286,2.286,2.286c0.076,0,2.465,0,2.541,0c1.262,0,2.286-1.023,2.286-2.286 C42.556,10.738,41.533,9.714,40.27,9.714z" opacity=".566" />
    <path fill="#cedae9" d="M40.24,9.786c-0.079,0-2.401,0-2.48,0c-1.223,0-2.214,0.991-2.214,2.214 c0,1.223,0.991,2.214,2.214,2.214c0.079,0,2.401,0,2.48,0c1.223,0,2.214-0.991,2.214-2.214C42.454,10.777,41.463,9.786,40.24,9.786 z" opacity=".584" />
    <path fill="#cdd9e8" d="M40.21,9.857c-0.082,0-2.337,0-2.419,0c-1.183,0-2.143,0.959-2.143,2.143 c0,1.183,0.959,2.143,2.143,2.143c0.082,0,2.337,0,2.419,0c1.183,0,2.143-0.959,2.143-2.143 C42.352,10.816,41.393,9.857,40.21,9.857z" opacity=".601" />
    <path fill="#ccd8e7" d="M40.179,9.929c-0.085,0-2.273,0-2.358,0c-1.144,0-2.071,0.927-2.071,2.071 c0,1.144,0.927,2.071,2.071,2.071c0.085,0,2.273,0,2.358,0c1.144,0,2.071-0.927,2.071-2.071 C42.251,10.856,41.323,9.929,40.179,9.929z" opacity=".618" />
    <path fill="#cbd7e6" d="M40.149,10c-0.088,0-2.209,0-2.298,0c-1.105,0-2,0.895-2,2c0,1.105,0.895,2,2,2 c0.088,0,2.209,0,2.298,0c1.105,0,2-0.895,2-2C42.149,10.895,41.253,10,40.149,10z" opacity=".636" />
    <path fill="#cad6e6" d="M40.118,10.071c-0.091,0-2.145,0-2.237,0c-1.065,0-1.929,0.863-1.929,1.929 c0,1.065,0.863,1.929,1.929,1.929c0.091,0,2.145,0,2.237,0c1.065,0,1.929-0.863,1.929-1.929 C42.047,10.935,41.183,10.071,40.118,10.071z" opacity=".653" />
    <path fill="#c9d5e5" d="M40.088,10.143c-0.095,0-2.081,0-2.176,0c-1.026,0-1.857,0.831-1.857,1.857 c0,1.026,0.831,1.857,1.857,1.857c0.095,0,2.081,0,2.176,0c1.026,0,1.857-0.831,1.857-1.857 C41.945,10.974,41.114,10.143,40.088,10.143z" opacity=".67" />
    <path fill="#c8d5e4" d="M40.058,10.214c-0.098,0-2.017,0-2.115,0c-0.986,0-1.786,0.799-1.786,1.786 c0,0.986,0.8,1.786,1.786,1.786c0.098,0,2.017,0,2.115,0c0.986,0,1.786-0.8,1.786-1.786C41.843,11.014,41.044,10.214,40.058,10.214 z" opacity=".688" />
    <path fill="#c7d4e3" d="M40.027,10.286c-0.101,0-1.953,0-2.054,0c-0.947,0-1.714,0.767-1.714,1.714 c0,0.947,0.768,1.714,1.714,1.714c0.101,0,1.953,0,2.054,0c0.947,0,1.714-0.768,1.714-1.714 C41.741,11.053,40.974,10.286,40.027,10.286z" opacity=".705" />
    <path fill="#c6d3e2" d="M39.997,10.357c-0.104,0-1.889,0-1.994,0c-0.907,0-1.643,0.735-1.643,1.643 c0,0.907,0.736,1.643,1.643,1.643c0.104,0,1.889,0,1.994,0c0.907,0,1.643-0.736,1.643-1.643 C41.64,11.093,40.904,10.357,39.997,10.357z" opacity=".722" />
    <path fill="#c5d2e1" d="M39.966,10.429c-0.107,0-1.826,0-1.933,0c-0.868,0-1.571,0.703-1.571,1.571 c0,0.868,0.704,1.571,1.571,1.571c0.107,0,1.825,0,1.933,0c0.868,0,1.571-0.704,1.571-1.571 C41.538,11.132,40.834,10.429,39.966,10.429z" opacity=".74" />
    <path fill="#c4d1e0" d="M39.936,10.5c-0.11,0-1.762,0-1.872,0c-0.828,0-1.5,0.672-1.5,1.5 c0,0.828,0.672,1.5,1.5,1.5c0.11,0,1.762,0,1.872,0c0.828,0,1.5-0.672,1.5-1.5C41.436,11.172,40.764,10.5,39.936,10.5z" opacity=".757" />
    <path fill="#c3d0df" d="M39.906,10.571c-0.114,0-1.698,0-1.811,0c-0.789,0-1.429,0.64-1.429,1.429 c0,0.789,0.64,1.429,1.429,1.429c0.114,0,1.698,0,1.811,0c0.789,0,1.429-0.64,1.429-1.429 C41.334,11.211,40.695,10.571,39.906,10.571z" opacity=".774" />
    <path fill="#c2cfdf" d="M39.875,10.643c-0.117,0-1.634,0-1.75,0c-0.75,0-1.357,0.608-1.357,1.357 c0,0.75,0.608,1.357,1.357,1.357c0.117,0,1.634,0,1.75,0c0.75,0,1.357-0.608,1.357-1.357C41.232,11.25,40.625,10.643,39.875,10.643 z" opacity=".792" />
    <path fill="#c1cede" d="M39.845,10.714c-0.12,0-1.57,0-1.69,0c-0.71,0-1.286,0.576-1.286,1.286 c0,0.71,0.576,1.286,1.286,1.286c0.12,0,1.57,0,1.69,0c0.71,0,1.286-0.576,1.286-1.286C41.13,11.29,40.555,10.714,39.845,10.714z" opacity=".809" />
    <path fill="#c0cddd" d="M39.814,10.786c-0.123,0-1.506,0-1.629,0c-0.671,0-1.214,0.544-1.214,1.214 c0,0.671,0.544,1.214,1.214,1.214c0.123,0,1.506,0,1.629,0c0.671,0,1.214-0.544,1.214-1.214 C41.029,11.329,40.485,10.786,39.814,10.786z" opacity=".827" />
    <path fill="#bfccdc" d="M39.784,10.857c-0.126,0-1.442,0-1.568,0c-0.631,0-1.143,0.512-1.143,1.143 c0,0.631,0.512,1.143,1.143,1.143c0.126,0,1.442,0,1.568,0c0.631,0,1.143-0.512,1.143-1.143 C40.927,11.369,40.415,10.857,39.784,10.857z" opacity=".844" />
    <path fill="#becbdb" d="M39.754,10.929c-0.129,0-1.378,0-1.507,0c-0.592,0-1.071,0.48-1.071,1.071 c0,0.592,0.48,1.071,1.071,1.071c0.129,0,1.378,0,1.507,0c0.592,0,1.071-0.48,1.071-1.071 C40.825,11.408,40.345,10.929,39.754,10.929z" opacity=".861" />
    <path fill="#bdcada" d="M39.723,11c-0.133,0-1.314,0-1.446,0c-0.552,0-1,0.448-1,1c0,0.552,0.448,1,1,1 c0.132,0,1.314,0,1.446,0c0.552,0,1-0.448,1-1C40.723,11.448,40.275,11,39.723,11z" opacity=".879" />
    <path fill="#bccad9" d="M39.693,11.071c-0.136,0-1.25,0-1.386,0c-0.513,0-0.929,0.416-0.929,0.929 c0,0.513,0.416,0.929,0.929,0.929c0.136,0,1.25,0,1.386,0c0.513,0,0.929-0.416,0.929-0.929 C40.621,11.487,40.206,11.071,39.693,11.071z" opacity=".896" />
    <path fill="#bbc9d8" d="M39.662,11.143c-0.139,0-1.186,0-1.325,0c-0.473,0-0.857,0.384-0.857,0.857 c0,0.473,0.384,0.857,0.857,0.857c0.139,0,1.186,0,1.325,0c0.473,0,0.857-0.384,0.857-0.857 C40.52,11.527,40.136,11.143,39.662,11.143z" opacity=".913" />
    <path fill="#bac8d8" d="M39.632,11.214c-0.142,0-1.122,0-1.264,0c-0.434,0-0.786,0.352-0.786,0.786 c0,0.434,0.352,0.786,0.786,0.786c0.142,0,1.122,0,1.264,0c0.434,0,0.786-0.352,0.786-0.786 C40.418,11.566,40.066,11.214,39.632,11.214z" opacity=".931" />
    <path fill="#b9c7d7" d="M39.602,11.286c-0.145,0-1.058,0-1.203,0c-0.394,0-0.714,0.32-0.714,0.714 c0,0.394,0.32,0.714,0.714,0.714c0.145,0,1.058,0,1.203,0c0.394,0,0.714-0.32,0.714-0.714 C40.316,11.605,39.996,11.286,39.602,11.286z" opacity=".948" />
    <path fill="#b8c6d6" d="M39.571,11.357c-0.148,0-0.994,0-1.142,0c-0.355,0-0.643,0.288-0.643,0.643 c0,0.355,0.288,0.643,0.643,0.643c0.148,0,0.994,0,1.142,0c0.355,0,0.643-0.288,0.643-0.643 C40.214,11.645,39.926,11.357,39.571,11.357z" opacity=".965" />
    <path fill="#b7c5d5" d="M39.541,11.429c-0.151,0-0.93,0-1.082,0c-0.316,0-0.571,0.256-0.571,0.571 c0,0.316,0.256,0.571,0.571,0.571c0.151,0,0.93,0,1.082,0c0.316,0,0.571-0.256,0.571-0.571 C40.112,11.684,39.856,11.429,39.541,11.429z" opacity=".983" />
    <path fill="#b6c4d4" d="M39.51,11.5c-0.155,0-0.866,0-1.021,0c-0.276,0-0.5,0.224-0.5,0.5c0,0.276,0.224,0.5,0.5,0.5 c0.155,0,0.866,0,1.021,0c0.276,0,0.5-0.224,0.5-0.5C40.01,11.724,39.786,11.5,39.51,11.5z" />
  </g>
  <g>
    <path fill="#e6f1ff" d="M30,24H8c-2.209,0-6.557,1.791-6.557,4c0,2.209,4.348,4,6.557,4h22 c2.209,0,8.116-1.791,8.116-4C38.116,25.791,32.209,24,30,24z" opacity=".15" />
    <path fill="#e5f0fe" d="M29.99,24.071c-0.003,0-21.977,0-21.98,0c-2.17,0-6.433,1.759-6.433,3.929 c0,2.17,4.263,3.929,6.433,3.929c0.003,0,21.977,0,21.98,0c2.17,0,7.96-1.759,7.96-3.929C37.95,25.83,32.16,24.071,29.99,24.071z" opacity=".167" />
    <path fill="#e4effd" d="M29.98,24.143c-0.006,0-21.954,0-21.96,0c-2.13,0-6.309,1.727-6.309,3.857 c0,2.13,4.179,3.857,6.309,3.857c0.006,0,21.954,0,21.96,0c2.13,0,7.805-1.727,7.805-3.857C37.785,25.87,32.11,24.143,29.98,24.143 z" opacity=".185" />
    <path fill="#e3eefc" d="M29.97,24.214c-0.009,0-21.931,0-21.94,0c-2.091,0-6.186,1.695-6.186,3.786 c0,2.091,4.095,3.786,6.186,3.786c0.009,0,21.931,0,21.94,0c2.091,0,7.65-1.695,7.65-3.786 C37.62,25.909,32.061,24.214,29.97,24.214z" opacity=".202" />
    <path fill="#e2edfb" d="M29.96,24.286c-0.013,0-21.907,0-21.92,0c-2.051,0-6.062,1.663-6.062,3.714 c0,2.051,4.011,3.714,6.062,3.714c0.013,0,21.907,0,21.92,0c2.051,0,7.494-1.663,7.494-3.714 C37.454,25.949,32.011,24.286,29.96,24.286z" opacity=".219" />
    <path fill="#e1ecfb" d="M29.95,24.357c-0.016,0-21.884,0-21.9,0c-2.012,0-5.939,1.631-5.939,3.643 c0,2.012,3.927,3.643,5.939,3.643c0.016,0,21.884,0,21.9,0c2.012,0,7.339-1.631,7.339-3.643 C37.289,25.988,31.962,24.357,29.95,24.357z" opacity=".237" />
    <path fill="#e0ebfa" d="M29.94,24.429c-0.019,0-21.861,0-21.88,0c-1.972,0-5.815,1.599-5.815,3.571 c0,1.972,3.843,3.571,5.815,3.571c0.019,0,21.861,0,21.88,0c1.972,0,7.183-1.599,7.183-3.571 C37.123,26.027,31.912,24.429,29.94,24.429z" opacity=".254" />
    <path fill="#dfebf9" d="M29.93,24.5c-0.022,0-21.838,0-21.86,0c-1.933,0-5.691,1.567-5.691,3.5 c0,1.933,3.758,3.5,5.691,3.5c0.022,0,21.838,0,21.86,0c1.933,0,7.028-1.567,7.028-3.5C36.958,26.067,31.863,24.5,29.93,24.5z" opacity=".271" />
    <path fill="#deeaf8" d="M29.92,24.571c-0.025,0-21.815,0-21.84,0c-1.894,0-5.568,1.535-5.568,3.429 c0,1.894,3.674,3.429,5.568,3.429c0.025,0,21.815,0,21.84,0c1.894,0,6.872-1.535,6.872-3.429 C36.793,26.106,31.814,24.571,29.92,24.571z" opacity=".289" />
    <path fill="#dde9f7" d="M29.91,24.643c-0.028,0-21.792,0-21.82,0c-1.854,0-5.444,1.503-5.444,3.357 c0,1.854,3.59,3.357,5.444,3.357c0.028,0,21.792,0,21.82,0c1.854,0,6.717-1.503,6.717-3.357 C36.627,26.146,31.764,24.643,29.91,24.643z" opacity=".306" />
    <path fill="#dce8f6" d="M29.9,24.714c-0.032,0-21.769,0-21.8,0c-1.815,0-5.321,1.471-5.321,3.286 c0,1.815,3.506,3.286,5.321,3.286c0.032,0,21.769,0,21.8,0c1.815,0,6.562-1.471,6.562-3.286 C36.462,26.185,31.715,24.714,29.9,24.714z" opacity=".324" />
    <path fill="#dbe7f5" d="M29.89,24.786c-0.035,0-21.745,0-21.78,0c-1.775,0-5.197,1.439-5.197,3.214 c0,1.775,3.422,3.214,5.197,3.214c0.035,0,21.745,0,21.78,0c1.775,0,6.406-1.439,6.406-3.214 C36.296,26.225,31.665,24.786,29.89,24.786z" opacity=".341" />
    <path fill="#dae6f4" d="M29.88,24.857c-0.038,0-21.722,0-21.76,0c-1.736,0-5.073,1.407-5.073,3.143 c0,1.736,3.338,3.143,5.073,3.143c0.038,0,21.722,0,21.76,0c1.736,0,6.251-1.407,6.251-3.143 C36.131,26.264,31.616,24.857,29.88,24.857z" opacity=".358" />
    <path fill="#d9e5f4" d="M29.87,24.929c-0.041,0-21.699,0-21.74,0c-1.696,0-4.95,1.375-4.95,3.071 c0,1.696,3.254,3.071,4.95,3.071c0.041,0,21.699,0,21.74,0c1.696,0,6.095-1.375,6.095-3.071 C35.965,26.304,31.566,24.929,29.87,24.929z" opacity=".376" />
    <path fill="#d8e4f3" d="M29.86,25c-0.044,0-21.676,0-21.72,0c-1.657,0-4.826,1.343-4.826,3 c0,1.657,3.169,3,4.826,3c0.044,0,21.676,0,21.72,0c1.657,0,5.94-1.343,5.94-3C35.8,26.343,31.517,25,29.86,25z" opacity=".393" />
    <path fill="#d7e3f2" d="M29.85,25.071c-0.047,0-21.653,0-21.7,0c-1.617,0-4.703,1.311-4.703,2.929 c0,1.617,3.085,2.929,4.703,2.929c0.047,0,21.653,0,21.7,0c1.617,0,5.785-1.311,5.785-2.929 C35.635,26.383,31.467,25.071,29.85,25.071z" opacity=".41" />
    <path fill="#d6e2f1" d="M29.84,25.143c-0.05,0-21.63,0-21.68,0c-1.578,0-4.579,1.279-4.579,2.857 c0,1.578,3.001,2.857,4.579,2.857c0.05,0,21.63,0,21.68,0c1.578,0,5.629-1.279,5.629-2.857 C35.469,26.422,31.418,25.143,29.84,25.143z" opacity=".428" />
    <path fill="#d5e1f0" d="M29.83,25.214c-0.054,0-21.607,0-21.66,0c-1.538,0-4.455,1.247-4.455,2.786 c0,1.538,2.917,2.786,4.455,2.786c0.054,0,21.607,0,21.66,0c1.538,0,5.474-1.247,5.474-2.786 C35.304,26.461,31.369,25.214,29.83,25.214z" opacity=".445" />
    <path fill="#d4e0ef" d="M29.82,25.286c-0.057,0-21.583,0-21.64,0c-1.499,0-4.332,1.215-4.332,2.714 c0,1.499,2.833,2.714,4.332,2.714c0.057,0,21.583,0,21.64,0c1.499,0,5.318-1.215,5.318-2.714 C35.138,26.501,31.319,25.286,29.82,25.286z" opacity=".462" />
    <path fill="#d3e0ee" d="M29.81,25.357c-0.06,0-21.56,0-21.62,0c-1.46,0-4.208,1.183-4.208,2.643 c0,1.46,2.749,2.643,4.208,2.643c0.06,0,21.56,0,21.62,0c1.46,0,5.163-1.183,5.163-2.643C34.973,26.54,31.27,25.357,29.81,25.357z" opacity=".48" />
    <path fill="#d2dfed" d="M29.8,25.429c-0.063,0-21.537,0-21.6,0c-1.42,0-4.085,1.151-4.085,2.571 c0,1.42,2.664,2.571,4.085,2.571c0.063,0,21.537,0,21.6,0c1.42,0,5.007-1.151,5.007-2.571C34.808,26.58,31.22,25.429,29.8,25.429z" opacity=".497" />
    <path fill="#d1deed" d="M29.79,25.5c-0.066,0-21.514,0-21.58,0c-1.381,0-3.961,1.119-3.961,2.5 c0,1.381,2.58,2.5,3.961,2.5c0.066,0,21.514,0,21.58,0c1.381,0,4.852-1.119,4.852-2.5C34.642,26.619,31.171,25.5,29.79,25.5z" opacity=".514" />
    <path fill="#d0ddec" d="M29.78,25.571c-0.069,0-21.491,0-21.56,0c-1.341,0-3.837,1.087-3.837,2.429 c0,1.341,2.496,2.429,3.837,2.429c0.069,0,21.491,0,21.56,0c1.341,0,4.697-1.087,4.697-2.429 C34.477,26.659,31.121,25.571,29.78,25.571z" opacity=".532" />
    <path fill="#cfdceb" d="M29.77,25.643c-0.073,0-21.468,0-21.54,0c-1.302,0-3.714,1.055-3.714,2.357 c0,1.302,2.412,2.357,3.714,2.357c0.073,0,21.468,0,21.54,0c1.302,0,4.541-1.055,4.541-2.357 C34.311,26.698,31.072,25.643,29.77,25.643z" opacity=".549" />
    <path fill="#cedbea" d="M29.76,25.714c-0.076,0-21.445,0-21.52,0c-1.262,0-3.59,1.023-3.59,2.286 c0,1.262,2.328,2.286,3.59,2.286c0.076,0,21.445,0,21.52,0c1.262,0,4.386-1.023,4.386-2.286 C34.146,26.738,31.023,25.714,29.76,25.714z" opacity=".566" />
    <path fill="#cedae9" d="M29.75,25.786c-0.079,0-21.422,0-21.5,0c-1.223,0-3.467,0.991-3.467,2.214 c0,1.223,2.244,2.214,3.467,2.214c0.079,0,21.421,0,21.5,0c1.223,0,4.23-0.991,4.23-2.214C33.98,26.777,30.973,25.786,29.75,25.786 z" opacity=".584" />
    <path fill="#cdd9e8" d="M29.74,25.857c-0.082,0-21.398,0-21.48,0c-1.183,0-3.343,0.959-3.343,2.143 c0,1.183,2.159,2.143,3.343,2.143c0.082,0,21.398,0,21.48,0c1.183,0,4.075-0.959,4.075-2.143 C33.815,26.816,30.924,25.857,29.74,25.857z" opacity=".601" />
    <path fill="#ccd8e7" d="M29.73,25.929c-0.085,0-21.375,0-21.46,0c-1.144,0-3.219,0.927-3.219,2.071 c0,1.144,2.075,2.071,3.219,2.071c0.085,0,21.375,0,21.46,0c1.144,0,3.919-0.927,3.919-2.071 C33.65,26.856,30.874,25.929,29.73,25.929z" opacity=".618" />
    <path fill="#cbd7e6" d="M29.72,26c-0.088,0-21.352,0-21.44,0c-1.105,0-3.096,0.895-3.096,2 c0,1.105,1.991,2,3.096,2c0.088,0,21.352,0,21.44,0c1.105,0,3.764-0.895,3.764-2C33.484,26.895,30.825,26,29.72,26z" opacity=".636" />
    <path fill="#cad6e6" d="M29.71,26.071c-0.091,0-21.329,0-21.42,0c-1.065,0-2.972,0.863-2.972,1.929 c0,1.065,1.907,1.929,2.972,1.929c0.091,0,21.329,0,21.42,0c1.065,0,3.609-0.863,3.609-1.929 C33.319,26.935,30.775,26.071,29.71,26.071z" opacity=".653" />
    <path fill="#c9d5e5" d="M29.7,26.143c-0.095,0-21.306,0-21.4,0c-1.026,0-2.848,0.831-2.848,1.857 c0,1.026,1.823,1.857,2.848,1.857c0.095,0,21.306,0,21.4,0c1.026,0,3.453-0.831,3.453-1.857 C33.153,26.974,30.726,26.143,29.7,26.143z" opacity=".67" />
    <path fill="#c8d5e4" d="M29.69,26.214c-0.098,0-21.283,0-21.38,0c-0.986,0-2.725,0.799-2.725,1.786 c0,0.986,1.739,1.786,2.725,1.786c0.098,0,21.283,0,21.38,0c0.986,0,3.298-0.8,3.298-1.786 C32.988,27.014,30.676,26.214,29.69,26.214z" opacity=".688" />
    <path fill="#c7d4e3" d="M29.68,26.286c-0.101,0-21.26,0-21.36,0c-0.947,0-2.601,0.767-2.601,1.714 c0,0.947,1.655,1.714,2.601,1.714c0.101,0,21.259,0,21.36,0c0.947,0,3.142-0.768,3.142-1.714 C32.822,27.053,30.627,26.286,29.68,26.286z" opacity=".705" />
    <path fill="#c6d3e2" d="M29.67,26.357c-0.104,0-21.236,0-21.34,0c-0.907,0-2.478,0.735-2.478,1.643 c0,0.907,1.57,1.643,2.478,1.643c0.104,0,21.236,0,21.34,0c0.907,0,2.987-0.736,2.987-1.643 C32.657,27.093,30.578,26.357,29.67,26.357z" opacity=".722" />
    <path fill="#c5d2e1" d="M29.66,26.429c-0.107,0-21.213,0-21.32,0c-0.868,0-2.354,0.703-2.354,1.571 c0,0.868,1.486,1.571,2.354,1.571c0.107,0,21.213,0,21.32,0c0.868,0,2.831-0.704,2.831-1.571 C32.492,27.132,30.528,26.429,29.66,26.429z" opacity=".74" />
    <path fill="#c4d1e0" d="M29.65,26.5c-0.11,0-21.19,0-21.301,0c-0.828,0-2.23,0.672-2.23,1.5 c0,0.828,1.402,1.5,2.23,1.5c0.11,0,21.19,0,21.301,0c0.828,0,2.676-0.672,2.676-1.5C32.326,27.172,30.479,26.5,29.65,26.5z" opacity=".757" />
    <path fill="#c3d0df" d="M29.64,26.571c-0.114,0-21.167,0-21.281,0c-0.789,0-2.107,0.64-2.107,1.429 c0,0.789,1.318,1.429,2.107,1.429c0.114,0,21.167,0,21.281,0c0.789,0,2.521-0.64,2.521-1.429 C32.161,27.211,30.429,26.571,29.64,26.571z" opacity=".774" />
    <path fill="#c2cfdf" d="M29.63,26.643c-0.117,0-21.144,0-21.261,0c-0.75,0-1.983,0.608-1.983,1.357 c0,0.75,1.234,1.357,1.983,1.357c0.117,0,21.144,0,21.261,0c0.75,0,2.365-0.608,2.365-1.357 C31.995,27.25,30.38,26.643,29.63,26.643z" opacity=".792" />
    <path fill="#c1cede" d="M29.62,26.714c-0.12,0-21.121,0-21.241,0c-0.71,0-1.86,0.576-1.86,1.286 c0,0.71,1.15,1.286,1.86,1.286c0.12,0,21.121,0,21.241,0c0.71,0,2.21-0.576,2.21-1.286C31.83,27.29,30.33,26.714,29.62,26.714z" opacity=".809" />
    <path fill="#c0cddd" d="M29.61,26.786c-0.123,0-21.098,0-21.221,0c-0.671,0-1.736,0.544-1.736,1.214 c0,0.671,1.065,1.214,1.736,1.214c0.123,0,21.098,0,21.221,0c0.671,0,2.054-0.544,2.054-1.214 C31.665,27.329,30.281,26.786,29.61,26.786z" opacity=".827" />
    <path fill="#bfccdc" d="M29.6,26.857c-0.126,0-21.074,0-21.201,0c-0.631,0-1.612,0.512-1.612,1.143 c0,0.631,0.981,1.143,1.612,1.143c0.126,0,21.074,0,21.201,0c0.631,0,1.899-0.512,1.899-1.143 C31.499,27.369,30.231,26.857,29.6,26.857z" opacity=".844" />
    <path fill="#becbdb" d="M29.59,26.929c-0.129,0-21.051,0-21.181,0c-0.592,0-1.489,0.48-1.489,1.071 c0,0.592,0.897,1.071,1.489,1.071c0.129,0,21.051,0,21.181,0c0.592,0,1.743-0.48,1.743-1.071 C31.334,27.408,30.182,26.929,29.59,26.929z" opacity=".861" />
    <path fill="#bdcada" d="M29.58,27c-0.133,0-21.028,0-21.161,0c-0.552,0-1.365,0.448-1.365,1 c0,0.552,0.813,1,1.365,1c0.132,0,21.028,0,21.161,0c0.552,0,1.588-0.448,1.588-1C31.168,27.448,30.133,27,29.58,27z" opacity=".879" />
    <path fill="#bccad9" d="M29.57,27.071c-0.136,0-21.005,0-21.141,0c-0.513,0-1.242,0.416-1.242,0.929 c0,0.513,0.729,0.929,1.242,0.929c0.136,0,21.005,0,21.141,0c0.513,0,1.433-0.416,1.433-0.929 C31.003,27.487,30.083,27.071,29.57,27.071z" opacity=".896" />
    <path fill="#bbc9d8" d="M29.56,27.143c-0.139,0-20.982,0-21.121,0c-0.473,0-1.118,0.384-1.118,0.857 c0,0.473,0.645,0.857,1.118,0.857c0.139,0,20.982,0,21.121,0c0.473,0,1.277-0.384,1.277-0.857 C30.837,27.527,30.034,27.143,29.56,27.143z" opacity=".913" />
    <path fill="#bac8d8" d="M29.55,27.214c-0.142,0-20.959,0-21.101,0c-0.434,0-0.994,0.352-0.994,0.786 c0,0.434,0.561,0.786,0.994,0.786c0.142,0,20.959,0,21.101,0c0.434,0,1.122-0.352,1.122-0.786 C30.672,27.566,29.984,27.214,29.55,27.214z" opacity=".931" />
    <path fill="#b9c7d7" d="M29.54,27.286c-0.145,0-20.936,0-21.081,0c-0.394,0-0.871,0.32-0.871,0.714 c0,0.394,0.476,0.714,0.871,0.714c0.145,0,20.936,0,21.081,0c0.394,0,0.966-0.32,0.966-0.714 C30.507,27.605,29.935,27.286,29.54,27.286z" opacity=".948" />
    <path fill="#b8c6d6" d="M29.53,27.357c-0.148,0-20.912,0-21.061,0c-0.355,0-0.747,0.288-0.747,0.643 c0,0.355,0.392,0.643,0.747,0.643c0.148,0,20.912,0,21.061,0c0.355,0,0.811-0.288,0.811-0.643 C30.341,27.645,29.885,27.357,29.53,27.357z" opacity=".965" />
    <path fill="#b7c5d5" d="M29.52,27.429c-0.151,0-20.889,0-21.041,0c-0.316,0-0.624,0.256-0.624,0.571 c0,0.316,0.308,0.571,0.624,0.571c0.151,0,20.889,0,21.041,0c0.316,0,0.655-0.256,0.655-0.571 C30.176,27.684,29.836,27.429,29.52,27.429z" opacity=".983" />
    <path fill="#b6c4d4" d="M29.51,27.5c-0.155,0-20.866,0-21.021,0c-0.276,0-0.5,0.224-0.5,0.5c0,0.276,0.224,0.5,0.5,0.5 c0.155,0,20.866,0,21.021,0c0.276,0,0.5-0.224,0.5-0.5C30.01,27.724,29.786,27.5,29.51,27.5z" />
  </g>
  <g>
    <path fill="#e6f1ff" d="M40,32H16c-2.209,0-7.085,1.791-7.085,4c0,2.209,4.876,4,7.085,4h24 c2.209,0,6.274-1.791,6.274-4C46.274,33.791,42.209,32,40,32z" opacity=".15" />
    <path fill="#e5f0fe" d="M39.949,32.071c-0.003,0-23.895,0-23.898,0C13.881,32.071,9.1,33.83,9.1,36 c0,2.17,4.781,3.929,6.951,3.929c0.003,0,23.895,0,23.898,0c2.17,0,6.156-1.759,6.156-3.929 C46.105,33.83,42.119,32.071,39.949,32.071z" opacity=".167" />
    <path fill="#e4effd" d="M39.898,32.143c-0.006,0-23.79,0-23.797,0c-2.13,0-6.816,1.727-6.816,3.857 c0,2.13,4.686,3.857,6.816,3.857c0.006,0,23.79,0,23.797,0c2.13,0,6.038-1.727,6.038-3.857 C45.937,33.87,42.029,32.143,39.898,32.143z" opacity=".185" />
    <path fill="#e3eefc" d="M39.848,32.214c-0.009,0-23.686,0-23.695,0c-2.091,0-6.682,1.695-6.682,3.786 c0,2.091,4.591,3.786,6.682,3.786c0.009,0,23.686,0,23.695,0c2.091,0,5.92-1.695,5.92-3.786 C45.768,33.909,41.938,32.214,39.848,32.214z" opacity=".202" />
    <path fill="#e2edfb" d="M39.797,32.286c-0.013,0-23.581,0-23.594,0c-2.051,0-6.547,1.663-6.547,3.714 c0,2.051,4.496,3.714,6.547,3.714c0.013,0,23.581,0,23.594,0c2.051,0,5.802-1.663,5.802-3.714 C45.599,33.949,41.848,32.286,39.797,32.286z" opacity=".219" />
    <path fill="#e1ecfb" d="M39.746,32.357c-0.016,0-23.476,0-23.492,0c-2.012,0-6.413,1.631-6.413,3.643 c0,2.012,4.401,3.643,6.413,3.643c0.016,0,23.476,0,23.492,0c2.012,0,5.685-1.631,5.685-3.643 C45.431,33.988,41.758,32.357,39.746,32.357z" opacity=".237" />
    <path fill="#e0ebfa" d="M39.695,32.429c-0.019,0-23.371,0-23.39,0c-1.972,0-6.279,1.599-6.279,3.571 c0,1.972,4.306,3.571,6.279,3.571c0.019,0,23.371,0,23.39,0c1.972,0,5.567-1.599,5.567-3.571 C45.262,34.027,41.668,32.429,39.695,32.429z" opacity=".254" />
    <path fill="#dfebf9" d="M39.644,32.5c-0.022,0-23.267,0-23.289,0c-1.933,0-6.144,1.567-6.144,3.5 c0,1.933,4.211,3.5,6.144,3.5c0.022,0,23.267,0,23.289,0c1.933,0,5.449-1.567,5.449-3.5C45.093,34.067,41.577,32.5,39.644,32.5z" opacity=".271" />
    <path fill="#deeaf8" d="M39.594,32.571c-0.025,0-23.162,0-23.187,0c-1.894,0-6.01,1.535-6.01,3.429 c0,1.894,4.116,3.429,6.01,3.429c0.025,0,23.162,0,23.187,0c1.894,0,5.331-1.535,5.331-3.429 C44.925,34.106,41.487,32.571,39.594,32.571z" opacity=".289" />
    <path fill="#dde9f7" d="M39.543,32.643c-0.028,0-23.057,0-23.085,0c-1.854,0-5.875,1.503-5.875,3.357 c0,1.854,4.021,3.357,5.875,3.357c0.028,0,23.057,0,23.085,0c1.854,0,5.213-1.503,5.213-3.357 C44.756,34.146,41.397,32.643,39.543,32.643z" opacity=".306" />
    <path fill="#dce8f6" d="M39.492,32.714c-0.032,0-22.952,0-22.984,0c-1.815,0-5.741,1.471-5.741,3.286 c0,1.815,3.926,3.286,5.741,3.286c0.032,0,22.952,0,22.984,0c1.815,0,5.095-1.471,5.095-3.286 C44.587,34.185,41.307,32.714,39.492,32.714z" opacity=".324" />
    <path fill="#dbe7f5" d="M39.441,32.786c-0.035,0-22.848,0-22.882,0c-1.775,0-5.607,1.439-5.607,3.214 c0,1.775,3.831,3.214,5.607,3.214c0.035,0,22.847,0,22.882,0c1.775,0,4.978-1.439,4.978-3.214 C44.419,34.225,41.216,32.786,39.441,32.786z" opacity=".341" />
    <path fill="#dae6f4" d="M39.39,32.857c-0.038,0-22.743,0-22.781,0c-1.736,0-5.472,1.407-5.472,3.143 c0,1.736,3.737,3.143,5.472,3.143c0.038,0,22.743,0,22.781,0c1.736,0,4.86-1.407,4.86-3.143 C44.25,34.264,41.126,32.857,39.39,32.857z" opacity=".358" />
    <path fill="#d9e5f4" d="M39.339,32.929c-0.041,0-22.638,0-22.679,0c-1.696,0-5.338,1.375-5.338,3.071 c0,1.696,3.642,3.071,5.338,3.071c0.041,0,22.638,0,22.679,0c1.696,0,4.742-1.375,4.742-3.071 C44.081,34.304,41.036,32.929,39.339,32.929z" opacity=".376" />
    <path fill="#d8e4f3" d="M39.289,33c-0.044,0-22.533,0-22.577,0c-1.657,0-5.203,1.343-5.203,3 c0,1.657,3.547,3,5.203,3c0.044,0,22.533,0,22.577,0c1.657,0,4.624-1.343,4.624-3C43.913,34.343,40.945,33,39.289,33z" opacity=".393" />
    <path fill="#d7e3f2" d="M39.238,33.071c-0.047,0-22.428,0-22.476,0c-1.617,0-5.069,1.311-5.069,2.929 c0,1.617,3.452,2.929,5.069,2.929c0.047,0,22.428,0,22.476,0c1.617,0,4.506-1.311,4.506-2.929 C43.744,34.383,40.855,33.071,39.238,33.071z" opacity=".41" />
    <path fill="#d6e2f1" d="M39.187,33.143c-0.05,0-22.324,0-22.374,0c-1.578,0-4.935,1.279-4.935,2.857 c0,1.578,3.357,2.857,4.935,2.857c0.05,0,22.324,0,22.374,0c1.578,0,4.388-1.279,4.388-2.857 C43.576,34.422,40.765,33.143,39.187,33.143z" opacity=".428" />
    <path fill="#d5e1f0" d="M39.136,33.214c-0.054,0-22.219,0-22.272,0c-1.538,0-4.8,1.247-4.8,2.786 c0,1.538,3.262,2.786,4.8,2.786c0.054,0,22.219,0,22.272,0c1.538,0,4.271-1.247,4.271-2.786 C43.407,34.461,40.675,33.214,39.136,33.214z" opacity=".445" />
    <path fill="#d4e0ef" d="M39.085,33.286c-0.057,0-22.114,0-22.171,0c-1.499,0-4.666,1.215-4.666,2.714 c0,1.499,3.167,2.714,4.666,2.714c0.057,0,22.114,0,22.171,0c1.499,0,4.153-1.215,4.153-2.714 C43.238,34.501,40.584,33.286,39.085,33.286z" opacity=".462" />
    <path fill="#d3e0ee" d="M39.035,33.357c-0.06,0-22.009,0-22.069,0c-1.46,0-4.532,1.183-4.532,2.643 c0,1.46,3.072,2.643,4.532,2.643c0.06,0,22.009,0,22.069,0c1.46,0,4.035-1.183,4.035-2.643 C43.07,34.54,40.494,33.357,39.035,33.357z" opacity=".48" />
    <path fill="#d2dfed" d="M38.984,33.429c-0.063,0-21.905,0-21.968,0c-1.42,0-4.397,1.151-4.397,2.571 c0,1.42,2.977,2.571,4.397,2.571c0.063,0,21.905,0,21.968,0c1.42,0,3.917-1.151,3.917-2.571 C42.901,34.58,40.404,33.429,38.984,33.429z" opacity=".497" />
    <path fill="#d1deed" d="M38.933,33.5c-0.066,0-21.8,0-21.866,0c-1.381,0-4.263,1.119-4.263,2.5 c0,1.381,2.882,2.5,4.263,2.5c0.066,0,21.8,0,21.866,0c1.381,0,3.799-1.119,3.799-2.5C42.732,34.619,40.314,33.5,38.933,33.5z" opacity=".514" />
    <path fill="#d0ddec" d="M38.882,33.571c-0.069,0-21.695,0-21.764,0c-1.341,0-4.128,1.087-4.128,2.429 c0,1.341,2.787,2.429,4.128,2.429c0.069,0,21.695,0,21.764,0c1.341,0,3.681-1.087,3.681-2.429 C42.564,34.659,40.223,33.571,38.882,33.571z" opacity=".532" />
    <path fill="#cfdceb" d="M38.831,33.643c-0.073,0-21.59,0-21.663,0c-1.302,0-3.994,1.055-3.994,2.357 c0,1.302,2.692,2.357,3.994,2.357c0.073,0,21.59,0,21.663,0c1.302,0,3.564-1.055,3.564-2.357 C42.395,34.698,40.133,33.643,38.831,33.643z" opacity=".549" />
    <path fill="#cedbea" d="M38.781,33.714c-0.076,0-21.485,0-21.561,0c-1.262,0-3.86,1.023-3.86,2.286 c0,1.262,2.597,2.286,3.86,2.286c0.076,0,21.485,0,21.561,0c1.262,0,3.446-1.023,3.446-2.286 C42.226,34.738,40.043,33.714,38.781,33.714z" opacity=".566" />
    <path fill="#cedae9" d="M38.73,33.786c-0.079,0-21.381,0-21.46,0c-1.223,0-3.725,0.991-3.725,2.214 c0,1.223,2.502,2.214,3.725,2.214c0.079,0,21.381,0,21.46,0c1.223,0,3.328-0.991,3.328-2.214 C42.058,34.777,39.953,33.786,38.73,33.786z" opacity=".584" />
    <path fill="#cdd9e8" d="M38.679,33.857c-0.082,0-21.276,0-21.358,0c-1.183,0-3.591,0.959-3.591,2.143 c0,1.183,2.407,2.143,3.591,2.143c0.082,0,21.276,0,21.358,0c1.183,0,3.21-0.959,3.21-2.143 C41.889,34.816,39.862,33.857,38.679,33.857z" opacity=".601" />
    <path fill="#ccd8e7" d="M38.628,33.929c-0.085,0-21.171,0-21.256,0c-1.144,0-3.456,0.927-3.456,2.071 c0,1.144,2.312,2.071,3.456,2.071c0.085,0,21.171,0,21.256,0c1.144,0,3.092-0.927,3.092-2.071 C41.72,34.856,39.772,33.929,38.628,33.929z" opacity=".618" />
    <path fill="#cbd7e6" d="M38.577,34c-0.088,0-21.066,0-21.155,0c-1.105,0-3.322,0.895-3.322,2 c0,1.105,2.218,2,3.322,2c0.088,0,21.066,0,21.155,0c1.105,0,2.974-0.895,2.974-2C41.552,34.895,39.682,34,38.577,34z" opacity=".636" />
    <path fill="#cad6e6" d="M38.527,34.071c-0.091,0-20.962,0-21.053,0c-1.065,0-3.188,0.863-3.188,1.929 c0,1.065,2.123,1.929,3.188,1.929c0.091,0,20.962,0,21.053,0c1.065,0,2.857-0.863,2.857-1.929 C41.383,34.935,39.592,34.071,38.527,34.071z" opacity=".653" />
    <path fill="#c9d5e5" d="M38.476,34.143c-0.095,0-20.857,0-20.951,0c-1.026,0-3.053,0.831-3.053,1.857 c0,1.026,2.028,1.857,3.053,1.857c0.095,0,20.857,0,20.951,0c1.026,0,2.739-0.831,2.739-1.857 C41.215,34.974,39.501,34.143,38.476,34.143z" opacity=".67" />
    <path fill="#c8d5e4" d="M38.425,34.214c-0.098,0-20.752,0-20.85,0c-0.986,0-2.919,0.799-2.919,1.786 c0,0.986,1.933,1.786,2.919,1.786c0.098,0,20.752,0,20.85,0c0.986,0,2.621-0.8,2.621-1.786 C41.046,35.014,39.411,34.214,38.425,34.214z" opacity=".688" />
    <path fill="#c7d4e3" d="M38.374,34.286c-0.101,0-20.647,0-20.748,0c-0.947,0-2.785,0.767-2.785,1.714 c0,0.947,1.838,1.714,2.785,1.714c0.101,0,20.647,0,20.748,0c0.947,0,2.503-0.768,2.503-1.714 C40.877,35.053,39.321,34.286,38.374,34.286z" opacity=".705" />
    <path fill="#c6d3e2" d="M38.323,34.357c-0.104,0-20.543,0-20.647,0c-0.907,0-2.65,0.735-2.65,1.643 c0,0.907,1.743,1.643,2.65,1.643c0.104,0,20.542,0,20.647,0c0.907,0,2.385-0.736,2.385-1.643 C40.709,35.093,39.231,34.357,38.323,34.357z" opacity=".722" />
    <path fill="#c5d2e1" d="M38.272,34.429c-0.107,0-20.438,0-20.545,0c-0.868,0-2.516,0.703-2.516,1.571 c0,0.868,1.648,1.571,2.516,1.571c0.107,0,20.438,0,20.545,0c0.868,0,2.267-0.704,2.267-1.571 C40.54,35.132,39.14,34.429,38.272,34.429z" opacity=".74" />
    <path fill="#c4d1e0" d="M38.222,34.5c-0.11,0-20.333,0-20.443,0c-0.828,0-2.381,0.672-2.381,1.5 c0,0.828,1.553,1.5,2.381,1.5c0.11,0,20.333,0,20.443,0c0.828,0,2.15-0.672,2.15-1.5C40.371,35.172,39.05,34.5,38.222,34.5z" opacity=".757" />
    <path fill="#c3d0df" d="M38.171,34.571c-0.114,0-20.228,0-20.342,0c-0.789,0-2.247,0.64-2.247,1.429 c0,0.789,1.458,1.429,2.247,1.429c0.114,0,20.228,0,20.342,0c0.789,0,2.032-0.64,2.032-1.429 C40.203,35.211,38.96,34.571,38.171,34.571z" opacity=".774" />
    <path fill="#c2cfdf" d="M38.12,34.643c-0.117,0-20.123,0-20.24,0c-0.75,0-2.113,0.608-2.113,1.357 c0,0.75,1.363,1.357,2.113,1.357c0.117,0,20.123,0,20.24,0c0.75,0,1.914-0.608,1.914-1.357C40.034,35.25,38.87,34.643,38.12,34.643 z" opacity=".792" />
    <path fill="#c1cede" d="M38.069,34.714c-0.12,0-20.019,0-20.139,0c-0.71,0-1.978,0.576-1.978,1.286 c0,0.71,1.268,1.286,1.978,1.286c0.12,0,20.019,0,20.139,0c0.71,0,1.796-0.576,1.796-1.286 C39.865,35.29,38.779,34.714,38.069,34.714z" opacity=".809" />
    <path fill="#c0cddd" d="M38.018,34.786c-0.123,0-19.914,0-20.037,0c-0.671,0-1.844,0.544-1.844,1.214 c0,0.671,1.173,1.214,1.844,1.214c0.123,0,19.914,0,20.037,0c0.671,0,1.678-0.544,1.678-1.214 C39.697,35.329,38.689,34.786,38.018,34.786z" opacity=".827" />
    <path fill="#bfccdc" d="M37.968,34.857c-0.126,0-19.809,0-19.935,0c-0.631,0-1.709,0.512-1.709,1.143 c0,0.631,1.078,1.143,1.709,1.143c0.126,0,19.809,0,19.935,0c0.631,0,1.561-0.512,1.561-1.143 C39.528,35.369,38.599,34.857,37.968,34.857z" opacity=".844" />
    <path fill="#becbdb" d="M37.917,34.929c-0.129,0-19.704,0-19.834,0c-0.592,0-1.575,0.48-1.575,1.071 c0,0.592,0.983,1.071,1.575,1.071c0.129,0,19.704,0,19.834,0c0.592,0,1.443-0.48,1.443-1.071 C39.359,35.408,38.509,34.929,37.917,34.929z" opacity=".861" />
    <path fill="#bdcada" d="M37.866,35c-0.133,0-19.6,0-19.732,0c-0.552,0-1.441,0.448-1.441,1 c0,0.552,0.888,1,1.441,1c0.132,0,19.6,0,19.732,0c0.552,0,1.325-0.448,1.325-1C39.191,35.448,38.418,35,37.866,35z" opacity=".879" />
    <path fill="#bccad9" d="M37.815,35.071c-0.136,0-19.495,0-19.63,0c-0.513,0-1.306,0.416-1.306,0.929 c0,0.513,0.794,0.929,1.306,0.929c0.136,0,19.495,0,19.63,0c0.513,0,1.207-0.416,1.207-0.929 C39.022,35.487,38.328,35.071,37.815,35.071z" opacity=".896" />
    <path fill="#bbc9d8" d="M37.764,35.143c-0.139,0-19.39,0-19.529,0c-0.473,0-1.172,0.384-1.172,0.857 c0,0.473,0.699,0.857,1.172,0.857c0.139,0,19.39,0,19.529,0c0.473,0,1.089-0.384,1.089-0.857 C38.854,35.527,38.238,35.143,37.764,35.143z" opacity=".913" />
    <path fill="#bac8d8" d="M37.714,35.214c-0.142,0-19.285,0-19.427,0c-0.434,0-1.038,0.352-1.038,0.786 c0,0.434,0.604,0.786,1.038,0.786c0.142,0,19.285,0,19.427,0c0.434,0,0.971-0.352,0.971-0.786 C38.685,35.566,38.148,35.214,37.714,35.214z" opacity=".931" />
    <path fill="#b9c7d7" d="M37.663,35.286c-0.145,0-19.18,0-19.326,0c-0.394,0-0.903,0.32-0.903,0.714 c0,0.394,0.509,0.714,0.903,0.714c0.145,0,19.18,0,19.326,0c0.394,0,0.854-0.32,0.854-0.714 C38.516,35.605,38.057,35.286,37.663,35.286z" opacity=".948" />
    <path fill="#b8c6d6" d="M37.612,35.357c-0.148,0-19.076,0-19.224,0c-0.355,0-0.769,0.288-0.769,0.643 c0,0.355,0.414,0.643,0.769,0.643c0.148,0,19.076,0,19.224,0c0.355,0,0.736-0.288,0.736-0.643 C38.348,35.645,37.967,35.357,37.612,35.357z" opacity=".965" />
    <path fill="#b7c5d5" d="M37.561,35.429c-0.151,0-18.971,0-19.122,0c-0.316,0-0.634,0.256-0.634,0.571 c0,0.316,0.319,0.571,0.634,0.571c0.151,0,18.971,0,19.122,0c0.316,0,0.618-0.256,0.618-0.571 C38.179,35.684,37.877,35.429,37.561,35.429z" opacity=".983" />
    <path fill="#b6c4d4" d="M37.51,35.5c-0.155,0-18.866,0-19.021,0c-0.276,0-0.5,0.224-0.5,0.5c0,0.276,0.224,0.5,0.5,0.5 c0.155,0,18.866,0,19.021,0c0.276,0,0.5-0.224,0.5-0.5C38.01,35.724,37.786,35.5,37.51,35.5z" />
  </g>
</svg>