<?xml version="1.0" encoding="utf-8"?>
<svg xmlns="http://www.w3.org/2000/svg" viewBox="0 0 48 48" width="192" height="192">
  <radialGradient id="bylLj~4~yOk7JdrKfDaSBa" cx="19" cy="20" r="15" gradientUnits="userSpaceOnUse">
    <stop offset="0" stop-color="#ffe16e" />
    <stop offset=".583" stop-color="#fcbf22" />
    <stop offset=".654" stop-color="#fea20f" />
    <stop offset=".718" stop-color="#ff8c00" />
    <stop offset=".797" stop-color="#ffa300" />
    <stop offset=".928" stop-color="#ffc400" />
    <stop offset="1" stop-color="#ffd000" />
  </radialGradient>
  <path fill="url(#bylLj~4~yOk7JdrKfDaSBa)" d="M19,5l0.647,1.339c0.735,1.522,2.722,1.917,3.983,0.792l1.11-0.99l0.085,1.485c0.097,1.687,1.781,2.812,3.377,2.256l1.404-0.489l-0.489,1.404c-0.556,1.596,0.569,3.28,2.256,3.377l1.485,0.085l-0.99,1.11c-1.124,1.261-0.729,3.248,0.792,3.983L34,20l-1.339,0.647c-1.522,0.735-1.917,2.722-0.792,3.983l0.99,1.11l-1.485,0.085c-1.687,0.097-2.812,1.781-2.256,3.377l0.489,1.404l-1.404-0.489c-1.596-0.556-3.28,0.569-3.377,2.256l-0.085,1.485l-1.11-0.99c-1.261-1.124-3.248-0.729-3.983,0.792L19,35l-0.647-1.339c-0.735-1.522-2.722-1.917-3.983-0.792l-1.11,0.99l-0.085-1.485c-0.097-1.687-1.781-2.812-3.377-2.256l-1.404,0.489l0.489-1.404c0.556-1.596-0.569-3.28-2.256-3.377L5.142,25.74l0.99-1.11c1.124-1.261,0.729-3.248-0.792-3.983L4,20l1.339-0.647c1.522-0.735,1.917-2.722,0.792-3.983l-0.99-1.11l1.485-0.085c1.687-0.097,2.812-1.781,2.256-3.377L8.393,9.393l1.404,0.489c1.596,0.556,3.28-0.569,3.377-2.256l0.085-1.485l1.11,0.99c1.261,1.124,3.248,0.729,3.983-0.792L19,5z" />
  <circle cx="32" cy="28" r="9" fill="#9fd5ed" />
  <circle cx="37" cy="31" r="8" fill="#9fd5ed" />
  <circle cx="32" cy="31" r="8" fill="#9fd5ed" />
  <circle cx="26" cy="31" r="8" fill="#9fd5ed" />
  <circle cx="19" cy="32" r="5" fill="#9fd5ed" />
  <circle cx="24" cy="28" r="5" fill="#9fd5ed" />
  <radialGradient id="bylLj~4~yOk7JdrKfDaSBb" cx="32" cy="28" r="9" gradientUnits="userSpaceOnUse">
    <stop offset="0" stop-color="#e3f4ff" />
    <stop offset="1" stop-color="#e3f4ff" stop-opacity="0" />
  </radialGradient>
  <circle cx="32" cy="28" r="9" fill="url(#bylLj~4~yOk7JdrKfDaSBb)" />
  <radialGradient id="bylLj~4~yOk7JdrKfDaSBc" cx="37" cy="31" r="8" gradientUnits="userSpaceOnUse">
    <stop offset="0" stop-color="#e3f4ff" />
    <stop offset="1" stop-color="#e3f4ff" stop-opacity="0" />
  </radialGradient>
  <circle cx="37" cy="31" r="8" fill="url(#bylLj~4~yOk7JdrKfDaSBc)" />
  <radialGradient id="bylLj~4~yOk7JdrKfDaSBd" cx="26" cy="31" r="8" gradientUnits="userSpaceOnUse">
    <stop offset="0" stop-color="#e3f4ff" />
    <stop offset="1" stop-color="#e3f4ff" stop-opacity="0" />
  </radialGradient>
  <circle cx="26" cy="31" r="8" fill="url(#bylLj~4~yOk7JdrKfDaSBd)" />
  <radialGradient id="bylLj~4~yOk7JdrKfDaSBe" cx="32" cy="31" r="8" gradientUnits="userSpaceOnUse">
    <stop offset="0" stop-color="#e3f4ff" />
    <stop offset="1" stop-color="#e3f4ff" stop-opacity="0" />
  </radialGradient>
  <circle cx="32" cy="31" r="8" fill="url(#bylLj~4~yOk7JdrKfDaSBe)" />
  <radialGradient id="bylLj~4~yOk7JdrKfDaSBf" cx="19" cy="32" r="5" gradientUnits="userSpaceOnUse">
    <stop offset="0" stop-color="#e3f4ff" />
    <stop offset="1" stop-color="#e3f4ff" stop-opacity="0" />
  </radialGradient>
  <circle cx="19" cy="32" r="5" fill="url(#bylLj~4~yOk7JdrKfDaSBf)" />
  <radialGradient id="bylLj~4~yOk7JdrKfDaSBg" cx="24" cy="28" r="5" gradientUnits="userSpaceOnUse">
    <stop offset="0" stop-color="#e3f4ff" />
    <stop offset="1" stop-color="#e3f4ff" stop-opacity="0" />
  </radialGradient>
  <circle cx="24" cy="28" r="5" fill="url(#bylLj~4~yOk7JdrKfDaSBg)" />
</svg>