<?xml version="1.0" encoding="utf-8"?>
<svg xmlns="http://www.w3.org/2000/svg" viewBox="0 0 48 48" width="192" height="192">
  <circle cx="27" cy="19" r="12" fill="#7da6d9" />
  <circle cx="35" cy="24" r="9" fill="#7da6d9" />
  <circle cx="29" cy="26" r="9" fill="#7da6d9" />
  <circle cx="18" cy="25" r="9" fill="#7da6d9" />
  <circle cx="23" cy="25" r="9" fill="#7da6d9" />
  <circle cx="11" cy="25" r="8" fill="#7da6d9" />
  <circle cx="16" cy="18" r="7" fill="#7da6d9" />
  <radialGradient id="rjuWBHKLbl3lFJ3Hjj7XQa" cx="27" cy="19" r="12" gradientUnits="userSpaceOnUse">
    <stop offset="0" stop-color="#e0ecff" />
    <stop offset="1" stop-color="#e0ecff" stop-opacity="0" />
  </radialGradient>
  <circle cx="27" cy="19" r="12" fill="url(#rjuWBHKLbl3lFJ3Hjj7XQa)" />
  <radialGradient id="rjuWBHKLbl3lFJ3Hjj7XQb" cx="35" cy="24" r="9" gradientUnits="userSpaceOnUse">
    <stop offset="0" stop-color="#e0ecff" />
    <stop offset="1" stop-color="#e0ecff" stop-opacity="0" />
  </radialGradient>
  <circle cx="35" cy="24" r="9" fill="url(#rjuWBHKLbl3lFJ3Hjj7XQb)" />
  <radialGradient id="rjuWBHKLbl3lFJ3Hjj7XQc" cx="29" cy="26" r="9" gradientUnits="userSpaceOnUse">
    <stop offset="0" stop-color="#e0ecff" />
    <stop offset="1" stop-color="#e0ecff" stop-opacity="0" />
  </radialGradient>
  <circle cx="29" cy="26" r="9" fill="url(#rjuWBHKLbl3lFJ3Hjj7XQc)" />
  <radialGradient id="rjuWBHKLbl3lFJ3Hjj7XQd" cx="18" cy="25" r="9" gradientUnits="userSpaceOnUse">
    <stop offset="0" stop-color="#e0ecff" />
    <stop offset="1" stop-color="#e0ecff" stop-opacity="0" />
  </radialGradient>
  <circle cx="18" cy="25" r="9" fill="url(#rjuWBHKLbl3lFJ3Hjj7XQd)" />
  <radialGradient id="rjuWBHKLbl3lFJ3Hjj7XQe" cx="23" cy="25" r="9" gradientUnits="userSpaceOnUse">
    <stop offset="0" stop-color="#e0ecff" />
    <stop offset="1" stop-color="#e0ecff" stop-opacity="0" />
  </radialGradient>
  <circle cx="23" cy="25" r="9" fill="url(#rjuWBHKLbl3lFJ3Hjj7XQe)" />
  <radialGradient id="rjuWBHKLbl3lFJ3Hjj7XQf" cx="11" cy="25" r="8" gradientUnits="userSpaceOnUse">
    <stop offset="0" stop-color="#e0ecff" />
    <stop offset="1" stop-color="#e0ecff" stop-opacity="0" />
  </radialGradient>
  <circle cx="11" cy="25" r="8" fill="url(#rjuWBHKLbl3lFJ3Hjj7XQf)" />
  <radialGradient id="rjuWBHKLbl3lFJ3Hjj7XQg" cx="16" cy="18" r="7" gradientUnits="userSpaceOnUse">
    <stop offset="0" stop-color="#e0ecff" />
    <stop offset="1" stop-color="#e0ecff" stop-opacity="0" />
  </radialGradient>
  <circle cx="16" cy="18" r="7" fill="url(#rjuWBHKLbl3lFJ3Hjj7XQg)" />
  <radialGradient id="rjuWBHKLbl3lFJ3Hjj7XQh" cx="29.546" cy="41.917" r="3.356" fx="28.005" fy="41.922" gradientTransform="matrix(0 -1 .8265 0 -5.097 71.464)" gradientUnits="userSpaceOnUse">
    <stop offset="0" stop-color="#b3f1ff" />
    <stop offset=".166" stop-color="#9ee4fc" />
    <stop offset=".509" stop-color="#68c2f3" />
    <stop offset=".996" stop-color="#118ce6" />
    <stop offset="1" stop-color="#108ce6" />
  </radialGradient>
  <path fill="url(#rjuWBHKLbl3lFJ3Hjj7XQh)" d="M32,42.5c0,1.381-1.119,2.5-2.5,2.5S27,43.881,27,42.5c0-2,2-5,2.5-5S32,40.5,32,42.5z" />
  <radialGradient id="rjuWBHKLbl3lFJ3Hjj7XQi" cx="10.037" cy="41.034" r="2.685" fx="8.804" fy="41.038" gradientTransform="matrix(0 -1 .8265 0 -23.876 51.07)" gradientUnits="userSpaceOnUse">
    <stop offset="0" stop-color="#b3f1ff" />
    <stop offset=".166" stop-color="#9ee4fc" />
    <stop offset=".509" stop-color="#68c2f3" />
    <stop offset=".996" stop-color="#118ce6" />
    <stop offset="1" stop-color="#108ce6" />
  </radialGradient>
  <path fill="url(#rjuWBHKLbl3lFJ3Hjj7XQi)" d="M12,41.5c0,1.105-0.895,2-2,2s-2-0.895-2-2c0-1.6,1.6-4,2-4S12,39.9,12,41.5z" />
  <radialGradient id="rjuWBHKLbl3lFJ3Hjj7XQj" cx="38.037" cy="37.534" r="2.685" fx="36.804" fy="37.538" gradientTransform="matrix(0 -1 .8265 0 7.017 75.57)" gradientUnits="userSpaceOnUse">
    <stop offset="0" stop-color="#b3f1ff" />
    <stop offset=".166" stop-color="#9ee4fc" />
    <stop offset=".509" stop-color="#68c2f3" />
    <stop offset=".996" stop-color="#118ce6" />
    <stop offset="1" stop-color="#108ce6" />
  </radialGradient>
  <path fill="url(#rjuWBHKLbl3lFJ3Hjj7XQj)" d="M40,38c0,1.105-0.895,2-2,2s-2-0.895-2-2c0-1.6,1.6-4,2-4S40,36.4,40,38z" />
  <radialGradient id="rjuWBHKLbl3lFJ3Hjj7XQk" cx="20.037" cy="39.534" r="2.685" fx="18.804" fy="39.538" gradientTransform="matrix(0 -1 .8265 0 -12.636 59.57)" gradientUnits="userSpaceOnUse">
    <stop offset="0" stop-color="#b3f1ff" />
    <stop offset=".166" stop-color="#9ee4fc" />
    <stop offset=".509" stop-color="#68c2f3" />
    <stop offset=".996" stop-color="#118ce6" />
    <stop offset="1" stop-color="#108ce6" />
  </radialGradient>
  <path fill="url(#rjuWBHKLbl3lFJ3Hjj7XQk)" d="M22,40c0,1.105-0.895,2-2,2s-2-0.895-2-2c0-1.6,1.6-4,2-4S22,38.4,22,40z" />
</svg>