<svg width="133" height="34" viewBox="0 0 133 34" fill="none" xmlns="http://www.w3.org/2000/svg">
<g id="Monabele logotipo" clip-path="url(#clip0_158_58)">
<g id="Layer 2">
<g id="Layer 1">
<path id="Vector" d="M133 7.20001C133 8.55336 131.913 9.61615 130.499 9.61615C129.1 9.61615 127.983 8.55336 127.983 7.20001C127.983 5.87533 129.1 4.81317 130.499 4.81317C131.913 4.81317 133 5.87533 133 7.20001ZM128.608 7.20001C128.608 8.26281 129.412 9.10642 130.514 9.10642C131.586 9.10642 132.375 8.26281 132.375 7.21466C132.375 6.15186 131.586 5.2936 130.499 5.2936C129.413 5.2936 128.608 6.15186 128.608 7.20001ZM130.112 8.45141H129.546V6.06457C129.856 6.0106 130.17 5.98542 130.484 5.98939C130.946 5.98939 131.154 6.06202 131.331 6.16397C131.409 6.22828 131.471 6.3088 131.512 6.39958C131.553 6.49036 131.573 6.58906 131.57 6.68836C131.57 6.95024 131.361 7.15413 131.064 7.24142V7.2701C131.301 7.35739 131.436 7.53197 131.51 7.85247C131.584 8.21629 131.629 8.36221 131.689 8.44886H131.079C131.004 8.36157 130.959 8.14366 130.883 7.86712C130.838 7.60525 130.687 7.48865 130.377 7.48865H130.109L130.112 8.45141ZM130.127 7.09806H130.395C130.708 7.09806 130.961 6.99611 130.961 6.74889C130.961 6.53034 130.797 6.38507 130.439 6.38507C130.334 6.38284 130.229 6.39268 130.126 6.41438L130.127 7.09806Z" fill="black"/>
<path id="Vector_2" d="M5.36431 34L3.52429 29.7628L9.78608 27.1644V7.19046L3.63119 4.09254L5.78667 0L14.4946 4.38245V30.2114L5.36431 34Z" fill="black"/>
<path id="Vector_3" d="M4.70922 9.62762H0V24.3004H4.70922V9.62762Z" fill="black"/>
<path id="Vector_4" d="M15.1497 34L13.3103 29.7628L19.5714 27.1644V7.19046L13.4172 4.09254L15.5727 0L24.2807 4.38245V30.2114L15.1497 34Z" fill="black"/>
<path id="Vector_5" d="M29.1039 23.2758C27.9229 22.0775 27.3321 20.2144 27.3317 17.6866V16.3791C27.3253 15.6294 27.3963 14.881 27.5435 14.1452C27.6719 13.5068 27.8856 12.8877 28.179 12.3038C28.7439 11.1849 29.5426 10.3421 30.575 9.77547C31.6075 9.20881 32.8076 8.9257 34.1755 8.92612C34.8242 8.92221 35.4712 8.9917 36.1035 9.1332C36.6933 9.26658 37.2602 9.48292 37.7865 9.77547C38.812 10.3425 39.6109 11.1779 40.1831 12.2815C40.7554 13.385 41.0413 14.7507 41.0409 16.3785V17.6859C41.0409 20.1849 40.4206 22.0408 39.18 23.2535C37.9394 24.4663 36.2641 25.0731 34.154 25.0739C31.9688 25.0739 30.2854 24.4745 29.1039 23.2758ZM37.0513 21.2057C37.69 20.3701 38.0094 19.1608 38.0094 17.5776V16.5097C38.0094 14.8684 37.69 13.6227 37.0513 12.7727C36.4125 11.9227 35.4539 11.498 34.1755 11.4984C32.8824 11.4984 31.9238 11.9306 31.2998 12.795C30.6758 13.6594 30.3638 14.8913 30.3638 16.4906V17.5802C30.3638 19.1637 30.6758 20.3731 31.2998 21.2082C31.9238 22.0433 32.8824 22.4611 34.1755 22.4615C35.4531 22.4598 36.4116 22.0412 37.0513 21.2057Z" fill="black"/>
<path id="Vector_6" d="M46.3237 24.747H43.5601V9.20966H46.3465L53.1453 19.7134L53.5684 20.7373L53.4797 19.6248V9.20966H56.2433V24.747H53.5462L46.658 14.1127L46.2122 13.0887L46.3237 14.1783V24.747Z" fill="black"/>
<path id="Vector_7" d="M68.325 21.2604H62.017L60.8125 24.747H57.8259L63.5995 9.20966H66.631L72.5382 24.747H69.5739L68.325 21.2604ZM62.8415 18.8392H67.4562L65.2714 12.7434L65.1143 11.8902L64.9592 12.7434L62.8415 18.8392Z" fill="black"/>
<path id="Vector_8" d="M74.0986 24.747V9.20966H80.1838C82.2791 9.20966 83.8023 9.55479 84.7535 10.2451C85.7047 10.9353 86.1803 11.9268 86.1803 13.2194C86.1803 14.1492 85.9908 14.9047 85.6119 15.4858C85.233 16.0669 84.6721 16.5027 83.929 16.7932C84.7611 17.0689 85.3964 17.4865 85.8349 18.0459C86.2733 18.6054 86.4927 19.3653 86.4932 20.3257C86.4932 21.7351 85.9991 22.8247 85.011 23.5944C84.0229 24.3641 82.5033 24.7492 80.4523 24.7496L74.0986 24.747ZM76.9515 11.5194V15.6381H80.2952C81.2764 15.6381 82.0234 15.4711 82.5361 15.1372C83.0489 14.8034 83.305 14.2658 83.3046 13.5246C83.3046 12.8415 83.0669 12.3367 82.5915 12.01C82.1161 11.6834 81.3433 11.5198 80.2731 11.5194H76.9515ZM76.9515 17.9478V22.306H80.0723C81.3212 22.306 82.2054 22.1172 82.7251 21.7396C83.2448 21.362 83.5055 20.8098 83.5073 20.083C83.5073 19.3281 83.2288 18.7833 82.6717 18.4486C82.1146 18.1139 81.2638 17.9467 80.1193 17.9472L76.9515 17.9478Z" fill="black"/>
<path id="Vector_9" d="M99.9788 24.747H88.6995V9.20966H99.6001V11.6723H91.5302V15.6597H98.3741V18.1447H91.5302V22.1977H99.9788V24.747Z" fill="black"/>
<path id="Vector_10" d="M102.029 24.747V9.20966H104.972V22.0665H112.64V24.747H102.029Z" fill="black"/>
<path id="Vector_11" d="M125.992 24.747H114.716V9.20966H125.616V11.6723H117.547V15.6597H124.391V18.1447H117.547V22.1977H125.992V24.747Z" fill="black"/>
</g>
</g>
</g>
<defs>
<clipPath id="clip0_158_58">
<rect width="133" height="34" fill="white"/>
</clipPath>
</defs>
</svg>
