<svg width="222" height="36" viewBox="0 0 222 36" fill="none" xmlns="http://www.w3.org/2000/svg">
<path d="M6.93513 1.3763L8.88331 0.923982L8.54381 -0.538288L7.04491 -0.620689L6.93513 1.3763ZM9.83373 13.861L7.88555 14.3134L8.22505 15.7756L9.72395 15.858L9.83373 13.861ZM9.96989 13.8685L9.86011 15.8655L11.359 15.9479L11.8568 14.5317L9.96989 13.8685ZM14.2196 1.77675L14.3294 -0.220231L12.8305 -0.302632L12.3327 1.11361L14.2196 1.77675ZM19.5638 2.07055L21.4257 2.80074L22.4357 0.22541L19.6736 0.0735641L19.5638 2.07055ZM12.853 19.1825L12.7432 21.1795L14.187 21.2589L14.7149 19.9127L12.853 19.1825ZM6.38549 18.827L4.45473 19.3487L4.83191 20.7446L6.27571 20.824L6.38549 18.827ZM1.59092 1.0825L1.70071 -0.914484L-1.06142 -1.06633L-0.339838 1.60419L1.59092 1.0825ZM4.98694 1.82861L7.88555 14.3134L11.7819 13.4087L8.88331 0.923982L4.98694 1.82861ZM9.72395 15.858L9.86011 15.8655L10.0797 11.8715L9.94352 11.8641L9.72395 15.858ZM11.8568 14.5317L16.1064 2.4399L12.3327 1.11361L8.08303 13.2054L11.8568 14.5317ZM14.1098 3.77374L19.454 4.06753L19.6736 0.0735641L14.3294 -0.220231L14.1098 3.77374ZM17.7018 1.34035L10.9911 18.4523L14.7149 19.9127L21.4257 2.80074L17.7018 1.34035ZM12.9628 17.1855L6.49528 16.83L6.27571 20.824L12.7432 21.1795L12.9628 17.1855ZM8.31625 18.3053L3.52168 0.560808L-0.339838 1.60419L4.45473 19.3487L8.31625 18.3053ZM1.48114 3.07949L6.82534 3.37328L7.04491 -0.620689L1.70071 -0.914484L1.48114 3.07949ZM20.2019 19.3817L19.3009 21.1672L19.3104 21.1721L19.3201 21.1768L20.2019 19.3817ZM18.7734 18.0399L17.0367 19.0318L18.7734 18.0399ZM18.8131 14.0559L20.5635 15.0235L20.5677 15.0159L18.8131 14.0559ZM19.9031 12.8611L21.003 14.5315L21.003 14.5315L19.9031 12.8611ZM21.4671 12.2045L21.014 10.2565L21.0089 10.2577L21.4671 12.2045ZM23.3745 11.9765L23.4156 13.9761L23.4194 13.976L23.3745 11.9765ZM25.1473 11.8691L25.392 13.854L25.402 13.8528L25.4119 13.8515L25.1473 11.8691ZM26.1366 11.5735L27.2393 13.242L27.2545 13.232L27.2694 13.2217L26.1366 11.5735ZM26.1211 10.1472L24.8906 11.7239L26.1211 10.1472ZM24.0178 10.0572L25.066 11.7605L25.073 11.7561L24.0178 10.0572ZM23.4665 10.9231L23.3568 12.9201L25.0922 13.0155L25.4287 11.3104L23.4665 10.9231ZM19.1435 10.6855L17.1594 10.4337L16.889 12.5645L19.0337 12.6825L19.1435 10.6855ZM20.0216 8.53156L18.4256 7.3263L18.4233 7.32936L20.0216 8.53156ZM22.0933 7.02368L22.8343 8.88137L22.8443 8.87734L22.0933 7.02368ZM27.8784 7.06004L27.2034 8.94273L27.2167 8.94738L27.8784 7.06004ZM29.7261 8.07493L28.44 9.60668L28.4508 9.6156L29.7261 8.07493ZM30.8426 9.502L29.0213 10.3284L29.0267 10.3403L29.0323 10.3521L30.8426 9.502ZM30.6748 20.1623L30.565 22.1593L32.562 22.269L32.6718 20.2721L30.6748 20.1623ZM26.2837 19.9209L24.2867 19.8111L24.1769 21.8081L26.1739 21.9179L26.2837 19.9209ZM26.3848 18.0827L28.3817 18.1925L28.4915 16.1955L26.4945 16.0858L26.3848 18.0827ZM26.2826 18.0771L26.3924 16.0801L25.1959 16.0144L24.5735 17.0384L26.2826 18.0771ZM25.2645 19.2076L24.0997 17.5818L24.0937 17.5861L24.0876 17.5905L25.2645 19.2076ZM23.9605 19.7932L23.5175 17.8428L23.5113 17.8443L23.9605 19.7932ZM25.1029 16.8685L24.3615 15.0109L24.3487 15.0162L25.1029 16.8685ZM25.9124 16.2728L24.3512 15.0228L25.9124 16.2728ZM26.3258 14.1873L28.3228 14.297L28.4863 11.3225L25.6713 12.2974L26.3258 14.1873ZM25.9179 14.3099L25.4138 12.3745L25.4021 12.3775L25.3905 12.3807L25.9179 14.3099ZM25.4683 14.4133L25.0905 12.4493L25.082 12.4509L25.0734 12.4526L25.4683 14.4133ZM24.9687 14.4968L24.697 12.5153L24.6847 12.517L24.9687 14.4968ZM24.4274 14.5609L24.2368 12.57L24.2276 12.5709L24.4274 14.5609ZM23.5184 14.7926L24.3846 16.5953L24.3922 16.5917L24.3997 16.588L23.5184 14.7926ZM22.9821 15.2326L21.3312 14.1036L21.3261 14.1111L21.321 14.1186L22.9821 15.2326ZM23.1238 16.6914L24.4153 15.1643L23.1238 16.6914ZM22.5018 17.9148C21.8842 17.8808 21.426 17.7547 21.0837 17.5866L19.3201 21.1768C20.23 21.6238 21.2318 21.851 22.2822 21.9088L22.5018 17.9148ZM21.1029 17.5961C20.8194 17.4531 20.6401 17.2756 20.51 17.0479L17.0367 19.0318C17.5711 19.9673 18.3441 20.6844 19.3009 21.1672L21.1029 17.5961ZM20.51 17.0479C20.4182 16.8871 20.3108 16.5716 20.3436 15.9752L16.3496 15.7557C16.287 16.8953 16.4641 18.0294 17.0367 19.0318L20.51 17.0479ZM20.3436 15.9752C20.3708 15.4812 20.4719 15.1892 20.5635 15.0235L17.0628 13.0883C16.6109 13.9057 16.4011 14.82 16.3496 15.7557L20.3436 15.9752ZM20.5677 15.0159C20.6895 14.7932 20.8328 14.6436 21.003 14.5315L18.8032 11.1907C18.0642 11.6774 17.4808 12.3243 17.0586 13.096L20.5677 15.0159ZM21.003 14.5315C21.2413 14.3746 21.5407 14.2418 21.9252 14.1513L21.0089 10.2577C20.2174 10.444 19.4742 10.7489 18.8032 11.1907L21.003 14.5315ZM21.9201 14.1525C22.3645 14.0492 22.8611 13.9875 23.4156 13.9761L23.3334 9.9769C22.532 9.99338 21.757 10.0837 21.014 10.2565L21.9201 14.1525ZM23.4194 13.976C24.1851 13.9588 24.8507 13.9208 25.392 13.854L24.9025 9.88411C24.5501 9.92757 24.0338 9.96117 23.3296 9.97698L23.4194 13.976ZM25.4119 13.8515C25.9526 13.7793 26.6484 13.6326 27.2393 13.242L25.0339 9.90497C25.0926 9.86614 25.1365 9.8454 25.1557 9.83702C25.1752 9.82846 25.1789 9.8284 25.1617 9.83354C25.124 9.8448 25.0364 9.86614 24.8826 9.88667L25.4119 13.8515ZM27.2694 13.2217C27.9845 12.7302 28.4167 11.9675 28.4646 11.0955L24.4707 10.8759C24.4787 10.7291 24.5205 10.5363 24.6319 10.3384C24.7432 10.1408 24.8854 10.0066 25.0037 9.92528L27.2694 13.2217ZM28.4646 11.0955L28.4665 11.0614L24.4725 10.8419L24.4707 10.8759L28.4646 11.0955ZM28.4665 11.0614C28.5181 10.1219 28.1603 9.20175 27.3516 8.57057L24.8906 11.7239C24.7765 11.6348 24.6478 11.4901 24.5612 11.2901C24.4768 11.0954 24.4677 10.9301 24.4725 10.8419L28.4665 11.0614ZM27.3516 8.57057C26.698 8.06044 25.9421 7.86121 25.2417 7.82271L25.0221 11.8167C25.0802 11.8199 25.0865 11.8269 25.0569 11.8171C25.024 11.8061 24.9615 11.7792 24.8906 11.7239L27.3516 8.57057ZM25.2417 7.82271C24.5038 7.78214 23.6955 7.90296 22.9625 8.35824L25.073 11.7561C25.041 11.776 25.011 11.7904 24.9856 11.8004C24.9605 11.8104 24.9425 11.8149 24.9342 11.8166C24.9188 11.8199 24.9435 11.8124 25.0221 11.8167L25.2417 7.82271ZM22.9695 8.3539C22.1113 8.88205 21.6676 9.70912 21.5044 10.5359L25.4287 11.3104C25.429 11.309 25.4152 11.3795 25.3507 11.4808C25.2816 11.5894 25.1822 11.689 25.066 11.7605L22.9695 8.3539ZM23.5763 8.92614L19.2533 8.68848L19.0337 12.6825L23.3568 12.9201L23.5763 8.92614ZM21.1276 10.9373C21.1837 10.4953 21.3414 10.1041 21.62 9.73375L18.4233 7.32936C17.7318 8.24863 17.3041 9.29338 17.1594 10.4337L21.1276 10.9373ZM21.6177 9.73681C21.8523 9.42603 22.2229 9.12524 22.8343 8.88134L21.3523 5.16603C20.1834 5.6323 19.1728 6.33675 18.4256 7.3263L21.6177 9.73681ZM22.8443 8.87734C23.3831 8.65903 24.1641 8.52598 25.268 8.58667L25.4875 4.5927C23.993 4.51054 22.5844 4.66683 21.3423 5.17003L22.8443 8.87734ZM25.268 8.58667C26.0496 8.62964 26.6873 8.75765 27.2034 8.94269L28.5535 5.1774C27.6075 4.83821 26.5781 4.65265 25.4875 4.5927L25.268 8.58667ZM27.2167 8.94738C27.7616 9.13847 28.1554 9.36768 28.4401 9.60664L31.0121 6.54321C30.2959 5.94188 29.458 5.4945 28.5402 5.17271L27.2167 8.94738ZM28.4508 9.6156C28.742 9.8566 28.9155 10.0953 29.0213 10.3284L32.6639 8.6756C32.2824 7.83491 31.7117 7.1222 31.0014 6.53425L28.4508 9.6156ZM29.0323 10.3521C29.1361 10.5733 29.1858 10.8114 29.17 11.1001L33.1639 11.3197C33.2148 10.3943 33.0483 9.49382 32.6529 8.65189L29.0323 10.3521ZM29.17 11.1001L28.6778 20.0525L32.6718 20.2721L33.1639 11.3197L29.17 11.1001ZM30.7846 18.1653L26.3935 17.9239L26.1739 21.9179L30.565 22.1593L30.7846 18.1653ZM28.2807 20.0307L28.3817 18.1925L24.3878 17.973L24.2867 19.8111L28.2807 20.0307ZM26.4945 16.0858L26.3924 16.0801L26.1729 20.0741L26.275 20.0797L26.4945 16.0858ZM24.5735 17.0384C24.4046 17.3164 24.2407 17.4808 24.0997 17.5818L26.4293 20.8334C27.0703 20.3742 27.5851 19.785 27.9918 19.1158L24.5735 17.0384ZM24.0876 17.5905C23.9309 17.7046 23.7481 17.7905 23.5175 17.8428L24.4036 21.7435C25.141 21.5759 25.8275 21.2715 26.4414 20.8247L24.0876 17.5905ZM23.5113 17.8443C23.2422 17.9063 22.9102 17.9373 22.5018 17.9148L22.2822 21.9088C23.0084 21.9487 23.7221 21.9006 24.4098 21.742L23.5113 17.8443ZM23.9768 19.0315C24.6185 19.0668 25.2534 18.9667 25.8571 18.7208L24.3487 15.0162C24.3122 15.031 24.2694 15.0416 24.1963 15.0376L23.9768 19.0315ZM25.8443 18.726C26.4828 18.4712 27.0379 18.067 27.4736 17.5229L24.3512 15.0228C24.3505 15.0236 24.3516 15.0222 24.3544 15.0195C24.3572 15.0167 24.3607 15.0138 24.3642 15.0112C24.3678 15.0086 24.3702 15.0072 24.3707 15.0069C24.3711 15.0067 24.3683 15.0083 24.3615 15.011L25.8443 18.726ZM27.4736 17.5229C27.9885 16.8798 28.222 16.1298 28.2629 15.3863L24.2689 15.1667C24.2672 15.1987 24.2637 15.1901 24.2763 15.1546C24.2898 15.1166 24.3143 15.0688 24.3512 15.0228L27.4736 17.5229ZM28.2629 15.3863L28.3228 14.297L24.3288 14.0775L24.2689 15.1667L28.2629 15.3863ZM25.6713 12.2974C25.598 12.3228 25.5125 12.3488 25.4138 12.3745L26.4219 16.2454C26.6118 16.1959 26.7983 16.1401 26.9803 16.0771L25.6713 12.2974ZM25.3905 12.3807C25.3075 12.4034 25.2081 12.4267 25.0905 12.4493L25.8462 16.3773C26.0506 16.3379 26.2509 16.2923 26.4452 16.2392L25.3905 12.3807ZM25.0734 12.4526C24.9638 12.4747 24.8387 12.4959 24.697 12.5153L25.2404 16.4782C25.4541 16.4489 25.6621 16.4144 25.8632 16.3739L25.0734 12.4526ZM24.6847 12.517C24.5463 12.5369 24.3971 12.5547 24.2368 12.57L24.618 16.5518C24.8352 16.531 25.0469 16.506 25.2527 16.4765L24.6847 12.517ZM24.2276 12.5709C23.7077 12.6231 23.1547 12.7432 22.6372 12.9972L24.3997 16.588C24.3769 16.5992 24.3797 16.5946 24.4195 16.5844C24.4592 16.5743 24.5265 16.561 24.6272 16.5509L24.2276 12.5709ZM22.6522 12.9899C22.1605 13.2262 21.6864 13.5842 21.3312 14.1036L24.633 16.3615C24.5253 16.519 24.4088 16.5837 24.3846 16.5953L22.6522 12.9899ZM21.321 14.1186C20.9881 14.615 20.8204 15.1687 20.7898 15.7266L24.7837 15.9462C24.7812 15.992 24.772 16.056 24.7478 16.1309C24.7233 16.2067 24.6877 16.2802 24.6432 16.3465L21.321 14.1186ZM20.7898 15.7266C20.7407 16.6194 21.0397 17.5483 21.8324 18.2186L24.4153 15.1643C24.5333 15.2641 24.646 15.4096 24.7167 15.5889C24.784 15.7598 24.7866 15.8932 24.7837 15.9462L20.7898 15.7266ZM21.8324 18.2186C22.4826 18.7684 23.2518 18.9917 23.9768 19.0315L24.1963 15.0376C24.1582 15.0355 24.1718 15.0315 24.2195 15.0485C24.271 15.0669 24.3427 15.1029 24.4153 15.1643L21.8324 18.2186ZM38.5749 3.11567L40.5718 3.22545L40.6816 1.22847L38.6846 1.11869L38.5749 3.11567ZM37.6167 20.5439L37.507 22.5409L39.5039 22.6507L39.6137 20.6537L37.6167 20.5439ZM32.9193 20.2857L30.9223 20.1759L30.8125 22.1729L32.8095 22.2826L32.9193 20.2857ZM33.8774 2.85743L33.9872 0.860447L31.9902 0.750664L31.8804 2.74765L33.8774 2.85743ZM36.5779 3.00589L35.6198 20.4341L39.6137 20.6537L40.5718 3.22545L36.5779 3.00589ZM37.7265 18.5469L33.0291 18.2887L32.8095 22.2826L37.507 22.5409L37.7265 18.5469ZM34.9163 20.3954L35.8744 2.96721L31.8804 2.74765L30.9223 20.1759L34.9163 20.3954ZM33.7676 4.85442L38.4651 5.11266L38.6846 1.11869L33.9872 0.860447L33.7676 4.85442ZM48.8004 15.4228L46.8034 15.313L46.8027 15.3261L46.8021 15.3393L48.8004 15.4228ZM49.2046 8.07026L49.3143 6.07327L47.3174 5.96349L47.2076 7.96048L49.2046 8.07026ZM53.902 8.3285L55.899 8.43828L56.0088 6.4413L54.0118 6.33151L53.902 8.3285ZM53.1834 21.3997L53.0737 23.3967L55.0706 23.5064L55.1804 21.5095L53.1834 21.3997ZM48.7243 21.1545L46.7273 21.0447L46.6175 23.0417L48.6145 23.1515L48.7243 21.1545ZM48.8609 18.6696L50.8579 18.7794L50.9676 16.7824L48.9707 16.6727L48.8609 18.6696ZM48.7247 18.6622L48.8345 16.6652L47.4044 16.5866L46.8694 17.9152L48.7247 18.6622ZM47.1279 20.5376L48.1315 22.2676L48.1411 22.2619L47.1279 20.5376ZM42.1969 20.3348L41.0553 21.9769L41.0614 21.9811L42.1969 20.3348ZM40.701 18.5113L38.8706 19.3174L38.8756 19.3285L40.701 18.5113ZM40.2703 15.944L38.2732 15.8342L38.2727 15.8461L40.2703 15.944ZM40.7287 7.6043L40.8385 5.60732L38.8415 5.49754L38.7317 7.49452L40.7287 7.6043ZM45.4262 7.86254L47.4232 7.97233L47.5329 5.97534L45.536 5.86556L45.4262 7.86254ZM45.022 15.2151L43.025 15.1053L43.0245 15.1141L43.0241 15.1228L45.022 15.2151ZM45.4318 16.7655L43.858 17.9996L43.8633 18.0064L43.8687 18.0131L45.4318 16.7655ZM47.8062 17.2033L48.7132 18.9859L48.7241 18.9802L47.8062 17.2033ZM48.5093 16.525L46.7795 15.5211L46.7758 15.5274L46.7722 15.5337L48.5093 16.525ZM50.7973 15.5326L51.2016 8.18004L47.2076 7.96048L46.8034 15.313L50.7973 15.5326ZM49.0948 10.0672L53.7922 10.3255L54.0118 6.33151L49.3143 6.07327L49.0948 10.0672ZM51.905 8.21872L51.1865 21.2899L55.1804 21.5095L55.899 8.43828L51.905 8.21872ZM53.2932 19.4027L48.834 19.1575L48.6145 23.1515L53.0737 23.3967L53.2932 19.4027ZM50.7212 21.2643L50.8579 18.7794L46.8639 18.5599L46.7273 21.0447L50.7212 21.2643ZM48.9707 16.6727L48.8345 16.6652L48.6149 20.6591L48.7511 20.6666L48.9707 16.6727ZM46.8694 17.9152C46.6988 18.339 46.4547 18.6134 46.1147 18.8132L48.1411 22.2619C49.2711 21.598 50.0916 20.622 50.58 19.4092L46.8694 17.9152ZM46.1243 18.8076C45.7753 19.01 45.3186 19.135 44.6719 19.0994L44.4523 23.0934C45.7572 23.1651 47.011 22.9175 48.1315 22.2675L46.1243 18.8076ZM44.6719 19.0994C44.0753 19.0666 43.6534 18.9098 43.3325 18.6884L41.0614 21.9811C42.0672 22.6749 43.2221 23.0258 44.4523 23.0934L44.6719 19.0994ZM43.3386 18.6926C42.991 18.451 42.7231 18.1334 42.5264 17.694L38.8756 19.3285C39.358 20.406 40.0874 21.304 41.0553 21.9769L43.3386 18.6926ZM42.5314 17.7051C42.3405 17.2717 42.234 16.7324 42.2679 16.0419L38.2727 15.8461C38.213 17.0624 38.3938 18.2346 38.8707 19.3174L42.5314 17.7051ZM42.2672 16.0538L42.7257 7.71409L38.7317 7.49452L38.2733 15.8342L42.2672 16.0538ZM40.6189 9.60129L45.3164 9.85953L45.536 5.86556L40.8385 5.60732L40.6189 9.60129ZM43.4292 7.75276L43.025 15.1053L47.019 15.3249L47.4232 7.97233L43.4292 7.75276ZM43.0241 15.1228C42.9793 16.0937 43.1759 17.1297 43.858 17.9996L47.0056 15.5314C47.0362 15.5704 47.0406 15.5957 47.0356 15.5769C47.0289 15.5516 47.0124 15.4691 47.0198 15.3073L43.0241 15.1228ZM43.8687 18.0131C44.6019 18.9318 45.6316 19.3343 46.6702 19.3914L46.8898 15.3974C46.8018 15.3926 46.7997 15.3788 46.846 15.4004C46.8689 15.4111 46.8971 15.4275 46.9264 15.4505C46.9557 15.4736 46.9787 15.4974 46.9949 15.5178L43.8687 18.0131ZM46.6702 19.3914C47.3452 19.4285 48.0505 19.323 48.7132 18.9858L46.8993 15.4208C46.9154 15.4126 46.9301 15.4066 46.9422 15.4026C46.9542 15.3986 46.9619 15.397 46.964 15.3966C46.9681 15.3958 46.946 15.4005 46.8898 15.3974L46.6702 19.3914ZM48.7241 18.9802C49.3734 18.6449 49.889 18.1424 50.2464 17.5162L46.7722 15.5337C46.7764 15.5263 46.7906 15.5045 46.8174 15.4787C46.8444 15.4526 46.8708 15.4354 46.8884 15.4264L48.7241 18.9802ZM50.2391 17.5288C50.6114 16.8873 50.7701 16.1879 50.7986 15.5063L46.8021 15.3393C46.7945 15.5207 46.7592 15.556 46.7795 15.5211L50.2391 17.5288ZM58.2585 21.1153L57.2174 22.823L57.2289 22.8299L58.2585 21.1153ZM56.0626 18.6729L54.2491 19.5164L54.2548 19.5285L56.0626 18.6729ZM56.465 11.5081L58.1706 12.5526L56.465 11.5081ZM58.9008 9.27762L59.7885 11.0698L59.7885 11.0698L58.9008 9.27762ZM65.117 9.23525L65.9338 7.40961L65.117 9.23525ZM67.0945 10.684L65.5852 11.9964L65.5916 12.0037L67.0945 10.684ZM68.289 12.8665L66.3779 13.4563L66.3779 13.4563L68.289 12.8665ZM68.5347 16.7808L68.4249 18.7778L70.4219 18.8876L70.5317 16.8906L68.5347 16.7808ZM56.8591 16.139L54.8622 16.0292L54.7524 18.0262L56.7494 18.1359L56.8591 16.139ZM57.0014 13.552L57.1111 11.555L55.1142 11.4452L55.0044 13.4422L57.0014 13.552ZM64.3539 13.9562L64.2441 15.9531L66.2716 16.0646L66.3523 14.0357L64.3539 13.9562ZM64.1188 12.9531L62.3689 13.9215L62.38 13.9416L62.3916 13.9615L64.1188 12.9531ZM63.4154 12.2401L62.3739 13.9475L62.3926 13.9589L62.4116 13.97L63.4154 12.2401ZM61.322 12.125L62.1169 13.9603L62.1299 13.9547L62.1428 13.9488L61.322 12.125ZM60.5196 12.7467L58.93 11.533L58.9216 11.544L58.9134 11.5551L60.5196 12.7467ZM60.167 13.726L58.1742 13.5567L58.1717 13.5864L58.17 13.6162L60.167 13.726ZM60.2156 17.655L58.4027 18.4995L60.2156 17.655ZM60.9304 18.4711L59.8475 20.1525L60.9304 18.4711ZM62.9989 18.7299L62.4715 16.8006L62.4593 16.8041L62.9989 18.7299ZM63.7182 18.3768L64.9572 19.9468L64.97 19.9367L64.9826 19.9264L63.7182 18.3768ZM64.1783 17.7705L64.2881 15.7735L62.9004 15.6972L62.345 16.9711L64.1783 17.7705ZM68.4673 18.0062L70.4208 18.4349L70.9248 16.1383L68.5771 16.0093L68.4673 18.0062ZM67.2906 20.3144L68.7579 21.6735L68.7635 21.6674L67.2906 20.3144ZM65.0184 21.743L65.6622 23.6366L65.6683 23.6345L65.0184 21.743ZM61.9325 20.1166C60.7906 20.0538 59.9342 19.7887 59.2882 19.4007L57.2289 22.8299C58.5439 23.6196 60.0636 24.0199 61.713 24.1106L61.9325 20.1166ZM59.2997 19.4077C58.6592 19.0172 58.1933 18.4996 57.8703 17.8173L54.2548 19.5285C54.9108 20.9145 55.9088 22.0252 57.2174 22.823L59.2997 19.4077ZM57.8761 17.8295C57.5594 17.1487 57.387 16.2662 57.4504 15.1131L53.4565 14.8935C53.3652 16.5543 53.5989 18.1182 54.2491 19.5163L57.8761 17.8295ZM57.4504 15.1131C57.5097 14.0352 57.7718 13.2038 58.1706 12.5526L54.7595 10.4635C53.958 11.7722 53.5457 13.2709 53.4565 14.8935L57.4504 15.1131ZM58.1706 12.5526C58.5752 11.892 59.1045 11.4086 59.7885 11.0698L58.013 7.48543C56.6497 8.16075 55.5552 9.16434 54.7595 10.4635L58.1706 12.5526ZM59.7885 11.0698C60.4505 10.7419 61.2827 10.5666 62.3519 10.6253L62.5715 6.63137C60.9401 6.54169 59.3984 6.79921 58.013 7.48543L59.7885 11.0698ZM62.3519 10.6253C63.1316 10.6682 63.7717 10.8244 64.3003 11.0609L65.9338 7.40961C64.8962 6.94544 63.766 6.69704 62.5715 6.63137L62.3519 10.6253ZM64.3003 11.0609C64.832 11.2988 65.2506 11.6116 65.5852 11.9963L68.6037 9.37175C67.8679 8.52547 66.9682 7.8724 65.9338 7.40961L64.3003 11.0609ZM65.5916 12.0037C65.925 12.3833 66.1926 12.8561 66.3779 13.4563L70.2 12.2768C69.8636 11.1867 69.335 10.2045 68.5973 9.36441L65.5916 12.0037ZM66.3779 13.4563C66.5578 14.0393 66.6439 14.7393 66.5976 15.5818L70.5916 15.8013C70.6594 14.5673 70.5417 13.384 70.2 12.2768L66.3779 13.4563ZM66.5976 15.5818L66.5377 16.671L70.5317 16.8906L70.5916 15.8013L66.5976 15.5818ZM68.6445 14.7838L56.9689 14.142L56.7494 18.1359L68.4249 18.7778L68.6445 14.7838ZM58.8561 16.2487L58.9983 13.6617L55.0044 13.4422L54.8622 16.0292L58.8561 16.2487ZM56.8916 15.5489L64.2441 15.9531L64.4637 11.9592L57.1111 11.555L56.8916 15.5489ZM66.3523 14.0357C66.3808 13.3201 66.2292 12.6011 65.846 11.9447L62.3916 13.9615C62.3761 13.9349 62.3649 13.9057 62.3591 13.8807C62.3535 13.857 62.3564 13.8529 62.3555 13.8766L66.3523 14.0357ZM65.8687 11.9847C65.5233 11.3605 65.0273 10.8632 64.4193 10.5103L62.4116 13.97C62.4172 13.9732 62.4088 13.969 62.395 13.955C62.381 13.9408 62.3722 13.9275 62.3689 13.9215L65.8687 11.9847ZM64.457 10.5327C63.8439 10.1587 63.1712 9.97615 62.4921 9.93881L62.2725 13.9328C62.3279 13.9358 62.358 13.9433 62.369 13.9465C62.3791 13.9495 62.3787 13.9505 62.3739 13.9475L64.457 10.5327ZM62.4921 9.93881C61.8129 9.90147 61.138 10.0146 60.5012 10.3012L62.1428 13.9488C62.1595 13.9413 62.1915 13.9283 62.2725 13.9328L62.4921 9.93881ZM60.5271 10.2898C59.8986 10.562 59.3534 10.9784 58.93 11.533L62.1092 13.9604C62.1101 13.9593 62.1096 13.9601 62.1076 13.962C62.1057 13.964 62.1035 13.9659 62.1015 13.9675C62.0995 13.969 62.099 13.9692 62.1007 13.9682C62.1024 13.9672 62.1075 13.9644 62.1169 13.9603L60.5271 10.2898ZM58.9134 11.5551C58.4637 12.1612 58.2341 12.8524 58.1742 13.5567L62.1599 13.8953C62.1627 13.8623 62.1668 13.8583 62.1611 13.8741C62.1584 13.8816 62.1541 13.8919 62.1477 13.9039C62.1412 13.9159 62.1338 13.9276 62.1258 13.9384L58.9134 11.5551ZM58.17 13.6162L58.0166 16.4074L62.0106 16.627L62.164 13.8358L58.17 13.6162ZM58.0166 16.4074C57.9778 17.114 58.0894 17.827 58.4027 18.4995L62.0286 16.8105C62.0263 16.8056 62.0033 16.7601 62.0106 16.627L58.0166 16.4074ZM58.4027 18.4995C58.7224 19.1858 59.2162 19.7459 59.8475 20.1525L62.0134 16.7897C62.0076 16.7859 62.0062 16.7845 62.0078 16.7859C62.0096 16.7874 62.013 16.7905 62.0171 16.7953C62.0213 16.8 62.0247 16.8046 62.0271 16.8084C62.0295 16.8121 62.0298 16.8132 62.0286 16.8105L58.4027 18.4995ZM59.8475 20.1525C60.5175 20.5841 61.2637 20.7741 61.9966 20.8144L62.2162 16.8204C62.0186 16.8095 61.9809 16.7687 62.0134 16.7897L59.8475 20.1525ZM61.9966 20.8144C62.507 20.8424 63.0271 20.799 63.5385 20.6557L62.4593 16.8041C62.4274 16.813 62.3525 16.8279 62.2162 16.8204L61.9966 20.8144ZM63.5263 20.6591C64.0324 20.5207 64.5211 20.2909 64.9572 19.9468L62.4793 16.8067C62.4859 16.8016 62.4918 16.7975 62.4967 16.7944C62.5015 16.7914 62.5046 16.7898 62.5054 16.7894C62.5073 16.7885 62.4974 16.7936 62.4716 16.8007L63.5263 20.6591ZM64.9826 19.9264C65.4311 19.5605 65.7799 19.1014 66.0117 18.5698L62.345 16.9711C62.3547 16.949 62.37 16.9212 62.392 16.8923C62.4139 16.8634 62.4362 16.8416 62.4539 16.8271L64.9826 19.9264ZM64.0686 19.7674L68.3575 20.0032L68.5771 16.0093L64.2881 15.7735L64.0686 19.7674ZM66.5138 17.5776C66.3873 18.154 66.151 18.5986 65.8176 18.9615L68.7635 21.6674C69.6044 20.7519 70.1525 19.6577 70.4208 18.4349L66.5138 17.5776ZM65.8233 18.9554C65.4898 19.3154 65.0273 19.6252 64.3685 19.8515L65.6683 23.6345C66.8654 23.2231 67.9177 22.5806 68.7578 21.6735L65.8233 18.9554ZM64.3745 19.8495C63.7458 20.0633 62.9454 20.1723 61.9325 20.1166L61.713 24.1106C63.117 24.1878 64.4469 24.0498 65.6622 23.6365L64.3745 19.8495ZM77.6121 22.1793L76.571 23.887L76.5825 23.8939L77.6121 22.1793ZM75.4162 19.7369L73.6027 20.5803L73.6084 20.5925L75.4162 19.7369ZM75.8186 12.572L77.5241 13.6166L75.8186 12.572ZM78.2544 10.3416L79.1421 12.1338L79.1421 12.1338L78.2544 10.3416ZM84.4706 10.2992L85.2873 8.47357L84.4706 10.2992ZM86.448 11.748L84.9388 13.0603L84.9452 13.0676L86.448 11.748ZM87.6425 13.9305L85.7315 14.5203L85.7315 14.5203L87.6425 13.9305ZM87.8883 17.8448L87.7785 19.8418L89.7755 19.9515L89.8853 17.9546L87.8883 17.8448ZM76.2127 17.2029L74.2157 17.0931L74.106 19.0901L76.1029 19.1999L76.2127 17.2029ZM76.3549 14.6159L76.4647 12.6189L74.4677 12.5091L74.358 14.5061L76.3549 14.6159ZM83.7075 15.0201L83.5977 17.0171L85.6252 17.1286L85.7059 15.0996L83.7075 15.0201ZM83.4724 14.0171L81.7225 14.9854L81.7336 15.0056L81.7452 15.0255L83.4724 14.0171ZM82.769 13.3041L81.7275 15.0115L81.7462 15.0229L81.7652 15.0339L82.769 13.3041ZM80.6756 13.189L81.4705 15.0242L81.4835 15.0186L81.4964 15.0128L80.6756 13.189ZM79.8732 13.8107L78.2836 12.5969L78.2752 12.6079L78.267 12.619L79.8732 13.8107ZM79.5206 14.7899L77.5278 14.6206L77.5253 14.6504L77.5236 14.6802L79.5206 14.7899ZM79.5692 18.719L77.7563 19.5635L79.5692 18.719ZM80.284 19.535L79.2011 21.2164L80.284 19.535ZM82.3525 19.7938L81.8251 17.8646L81.8129 17.868L82.3525 19.7938ZM83.0718 19.4407L84.3108 21.0108L84.3235 21.0007L84.3362 20.9904L83.0718 19.4407ZM83.5319 18.8344L83.6417 16.8374L82.254 16.7611L81.6986 18.0351L83.5319 18.8344ZM87.8209 19.0702L89.7744 19.4989L90.2784 17.2023L87.9307 17.0732L87.8209 19.0702ZM86.6441 21.3784L88.1114 22.7375L88.1171 22.7313L86.6441 21.3784ZM84.372 22.807L85.0158 24.7005L85.0219 24.6984L84.372 22.807ZM81.2861 21.1806C80.1442 21.1178 79.2878 20.8526 78.6418 20.4647L76.5825 23.8939C77.8975 24.6835 79.4172 25.0839 81.0666 25.1745L81.2861 21.1806ZM78.6533 20.4716C78.0128 20.0811 77.5468 19.5636 77.2239 18.8813L73.6084 20.5925C74.2644 21.9784 75.2624 23.0891 76.571 23.8869L78.6533 20.4716ZM77.2296 18.8935C76.913 18.2126 76.7406 17.3302 76.804 16.177L72.8101 15.9574C72.7188 17.6182 72.9525 19.1822 73.6027 20.5803L77.2296 18.8935ZM76.804 16.177C76.8633 15.0991 77.1254 14.2677 77.5241 13.6166L74.1131 11.5275C73.3116 12.8361 72.8993 14.3349 72.8101 15.9574L76.804 16.177ZM77.5241 13.6166C77.9288 12.956 78.4581 12.4726 79.1421 12.1338L77.3666 8.54938C76.0033 9.2247 74.9087 10.2283 74.1131 11.5275L77.5241 13.6166ZM79.1421 12.1338C79.8041 11.8058 80.6363 11.6305 81.7055 11.6893L81.925 7.69532C80.2937 7.60564 78.752 7.86316 77.3666 8.54938L79.1421 12.1338ZM81.7055 11.6893C82.4852 11.7322 83.1253 11.8883 83.6539 12.1248L85.2873 8.47357C84.2498 8.0094 83.1196 7.76099 81.925 7.69532L81.7055 11.6893ZM83.6539 12.1248C84.1856 12.3627 84.6042 12.6755 84.9388 13.0603L87.9573 10.4357C87.2215 9.58943 86.3218 8.93635 85.2873 8.47357L83.6539 12.1248ZM84.9452 13.0676C85.2786 13.4473 85.5462 13.92 85.7315 14.5203L89.5536 13.3407C89.2172 12.2507 88.6886 11.2684 87.9509 10.4284L84.9452 13.0676ZM85.7315 14.5203C85.9114 15.1033 85.9975 15.8033 85.9512 16.6457L89.9451 16.8653C90.013 15.6313 89.8953 14.448 89.5536 13.3407L85.7315 14.5203ZM85.9512 16.6457L85.8913 17.735L89.8853 17.9546L89.9451 16.8653L85.9512 16.6457ZM87.9981 15.8478L76.3225 15.2059L76.1029 19.1999L87.7785 19.8418L87.9981 15.8478ZM78.2097 17.3127L78.3519 14.7257L74.358 14.5061L74.2157 17.0931L78.2097 17.3127ZM76.2452 16.6129L83.5977 17.0171L83.8173 13.0231L76.4647 12.6189L76.2452 16.6129ZM85.7059 15.0996C85.7344 14.384 85.5828 13.6651 85.1996 13.0087L81.7452 15.0255C81.7297 14.9989 81.7185 14.9697 81.7127 14.9446C81.7071 14.921 81.71 14.9169 81.7091 14.9406L85.7059 15.0996ZM85.2223 13.0487C84.8769 12.4245 84.3809 11.9271 83.7728 11.5742L81.7652 15.0339C81.7708 15.0372 81.7624 15.0329 81.7486 15.0189C81.7346 15.0047 81.7258 14.9914 81.7225 14.9854L85.2223 13.0487ZM83.8106 11.5967C83.1974 11.2227 82.5248 11.0401 81.8457 11.0028L81.6261 14.9967C81.6815 14.9998 81.7115 15.0072 81.7226 15.0105C81.7327 15.0134 81.7323 15.0144 81.7275 15.0115L83.8106 11.5967ZM81.8457 11.0028C81.1665 10.9654 80.4915 11.0786 79.8547 11.3652L81.4964 15.0128C81.5131 15.0053 81.5451 14.9923 81.6261 14.9967L81.8457 11.0028ZM79.8807 11.3537C79.2522 11.626 78.707 12.0423 78.2836 12.5969L81.4628 15.0244C81.4637 15.0233 81.4632 15.0241 81.4612 15.026C81.4593 15.028 81.4571 15.0299 81.4551 15.0314C81.4531 15.033 81.4525 15.0332 81.4543 15.0322C81.456 15.0312 81.4611 15.0283 81.4705 15.0242L79.8807 11.3537ZM78.267 12.619C77.8173 13.2251 77.5876 13.9163 77.5278 14.6206L81.5134 14.9593C81.5162 14.9263 81.5204 14.9223 81.5147 14.938C81.512 14.9455 81.5077 14.9558 81.5012 14.9678C81.4948 14.9799 81.4874 14.9916 81.4794 15.0023L78.267 12.619ZM77.5236 14.6802L77.3702 17.4714L81.3642 17.691L81.5176 14.8997L77.5236 14.6802ZM77.3702 17.4714C77.3313 18.1779 77.443 18.891 77.7563 19.5635L81.3822 17.8745C81.3799 17.8696 81.3568 17.8241 81.3642 17.691L77.3702 17.4714ZM77.7563 19.5635C78.076 20.2498 78.5698 20.8098 79.2011 21.2164L81.367 17.8536C81.3612 17.8498 81.3598 17.8484 81.3614 17.8498C81.3632 17.8513 81.3666 17.8545 81.3707 17.8592C81.3749 17.864 81.3783 17.8686 81.3807 17.8723C81.3831 17.876 81.3834 17.8771 81.3822 17.8745L77.7563 19.5635ZM79.2011 21.2164C79.8711 21.648 80.6173 21.838 81.3502 21.8783L81.5698 17.8844C81.3722 17.8735 81.3345 17.8327 81.367 17.8536L79.2011 21.2164ZM81.3502 21.8783C81.8606 21.9064 82.3807 21.863 82.8921 21.7197L81.8129 17.868C81.781 17.8769 81.7061 17.8919 81.5698 17.8844L81.3502 21.8783ZM82.8798 21.7231C83.386 21.5847 83.8747 21.3549 84.3108 21.0108L81.8329 17.8707C81.8395 17.8655 81.8454 17.8614 81.8503 17.8584C81.8551 17.8553 81.8582 17.8537 81.859 17.8533C81.8609 17.8524 81.851 17.8575 81.8251 17.8646L82.8798 21.7231ZM84.3362 20.9904C84.7847 20.6245 85.1335 20.1654 85.3653 19.6337L81.6986 18.0351C81.7082 18.013 81.7236 17.9851 81.7456 17.9562C81.7675 17.9273 81.7898 17.9055 81.8075 17.8911L84.3362 20.9904ZM83.4222 20.8314L87.7111 21.0672L87.9307 17.0732L83.6417 16.8374L83.4222 20.8314ZM85.8674 18.6415C85.7409 19.2179 85.5045 19.6625 85.1712 20.0255L88.1171 22.7313C88.958 21.8159 89.5061 20.7217 89.7744 19.4989L85.8674 18.6415ZM85.1769 20.0193C84.8434 20.3793 84.3809 20.6891 83.7221 20.9155L85.0219 24.6984C86.219 24.2871 87.2713 23.6445 88.1114 22.7375L85.1769 20.0193ZM83.7281 20.9134C83.0994 21.1272 82.2989 21.2363 81.2861 21.1806L81.0666 25.1745C82.4705 25.2517 83.8005 25.1137 85.0158 24.7005L83.7281 20.9134ZM94.1346 10.5403L95.9882 9.78929L95.5117 8.61295L94.2444 8.54328L94.1346 10.5403ZM95.8181 14.6958L93.9645 15.4467L95.5189 19.2835L97.5585 15.6812L95.8181 14.6958ZM98.0491 10.7555L98.1589 8.75848L96.9201 8.69037L96.3087 9.77005L98.0491 10.7555ZM102.713 11.0118L104.42 12.0526L106.16 9.19832L102.822 9.01485L102.713 11.0118ZM98.8472 17.3547L97.1393 16.3139L96.5675 17.2522L97.0528 18.238L98.8472 17.3547ZM102.164 24.0924L102.054 26.0893L105.469 26.2771L103.959 23.209L102.164 24.0924ZM97.5348 23.8379L95.7207 24.68L96.2262 25.7689L97.425 25.8348L97.5348 23.8379ZM95.5505 19.5634L97.3646 18.7213L95.7592 15.263L93.8265 18.5496L95.5505 19.5634ZM93.1777 23.5983L93.0679 25.5953L94.2843 25.6622L94.9017 24.6122L93.1777 23.5983ZM88.4803 23.3401L86.7978 22.2587L84.9404 25.1485L88.3705 25.3371L88.4803 23.3401ZM92.5499 17.0085L94.2323 18.0899L94.8264 17.1656L94.3649 16.1685L92.5499 17.0085ZM89.4371 10.282L89.5469 8.28504L86.2247 8.1024L87.6221 11.122L89.4371 10.282ZM92.2809 11.2912L93.9645 15.4467L97.6718 13.9448L95.9882 9.78929L92.2809 11.2912ZM97.5585 15.6812L99.7895 11.7409L96.3087 9.77005L94.0777 13.7103L97.5585 15.6812ZM97.9394 12.7524L102.603 13.0088L102.822 9.01485L98.1589 8.75848L97.9394 12.7524ZM101.005 9.97105L97.1393 16.3139L100.555 18.3955L104.42 12.0526L101.005 9.97105ZM97.0528 18.238L100.37 24.9757L103.959 23.209L100.642 16.4713L97.0528 18.238ZM102.274 22.0954L97.6446 21.8409L97.425 25.8348L102.054 26.0893L102.274 22.0954ZM99.3489 22.9957L97.3646 18.7213L93.7365 20.4055L95.7207 24.68L99.3489 22.9957ZM93.8265 18.5496L91.4537 22.5845L94.9017 24.6122L97.2745 20.5772L93.8265 18.5496ZM93.2875 21.6014L88.5901 21.3431L88.3705 25.3371L93.0679 25.5953L93.2875 21.6014ZM90.1627 24.4215L94.2323 18.0899L90.8674 15.9271L86.7978 22.2587L90.1627 24.4215ZM94.3649 16.1685L91.2522 9.44208L87.6221 11.122L90.7348 17.8484L94.3649 16.1685ZM89.3274 12.279L94.0248 12.5372L94.2444 8.54328L89.5469 8.28504L89.3274 12.279ZM105.908 23.6921L104.834 25.3794L104.841 25.384L105.908 23.6921ZM103.715 21.1987L101.899 22.0379L101.901 22.0421L103.715 21.1987ZM104.102 14.144L105.812 15.1811L105.815 15.1771L104.102 14.144ZM106.556 11.9059L107.43 13.7045L107.438 13.7008L106.556 11.9059ZM113.534 12.1359L112.547 13.8754L112.553 13.879L112.559 13.8825L113.534 12.1359ZM115.613 14.2134L113.852 15.1606L113.854 15.1659L115.613 14.2134ZM116.233 17.2179L116.123 19.2149L118.13 19.3252L118.231 17.3177L116.233 17.2179ZM111.876 16.9784L109.877 17.0498L109.943 18.8751L111.766 18.9754L111.876 16.9784ZM111.367 15.3798L109.813 16.6395L109.823 16.6522L109.834 16.6647L111.367 15.3798ZM109.028 15.0635L110.148 16.7204L110.158 16.7138L110.167 16.7072L109.028 15.0635ZM108.255 16.0879L110.096 16.87L110.098 16.863L108.255 16.0879ZM108.059 19.6535L106.141 20.2218L106.143 20.2291L108.059 19.6535ZM108.715 20.7566L107.402 22.2655L107.411 22.2731L107.42 22.2807L108.715 20.7566ZM110.7 20.9767L111.628 22.7485L111.642 22.7413L111.656 22.7338L110.7 20.9767ZM111.386 20.2974L109.678 19.2576L109.671 19.2689L111.386 20.2974ZM111.756 19.1569L111.866 17.1599L110.013 17.0581L109.773 18.8981L111.756 19.1569ZM116.113 19.3964L118.109 19.5357L118.25 17.5109L116.223 17.3994L116.113 19.3964ZM115.156 22.3654L116.812 23.487L116.816 23.4821L115.156 22.3654ZM112.878 24.2204L112.087 22.3832L112.083 22.3852L112.878 24.2204ZM109.613 22.7379C108.458 22.6743 107.607 22.3991 106.974 22.0003L104.841 25.384C106.166 26.2195 107.712 26.6394 109.394 26.7318L109.613 22.7379ZM106.982 22.0049C106.321 21.5844 105.848 21.0443 105.528 20.3552L101.901 22.0421C102.548 23.432 103.537 24.5542 104.834 25.3794L106.982 22.0049ZM105.53 20.3595C105.205 19.6565 105.039 18.7988 105.097 17.7324L101.103 17.5128C101.015 19.1242 101.258 20.6506 101.899 22.0379L105.53 20.3595ZM105.097 17.7324C105.156 16.6657 105.415 15.8363 105.812 15.1811L102.392 13.1069C101.601 14.4121 101.192 15.9018 101.103 17.5128L105.097 17.7324ZM105.815 15.1771C106.209 14.5237 106.735 14.0427 107.43 13.7045L105.681 10.1074C104.295 10.7815 103.185 11.7925 102.39 13.1108L105.815 15.1771ZM107.438 13.7008C108.109 13.3708 108.983 13.1888 110.135 13.2522L110.354 9.25821C108.67 9.1656 107.084 9.41746 105.673 10.1111L107.438 13.7008ZM110.135 13.2522C111.177 13.3095 111.959 13.5418 112.547 13.8754L114.521 10.3965C113.288 9.69672 111.876 9.34187 110.354 9.25821L110.135 13.2522ZM112.559 13.8825C113.163 14.2192 113.573 14.6429 113.852 15.1606L117.375 13.2663C116.713 12.0366 115.738 11.0753 114.508 10.3893L112.559 13.8825ZM113.854 15.1659C114.125 15.6654 114.277 16.2928 114.236 17.1181L118.231 17.3177C118.303 15.8731 118.041 14.4975 117.372 13.261L113.854 15.1659ZM116.343 15.2209L111.986 14.9814L111.766 18.9754L116.123 19.2149L116.343 15.2209ZM113.875 16.9069C113.841 15.9494 113.597 14.9269 112.899 14.0949L109.834 16.6647C109.766 16.5844 109.862 16.6275 109.877 17.0498L113.875 16.9069ZM112.92 14.1201C112.23 13.2693 111.274 12.8254 110.23 12.768L110.01 16.762C110.036 16.7634 110.002 16.7652 109.938 16.7339C109.909 16.7193 109.881 16.7013 109.857 16.682C109.833 16.6629 109.819 16.6469 109.813 16.6395L112.92 14.1201ZM110.23 12.768C109.402 12.7225 108.594 12.931 107.889 13.4197L110.167 16.7072C110.147 16.7217 110.111 16.7402 110.068 16.752C110.026 16.7635 110.003 16.7616 110.01 16.762L110.23 12.768ZM107.908 13.4066C107.18 13.8987 106.711 14.5987 106.411 15.3129L110.098 16.863C110.144 16.7551 110.179 16.7029 110.192 16.6864C110.202 16.6722 110.19 16.692 110.148 16.7204L107.908 13.4066ZM106.414 15.3058C106.098 16.0508 105.952 16.8871 105.905 17.7427L109.899 17.9622C109.93 17.3881 110.02 17.0481 110.096 16.87L106.414 15.3058ZM105.905 17.7427C105.858 18.5995 105.911 19.4458 106.141 20.2218L109.976 19.0853C109.918 18.8894 109.867 18.535 109.899 17.9622L105.905 17.7427ZM106.143 20.2291C106.365 20.9677 106.752 21.7 107.402 22.2655L110.028 19.2477C110.091 19.303 110.041 19.2999 109.974 19.078L106.143 20.2291ZM107.42 22.2807C108.068 22.8311 108.843 23.1166 109.658 23.1614L109.878 19.1674C109.865 19.1668 109.884 19.1664 109.921 19.1806C109.959 19.1953 109.99 19.2158 110.01 19.2325L107.42 22.2807ZM109.658 23.1614C110.322 23.1979 110.998 23.0785 111.628 22.7485L109.773 19.2049C109.806 19.1874 109.839 19.1765 109.866 19.1711C109.891 19.166 109.898 19.1685 109.878 19.1674L109.658 23.1614ZM111.656 22.7338C112.283 22.3926 112.76 21.8959 113.102 21.3259L109.671 19.2689C109.658 19.291 109.656 19.2884 109.671 19.2733C109.688 19.2571 109.713 19.237 109.745 19.2195L111.656 22.7338ZM113.095 21.3372C113.46 20.7367 113.654 20.0741 113.74 19.4157L109.773 18.8981C109.741 19.1437 109.688 19.2414 109.678 19.2576L113.095 21.3372ZM111.647 21.1539L116.004 21.3934L116.223 17.3994L111.866 17.1599L111.647 21.1539ZM114.118 19.2571C114.059 20.1131 113.831 20.7533 113.497 21.2487L116.816 23.4821C117.598 22.3204 118.008 20.9812 118.109 19.5357L114.118 19.2571ZM113.5 21.2438C113.169 21.7332 112.718 22.112 112.087 22.3832L113.668 26.0576C114.961 25.5013 116.029 24.6435 116.812 23.487L113.5 21.2438ZM112.083 22.3852C111.473 22.6494 110.671 22.796 109.613 22.7379L109.394 26.7318C110.923 26.8159 112.371 26.6195 113.673 26.0557L112.083 22.3852ZM122.854 17.855L120.858 17.719L120.858 17.7321L120.857 17.7452L122.854 17.855ZM122.45 25.2075L122.34 27.2045L124.337 27.3143L124.447 25.3173L122.45 25.2075ZM117.752 24.9493L115.755 24.8395L115.645 26.8365L117.642 26.9463L117.752 24.9493ZM118.71 7.52107L118.82 5.52409L116.823 5.4143L116.713 7.41129L118.71 7.52107ZM123.237 7.76995L125.234 7.87974L125.344 5.88275L123.347 5.77297L123.237 7.76995ZM122.861 14.6119L120.864 14.5021L120.755 16.4991L122.752 16.6089L122.861 14.6119ZM122.998 14.6194L122.888 16.6164L124.3 16.694L124.844 15.3889L122.998 14.6194ZM124.577 12.7516L125.606 14.4663L125.616 14.4604L124.577 12.7516ZM129.466 12.9435L128.324 14.5857L128.33 14.5899L129.466 12.9435ZM130.962 14.767L129.131 15.5731L129.136 15.5843L130.962 14.767ZM131.384 17.3338L129.388 17.2121L129.387 17.224L131.384 17.3338ZM130.925 25.6735L130.816 27.6705L132.813 27.7803L132.922 25.7833L130.925 25.6735ZM126.228 25.4153L124.231 25.3055L124.121 27.3025L126.118 27.4122L126.228 25.4153ZM126.632 18.0627L124.636 17.9354L124.636 17.9442L124.635 17.9529L126.632 18.0627ZM126.231 16.5128L124.657 17.7469L124.662 17.7537L124.668 17.7604L126.231 16.5128ZM123.856 16.0835L124.763 17.866L124.774 17.8604L123.856 16.0835ZM123.153 16.7618L121.423 15.758L121.419 15.7643L121.416 15.7705L123.153 16.7618ZM120.857 17.7452L120.453 25.0978L124.447 25.3173L124.851 17.9648L120.857 17.7452ZM122.559 23.2106L117.862 22.9523L117.642 26.9463L122.34 27.2045L122.559 23.2106ZM119.749 25.0591L120.707 7.63085L116.713 7.41129L115.755 24.8395L119.749 25.0591ZM118.6 9.51805L123.128 9.76694L123.347 5.77297L118.82 5.52409L118.6 9.51805ZM121.241 7.66017L120.864 14.5021L124.858 14.7217L125.234 7.87974L121.241 7.66017ZM122.752 16.6089L122.888 16.6164L123.107 12.6224L122.971 12.6149L122.752 16.6089ZM124.844 15.3889C125.032 14.9373 125.286 14.6588 125.606 14.4663L123.547 11.0368C122.444 11.6992 121.645 12.6659 121.151 13.8499L124.844 15.3889ZM125.616 14.4604C125.931 14.2689 126.355 14.1439 126.982 14.1784L127.202 10.1844C125.9 10.1128 124.648 10.3679 123.538 11.0427L125.616 14.4604ZM126.982 14.1784C127.596 14.2121 128.016 14.3713 128.324 14.5856L130.607 11.3013C129.6 10.6012 128.438 10.2523 127.202 10.1844L126.982 14.1784ZM128.33 14.5899C128.68 14.831 128.942 15.1441 129.131 15.5731L132.792 13.9609C132.313 12.8737 131.578 11.9711 130.601 11.2971L128.33 14.5899ZM129.136 15.5843C129.325 16.0069 129.429 16.5333 129.388 17.2121L133.38 17.4555C133.455 16.2287 133.277 15.0439 132.787 13.9497L129.136 15.5843ZM129.387 17.224L128.928 25.5637L132.922 25.7833L133.381 17.4436L129.387 17.224ZM131.035 23.6765L126.338 23.4183L126.118 27.4122L130.816 27.6705L131.035 23.6765ZM128.225 25.525L128.629 18.1725L124.635 17.9529L124.231 25.3055L128.225 25.525ZM128.628 18.19C128.691 17.2044 128.499 16.1481 127.794 15.2651L124.668 17.7604C124.653 17.7415 124.641 17.7227 124.634 17.707C124.626 17.6918 124.625 17.6852 124.627 17.6917C124.63 17.7066 124.646 17.78 124.636 17.9354L128.628 18.19ZM127.805 15.2787C127.067 14.3384 126.019 13.9433 124.984 13.8864L124.764 17.8804C124.863 17.8858 124.869 17.9014 124.823 17.8798C124.799 17.8689 124.769 17.8514 124.736 17.8258C124.704 17.8 124.677 17.7724 124.657 17.7469L127.805 15.2787ZM124.984 13.8864C124.296 13.8486 123.594 13.9678 122.938 14.3065L124.774 17.8604C124.763 17.8659 124.752 17.8705 124.742 17.8741C124.732 17.8776 124.724 17.8794 124.72 17.8802C124.711 17.8819 124.724 17.8781 124.764 17.8804L124.984 13.8864ZM122.949 14.3009C122.289 14.6367 121.779 15.1449 121.423 15.758L124.883 17.7657C124.885 17.762 124.875 17.779 124.849 17.8041C124.823 17.8298 124.792 17.8514 124.763 17.866L122.949 14.3009ZM121.416 15.7705C121.063 16.3892 120.903 17.063 120.858 17.719L124.849 17.9911C124.863 17.7853 124.903 17.7303 124.89 17.7531L121.416 15.7705ZM134.685 25.6753L133.784 27.4609L133.794 27.4657L133.803 27.4704L134.685 25.6753ZM133.257 24.3335L131.52 25.3255L133.257 24.3335ZM133.297 20.3496L135.047 21.3172L135.051 21.3096L133.297 20.3496ZM134.386 19.1548L135.486 20.8252L135.486 20.8252L134.386 19.1548ZM135.95 18.4982L135.497 16.5501L135.492 16.5514L135.95 18.4982ZM137.858 18.2701L137.899 20.2697L137.903 20.2696L137.858 18.2701ZM139.631 18.1627L139.875 20.1477L139.885 20.1465L139.895 20.1452L139.631 18.1627ZM140.62 17.8672L141.723 19.5357L141.738 19.5257L141.753 19.5154L140.62 17.8672ZM140.604 16.4409L139.374 18.0175L140.604 16.4409ZM138.501 16.3508L139.549 18.0541L139.556 18.0498L138.501 16.3508ZM137.95 17.2168L137.84 19.2138L139.576 19.3092L139.912 17.604L137.95 17.2168ZM133.627 16.9791L131.643 16.7273L131.372 18.8582L133.517 18.9761L133.627 16.9791ZM134.505 14.8252L132.909 13.62L132.907 13.623L134.505 14.8252ZM136.577 13.3173L137.318 15.175L137.328 15.171L136.577 13.3173ZM142.362 13.3537L141.687 15.2364L141.7 15.241L142.362 13.3537ZM144.209 14.3686L142.923 15.9003L142.934 15.9093L144.209 14.3686ZM145.326 15.7957L143.505 16.6221L143.51 16.634L143.516 16.6458L145.326 15.7957ZM145.158 26.4559L145.048 28.4529L147.045 28.5627L147.155 26.5657L145.158 26.4559ZM140.767 26.2145L138.77 26.1048L138.66 28.1017L140.657 28.2115L140.767 26.2145ZM140.868 24.3764L142.865 24.4862L142.975 22.4892L140.978 22.3794L140.868 24.3764ZM140.766 24.3708L140.876 22.3738L139.679 22.308L139.057 23.3321L140.766 24.3708ZM139.748 25.5013L138.583 23.8754L138.577 23.8798L138.571 23.8842L139.748 25.5013ZM138.444 26.0868L138.001 24.1365L137.995 24.1379L138.444 26.0868ZM139.586 23.1622L138.845 21.3046L138.832 21.3098L139.586 23.1622ZM140.396 22.5665L138.835 21.3164L140.396 22.5665ZM140.809 20.4809L142.806 20.5907L142.97 17.6161L140.155 18.5911L140.809 20.4809ZM140.401 20.6036L139.897 18.6682L139.886 18.6712L139.874 18.6744L140.401 20.6036ZM139.952 20.7069L139.574 18.7429L139.565 18.7446L139.557 18.7463L139.952 20.7069ZM139.452 20.7904L139.18 18.8089L139.168 18.8107L139.452 20.7904ZM138.911 20.8546L138.72 18.8636L138.711 18.8646L138.911 20.8546ZM138.002 21.0863L138.868 22.889L138.876 22.8853L138.883 22.8816L138.002 21.0863ZM137.465 21.5262L135.815 20.3973L135.809 20.4048L135.804 20.4123L137.465 21.5262ZM137.607 22.9851L138.899 21.4579L137.607 22.9851ZM136.985 24.2085C136.368 24.1745 135.909 24.0484 135.567 23.8802L133.803 27.4704C134.713 27.9174 135.715 28.1447 136.766 28.2024L136.985 24.2085ZM135.586 23.8898C135.303 23.7467 135.123 23.5693 134.993 23.3416L131.52 25.3255C132.054 26.261 132.827 26.9781 133.784 27.4609L135.586 23.8898ZM134.993 23.3416C134.902 23.1808 134.794 22.8652 134.827 22.2689L130.833 22.0493C130.77 23.189 130.948 24.3231 131.52 25.3255L134.993 23.3416ZM134.827 22.2689C134.854 21.7749 134.955 21.4828 135.047 21.3172L131.546 19.382C131.094 20.1994 130.884 21.1137 130.833 22.0493L134.827 22.2689ZM135.051 21.3096C135.173 21.0869 135.316 20.9373 135.486 20.8252L133.287 17.4844C132.548 17.971 131.964 18.6179 131.542 19.3896L135.051 21.3096ZM135.486 20.8252C135.725 20.6683 136.024 20.5355 136.409 20.445L135.492 16.5514C134.701 16.7376 133.958 17.0426 133.287 17.4844L135.486 20.8252ZM136.403 20.4462C136.848 20.3428 137.345 20.2811 137.899 20.2697L137.817 16.2706C137.015 16.287 136.24 16.3774 135.497 16.5502L136.403 20.4462ZM137.903 20.2696C138.669 20.2524 139.334 20.2145 139.875 20.1477L139.386 16.1778C139.033 16.2212 138.517 16.2548 137.813 16.2706L137.903 20.2696ZM139.895 20.1452C140.436 20.073 141.132 19.9262 141.723 19.5357L139.517 16.1986C139.576 16.1598 139.62 16.1391 139.639 16.1307C139.659 16.1221 139.662 16.1221 139.645 16.1272C139.607 16.1385 139.52 16.1598 139.366 16.1803L139.895 20.1452ZM141.753 19.5154C142.468 19.0239 142.9 18.2612 142.948 17.3891L138.954 17.1696C138.962 17.0228 139.004 16.8299 139.115 16.6321C139.227 16.4345 139.369 16.3002 139.487 16.2189L141.753 19.5154ZM142.948 17.3891L142.95 17.3551L138.956 17.1355L138.954 17.1696L142.948 17.3891ZM142.95 17.3551C143.002 16.4155 142.644 15.4954 141.835 14.8642L139.374 18.0175C139.26 17.9285 139.131 17.7838 139.045 17.5838C138.96 17.3891 138.951 17.2238 138.956 17.1355L142.95 17.3551ZM141.835 14.8642C141.181 14.3541 140.425 14.1549 139.725 14.1164L139.505 18.1103C139.564 18.1135 139.57 18.1205 139.54 18.1107C139.507 18.0998 139.445 18.0729 139.374 18.0175L141.835 14.8642ZM139.725 14.1164C138.987 14.0758 138.179 14.1966 137.446 14.6519L139.556 18.0498C139.524 18.0697 139.494 18.0841 139.469 18.0941C139.444 18.104 139.426 18.1085 139.418 18.1103C139.402 18.1136 139.427 18.106 139.505 18.1103L139.725 14.1164ZM137.453 14.6476C136.595 15.1757 136.151 16.0028 135.988 16.8296L139.912 17.604C139.912 17.6027 139.899 17.6732 139.834 17.7745C139.765 17.883 139.666 17.9826 139.549 18.0541L137.453 14.6476ZM138.06 15.2198L133.737 14.9821L133.517 18.9761L137.84 19.2138L138.06 15.2198ZM135.611 17.2309C135.667 16.7889 135.825 16.3978 136.103 16.0274L132.907 13.623C132.215 14.5423 131.788 15.587 131.643 16.7273L135.611 17.2309ZM136.101 16.0305C136.336 15.7197 136.706 15.4189 137.318 15.175L135.836 11.4597C134.667 11.926 133.656 12.6304 132.909 13.62L136.101 16.0305ZM137.328 15.171C137.867 14.9527 138.648 14.8196 139.751 14.8803L139.971 10.8864C138.476 10.8042 137.068 10.9605 135.826 11.4637L137.328 15.171ZM139.751 14.8803C140.533 14.9233 141.171 15.0513 141.687 15.2363L143.037 11.4711C142.091 11.1319 141.061 10.9463 139.971 10.8864L139.751 14.8803ZM141.7 15.241C142.245 15.4321 142.639 15.6613 142.923 15.9003L145.495 12.8369C144.779 12.2355 143.941 11.7882 143.024 11.4664L141.7 15.241ZM142.934 15.9093C143.225 16.1503 143.399 16.3889 143.505 16.6221L147.147 14.9693C146.766 14.1286 146.195 13.4159 145.485 12.8279L142.934 15.9093ZM143.516 16.6458C143.62 16.8669 143.669 17.1051 143.653 17.3938L147.647 17.6133C147.698 16.6879 147.532 15.7875 147.136 14.9456L143.516 16.6458ZM143.653 17.3938L143.161 26.3461L147.155 26.5657L147.647 17.6133L143.653 17.3938ZM145.268 24.4589L140.877 24.2176L140.657 28.2115L145.048 28.4529L145.268 24.4589ZM142.764 26.3243L142.865 24.4862L138.871 24.2666L138.77 26.1048L142.764 26.3243ZM140.978 22.3794L140.876 22.3738L140.656 26.3678L140.758 26.3734L140.978 22.3794ZM139.057 23.3321C138.888 23.61 138.724 23.7745 138.583 23.8754L140.913 27.1271C141.554 26.6679 142.068 26.0786 142.475 25.4095L139.057 23.3321ZM138.571 23.8842C138.414 23.9982 138.231 24.0841 138.001 24.1365L138.887 28.0371C139.624 27.8696 140.311 27.5651 140.925 27.1183L138.571 23.8842ZM137.995 24.1379C137.726 24.2 137.394 24.2309 136.985 24.2085L136.766 28.2024C137.492 28.2424 138.205 28.1942 138.893 28.0357L137.995 24.1379ZM138.46 25.3252C139.102 25.3605 139.737 25.2603 140.34 25.0145L138.832 21.3098C138.796 21.3247 138.753 21.3352 138.68 21.3312L138.46 25.3252ZM140.328 25.0197C140.966 24.7648 141.521 24.3606 141.957 23.8166L138.835 21.3164C138.834 21.3172 138.835 21.3158 138.838 21.3131C138.841 21.3104 138.844 21.3075 138.848 21.3048C138.851 21.3022 138.854 21.3008 138.854 21.3006C138.854 21.3004 138.852 21.3019 138.845 21.3046L140.328 25.0197ZM141.957 23.8166C142.472 23.1734 142.705 22.4235 142.746 21.68L138.752 21.4604C138.751 21.4924 138.747 21.4837 138.76 21.4483C138.773 21.4103 138.798 21.3624 138.835 21.3164L141.957 23.8166ZM142.746 21.68L142.806 20.5907L138.812 20.3711L138.752 21.4604L142.746 21.68ZM140.155 18.5911C140.081 18.6164 139.996 18.6424 139.897 18.6682L140.905 22.539C141.095 22.4896 141.282 22.4338 141.464 22.3708L140.155 18.5911ZM139.874 18.6744C139.791 18.6971 139.691 18.7203 139.574 18.7429L140.33 22.6709C140.534 22.6316 140.734 22.5859 140.929 22.5328L139.874 18.6744ZM139.557 18.7463C139.447 18.7684 139.322 18.7895 139.18 18.809L139.724 22.7719C139.937 22.7426 140.146 22.7081 140.347 22.6676L139.557 18.7463ZM139.168 18.8107C139.03 18.8305 138.881 18.8483 138.72 18.8637L139.101 22.8455C139.319 22.8247 139.53 22.7997 139.736 22.7702L139.168 18.8107ZM138.711 18.8646C138.191 18.9168 137.638 19.0368 137.121 19.2909L138.883 22.8816C138.86 22.8928 138.863 22.8882 138.903 22.8781C138.943 22.868 139.01 22.8547 139.111 22.8446L138.711 18.8646ZM137.136 19.2836C136.644 19.5198 136.17 19.8778 135.815 20.3973L139.116 22.6552C139.009 22.8127 138.892 22.8773 138.868 22.889L137.136 19.2836ZM135.804 20.4123C135.472 20.9087 135.304 21.4624 135.273 22.0203L139.267 22.2398C139.265 22.2857 139.255 22.3497 139.231 22.4246C139.207 22.5004 139.171 22.5738 139.127 22.6402L135.804 20.4123ZM135.273 22.0203C135.224 22.9131 135.523 23.8419 136.316 24.5122L138.899 21.4579C139.017 21.5577 139.129 21.7033 139.2 21.8826C139.267 22.0535 139.27 22.1868 139.267 22.2398L135.273 22.0203ZM136.316 24.5122C136.966 25.0621 137.735 25.2853 138.46 25.3252L138.68 21.3312C138.642 21.3291 138.655 21.3252 138.703 21.3421C138.754 21.3605 138.826 21.3966 138.899 21.4579L136.316 24.5122ZM152.504 19.485L150.509 19.349L150.508 19.3621L150.507 19.3752L152.504 19.485ZM152.1 26.8376L151.99 28.8345L153.987 28.9443L154.097 26.9473L152.1 26.8376ZM147.403 26.5793L145.406 26.4695L145.296 28.4665L147.293 28.5763L147.403 26.5793ZM148.121 13.5081L148.231 11.5112L146.234 11.4014L146.124 13.3984L148.121 13.5081ZM152.58 13.7533L154.577 13.8631L154.687 11.8661L152.69 11.7563L152.58 13.7533ZM152.444 16.2382L150.447 16.1284L150.337 18.1254L152.334 18.2352L152.444 16.2382ZM152.58 16.2457L152.47 18.2426L153.897 18.3211L154.434 16.9965L152.58 16.2457ZM154.185 14.3792L153.184 12.6475L153.178 12.6512L154.185 14.3792ZM159.116 14.582L157.964 16.2173L157.972 16.2229L157.98 16.2284L159.116 14.582ZM160.612 16.4055L158.781 17.2117L158.786 17.2228L160.612 16.4055ZM161.034 18.9638L159.038 18.8421L159.037 18.8541L161.034 18.9638ZM160.576 27.3035L160.466 29.3005L162.463 29.4103L162.573 27.4133L160.576 27.3035ZM155.879 27.0453L153.882 26.9355L153.772 28.9325L155.769 29.0423L155.879 27.0453ZM156.283 19.6927L154.287 19.5654L154.286 19.5742L154.286 19.583L156.283 19.6927ZM155.873 18.1423L154.31 19.39L154.315 19.3966L154.32 19.4032L155.873 18.1423ZM153.498 17.713L154.405 19.4956L154.416 19.49L153.498 17.713ZM152.803 18.3918L154.54 19.3831L154.544 19.3768L154.548 19.3704L152.803 18.3918ZM150.507 19.3752L150.103 26.7278L154.097 26.9473L154.501 19.5948L150.507 19.3752ZM152.21 24.8406L147.512 24.5823L147.293 28.5763L151.99 28.8345L152.21 24.8406ZM149.4 26.6891L150.118 13.6179L146.124 13.3984L145.406 26.4695L149.4 26.6891ZM148.011 15.5051L152.471 15.7503L152.69 11.7563L148.231 11.5112L148.011 15.5051ZM150.583 13.6435L150.447 16.1284L154.441 16.348L154.577 13.8631L150.583 13.6435ZM152.334 18.2352L152.47 18.2426L152.69 14.2487L152.554 14.2412L152.334 18.2352ZM154.434 16.9965C154.601 16.5842 154.843 16.3105 155.192 16.1073L153.178 12.6512C152.045 13.3112 151.218 14.2817 150.726 15.4948L154.434 16.9965ZM155.185 16.1109C155.558 15.8958 156.016 15.7745 156.633 15.8084L156.852 11.8144C155.551 11.7429 154.305 12.0001 153.184 12.6475L155.185 16.1109ZM156.633 15.8084C157.241 15.8418 157.658 16.0014 157.964 16.2173L160.267 12.9468C159.259 12.2369 158.093 11.8826 156.852 11.8144L156.633 15.8084ZM157.98 16.2284C158.33 16.4695 158.592 16.7826 158.781 17.2117L162.442 15.5994C161.963 14.5122 161.229 13.6096 160.251 12.9357L157.98 16.2284ZM158.786 17.2228C158.976 17.6472 159.079 18.1711 159.038 18.8421L163.031 19.0856C163.105 17.8623 162.926 16.6807 162.437 15.5883L158.786 17.2228ZM159.037 18.8541L158.579 27.1937L162.573 27.4133L163.031 19.0736L159.037 18.8541ZM160.686 25.3065L155.988 25.0483L155.769 29.0423L160.466 29.3005L160.686 25.3065ZM157.876 27.1551L158.28 19.8025L154.286 19.583L153.882 26.9355L157.876 27.1551ZM158.279 19.82C158.342 18.8261 158.143 17.7646 157.425 16.8814L154.32 19.4032C154.306 19.385 154.294 19.3663 154.286 19.35C154.278 19.3341 154.276 19.3265 154.278 19.3314C154.281 19.3431 154.296 19.4131 154.287 19.5654L158.279 19.82ZM157.436 16.8947C156.703 15.9761 155.673 15.5735 154.634 15.5164L154.415 19.5104C154.503 19.5152 154.505 19.529 154.459 19.5075C154.436 19.4968 154.408 19.4803 154.378 19.4573C154.349 19.4342 154.326 19.4104 154.31 19.39L157.436 16.8947ZM154.634 15.5164C153.947 15.4786 153.24 15.595 152.58 15.9361L154.416 19.49C154.404 19.4961 154.392 19.501 154.382 19.5047C154.371 19.5083 154.364 19.51 154.36 19.5106C154.353 19.512 154.369 19.5079 154.415 19.5104L154.634 15.5164ZM152.591 15.9305C151.924 16.2698 151.411 16.7866 151.059 17.4133L154.548 19.3704C154.547 19.3725 154.533 19.3949 154.503 19.4248C154.471 19.4553 154.436 19.4795 154.405 19.4956L152.591 15.9305ZM151.066 17.4006C150.713 18.0193 150.554 18.693 150.509 19.349L154.5 19.6211C154.514 19.4154 154.554 19.3603 154.54 19.3831L151.066 17.4006ZM165.569 32.2043L166.412 30.3909L166.407 30.3882L165.569 32.2043ZM163.483 30.5532L161.848 31.7045L161.849 31.7063L163.483 30.5532ZM162.746 28.2764L162.856 26.2794L160.705 26.1611L160.746 28.3149L162.746 28.2764ZM167.273 28.5253L169.262 28.3118L169.08 26.6216L167.383 26.5283L167.273 28.5253ZM167.577 29.2162L166.131 30.598L166.131 30.598L167.577 29.2162ZM168.254 29.6205L168.889 27.7239L168.876 27.7196L168.863 27.7154L168.254 29.6205ZM170.749 29.4333L169.657 27.7573L169.646 27.7648L170.749 29.4333ZM171.562 25.6541L173.559 25.7639L173.669 23.7669L171.672 23.6571L171.562 25.6541ZM171.426 25.6466L171.536 23.6496L170.164 23.5742L169.602 24.8273L171.426 25.6466ZM170.581 26.7354L171.81 28.3134L171.817 28.3078L171.824 28.3021L170.581 26.7354ZM169.274 27.372L169.782 29.3066L169.792 29.3039L169.802 29.3012L169.274 27.372ZM165.101 26.7329L164.037 28.4259L164.042 28.4292L165.101 26.7329ZM163.342 24.5791L161.505 25.3695L161.509 25.3784L163.342 24.5791ZM163.789 17.0667L162.052 16.0754L162.047 16.0835L163.789 17.0667ZM165.815 15.0015L164.898 13.2237L164.893 13.2266L165.815 15.0015ZM170.004 14.8818L169.062 16.6462L169.07 16.6508L169.079 16.6552L170.004 14.8818ZM171.18 15.8427L169.607 17.0785L169.612 17.0845L169.617 17.0904L171.18 15.8427ZM171.862 17.1008L169.959 17.7152L170.381 19.0224L171.752 19.0978L171.862 17.1008ZM171.964 17.1064L171.854 19.1034L173.851 19.2132L173.961 17.2162L171.964 17.1064ZM172.089 14.8258L172.199 12.8288L170.202 12.719L170.092 14.716L172.089 14.8258ZM176.787 15.084L178.784 15.1938L178.894 13.1968L176.897 13.087L176.787 15.084ZM175.056 30.8907L173.518 29.6119L173.513 29.6182L173.507 29.6246L175.056 30.8907ZM172.558 32.5373L173.191 34.4347L172.558 32.5373ZM170.681 23.9839L171.82 25.6276L171.825 25.6247L170.681 23.9839ZM171.453 22.985L169.622 22.181L169.616 22.1937L171.453 22.985ZM171.634 19.6916L169.715 20.254L169.719 20.2682L169.723 20.2823L171.634 19.6916ZM170.978 18.5886L169.631 20.0674L169.646 20.081L169.661 20.0942L170.978 18.5886ZM168.765 18.467L169.938 20.0869L169.941 20.0845L168.765 18.467ZM168.009 19.4924L166.163 18.723L166.16 18.7296L166.157 18.7362L168.009 19.4924ZM167.827 22.8027L165.906 23.3588L165.91 23.3733L165.914 23.3878L167.827 22.8027ZM168.468 23.8708L167.142 25.3677L167.157 25.3814L167.173 25.3949L168.468 23.8708ZM169.018 30.9542C167.889 30.8921 167.039 30.6826 166.412 30.3909L164.725 34.0177C165.929 34.5778 167.306 34.8662 168.798 34.9482L169.018 30.9542ZM166.407 30.3882C165.751 30.0857 165.357 29.7407 165.117 29.4001L161.849 31.7063C162.569 32.7274 163.566 33.4831 164.731 34.0203L166.407 30.3882ZM165.118 29.402C164.878 29.0609 164.754 28.6912 164.746 28.2378L160.746 28.3149C160.77 29.5477 161.138 30.6959 161.848 31.7045L165.118 29.402ZM162.636 30.2734L167.163 30.5222L167.383 26.5283L162.856 26.2794L162.636 30.2734ZM165.285 28.7387C165.355 29.3971 165.614 30.0574 166.131 30.598L169.023 27.8345C169.099 27.9146 169.161 28.0079 169.203 28.1042C169.244 28.198 169.258 28.2727 169.262 28.3118L165.285 28.7387ZM166.131 30.598C166.572 31.0595 167.104 31.3527 167.646 31.5256L168.863 27.7154C168.852 27.7119 168.868 27.7157 168.9 27.7349C168.933 27.7548 168.977 27.7871 169.023 27.8345L166.131 30.598ZM167.62 31.5172C168.103 31.6789 168.605 31.7623 169.108 31.79L169.328 27.796C169.116 27.7844 168.976 27.7528 168.889 27.7239L167.62 31.5172ZM169.108 31.79C170.045 31.8415 171.005 31.6614 171.851 31.1018L169.646 27.7648C169.645 27.7654 169.643 27.7669 169.637 27.7692C169.632 27.7716 169.619 27.7762 169.598 27.7812C169.556 27.7911 169.47 27.8039 169.328 27.796L169.108 31.79ZM171.84 31.1093C173.035 30.3311 173.38 29.0276 173.438 27.9764L169.444 27.7569C169.438 27.8643 169.427 27.9387 169.417 27.9855C169.407 28.0322 169.4 28.0432 169.406 28.0287C169.413 28.0131 169.434 27.9706 169.479 27.9163C169.524 27.8605 169.585 27.8045 169.657 27.7573L171.84 31.1093ZM173.438 27.9764L173.559 25.7639L169.565 25.5443L169.444 27.7569L173.438 27.9764ZM171.672 23.6571L171.536 23.6496L171.316 27.6436L171.453 27.6511L171.672 23.6571ZM169.602 24.8273C169.537 24.9709 169.454 25.0767 169.338 25.1686L171.824 28.3021C172.446 27.8087 172.926 27.1886 173.251 26.4659L169.602 24.8273ZM169.352 25.1574C169.215 25.2644 169.024 25.367 168.747 25.4428L169.802 29.3012C170.53 29.1022 171.21 28.7804 171.81 28.3134L169.352 25.1574ZM168.767 25.4374C168.491 25.5096 168.156 25.5465 167.746 25.5239L167.526 29.5179C168.296 29.5602 169.052 29.4978 169.782 29.3066L168.767 25.4374ZM167.746 25.5239C167.138 25.4905 166.622 25.3246 166.161 25.0366L164.042 28.4292C165.099 29.0896 166.273 29.449 167.526 29.5179L167.746 25.5239ZM166.166 25.0399C165.81 24.8159 165.463 24.4408 165.175 23.7797L161.509 25.3784C162.059 26.6413 162.886 27.702 164.037 28.4259L166.166 25.0399ZM165.179 23.7886C164.929 23.2081 164.77 22.3105 164.843 20.9827L160.849 20.7632C160.756 22.4536 160.927 24.0267 161.505 25.3695L165.179 23.7886ZM164.843 20.9827C164.919 19.589 165.19 18.6525 165.531 18.05L162.047 16.0835C161.303 17.4016 160.946 19.0026 160.849 20.7632L164.843 20.9827ZM165.526 18.058C165.926 17.3574 166.344 16.98 166.736 16.7764L164.893 13.2266C163.68 13.8566 162.748 14.856 162.052 16.0755L165.526 18.058ZM166.731 16.7793C167.24 16.5169 167.723 16.418 168.211 16.4449L168.43 12.4509C167.193 12.3829 166.006 12.6531 164.898 13.2237L166.731 16.7793ZM168.211 16.4449C168.624 16.4676 168.89 16.5546 169.062 16.6462L170.945 13.1174C170.166 12.7016 169.31 12.4993 168.43 12.4509L168.211 16.4449ZM169.079 16.6552C169.322 16.782 169.487 16.9254 169.607 17.0785L172.752 14.607C172.256 13.975 171.637 13.4778 170.928 13.1085L169.079 16.6552ZM169.617 17.0904C169.781 17.2966 169.89 17.5029 169.959 17.7152L173.765 16.4864C173.542 15.795 173.196 15.1626 172.743 14.5951L169.617 17.0904ZM171.752 19.0978L171.854 19.1034L172.074 15.1094L171.972 15.1038L171.752 19.0978ZM173.961 17.2162L174.086 14.9356L170.092 14.716L169.967 16.9966L173.961 17.2162ZM171.98 16.8228L176.677 17.081L176.897 13.087L172.199 12.8288L171.98 16.8228ZM174.79 14.9742L174.073 28.0114L178.067 28.2309L178.784 15.1938L174.79 14.9742ZM174.073 28.0114C174.032 28.7562 173.818 29.2505 173.518 29.6119L176.594 32.1694C177.524 31.0507 177.986 29.6987 178.067 28.2309L174.073 28.0114ZM173.507 29.6246C173.172 30.035 172.678 30.3891 171.926 30.64L173.191 34.4347C174.548 33.9821 175.719 33.2384 176.604 32.1567L173.507 29.6246ZM171.926 30.64C171.16 30.8953 170.203 31.0194 169.018 30.9542L168.798 34.9482C170.369 35.0346 171.847 34.8827 173.191 34.4347L171.926 30.64ZM169.445 26.2775C170.269 26.3227 171.095 26.1306 171.82 25.6276L169.542 22.3402C169.573 22.3184 169.613 22.3001 169.651 22.2901C169.686 22.2807 169.695 22.2852 169.665 22.2835L169.445 26.2775ZM171.825 25.6247C172.513 25.1447 172.984 24.4869 173.29 23.7762L169.616 22.1937C169.579 22.2798 169.549 22.3239 169.536 22.3411C169.524 22.3566 169.524 22.3527 169.538 22.343L171.825 25.6247ZM173.284 23.789C173.601 23.0684 173.751 22.2793 173.795 21.4749L169.801 21.2553C169.775 21.7217 169.696 22.0125 169.622 22.181L173.284 23.789ZM173.795 21.4749C173.84 20.6628 173.778 19.856 173.545 19.101L169.723 20.2823C169.78 20.4651 169.828 20.7739 169.801 21.2553L173.795 21.4749ZM173.553 19.1293C173.334 18.3793 172.942 17.6499 172.294 17.083L169.661 20.0942C169.64 20.0755 169.637 20.066 169.647 20.0829C169.658 20.1021 169.685 20.1538 169.715 20.254L173.553 19.1293ZM172.324 17.1098C171.66 16.5046 170.848 16.2029 170.002 16.1564L169.782 20.1503C169.803 20.1515 169.785 20.1532 169.743 20.1363C169.698 20.1186 169.659 20.0925 169.631 20.0674L172.324 17.1098ZM170.002 16.1564C169.156 16.1099 168.316 16.3208 167.589 16.8495L169.941 20.0845C169.911 20.1064 169.869 20.128 169.823 20.1408C169.78 20.1529 169.761 20.1492 169.782 20.1503L170.002 16.1564ZM167.592 16.847C166.908 17.3424 166.456 18.0188 166.163 18.723L169.855 20.2617C169.942 20.0536 169.994 20.0464 169.938 20.0869L167.592 16.847ZM166.157 18.7362C165.866 19.4482 165.726 20.2289 165.682 21.0289L169.676 21.2485C169.703 20.755 169.783 20.4381 169.86 20.2485L166.157 18.7362ZM165.682 21.0289C165.638 21.8278 165.692 22.6199 165.906 23.3588L169.748 22.2466C169.694 22.0603 169.649 21.743 169.676 21.2485L165.682 21.0289ZM165.914 23.3878C166.136 24.1115 166.518 24.8155 167.142 25.3677L169.794 22.3738C169.815 22.392 169.817 22.4006 169.807 22.3832C169.795 22.3639 169.769 22.3135 169.739 22.2176L165.914 23.3878ZM167.173 25.3949C167.839 25.9611 168.634 26.2328 169.445 26.2775L169.665 22.2835C169.63 22.2816 169.635 22.2773 169.665 22.2888C169.68 22.2943 169.697 22.3022 169.716 22.313C169.734 22.3238 169.75 22.3355 169.763 22.3466L167.173 25.3949ZM181.143 27.8708L180.102 29.5785L180.114 29.5855L181.143 27.8708ZM178.947 25.4284L177.134 26.2719L177.14 26.284L178.947 25.4284ZM179.35 18.2636L181.055 19.3082L179.35 18.2636ZM181.786 16.0331L182.673 17.8253L182.673 17.8253L181.786 16.0331ZM188.002 15.9908L188.819 14.1651L188.002 15.9908ZM189.979 17.4396L188.47 18.7519L188.476 18.7592L189.979 17.4396ZM191.174 19.6221L189.263 20.2118L189.263 20.2118L191.174 19.6221ZM191.419 23.5363L191.31 25.5333L193.307 25.6431L193.416 23.6461L191.419 23.5363ZM179.744 22.8945L177.747 22.7847L177.637 24.7817L179.634 24.8915L179.744 22.8945ZM179.886 20.3075L179.996 18.3105L177.999 18.2007L177.889 20.1977L179.886 20.3075ZM187.239 20.7117L187.129 22.7087L189.156 22.8201L189.237 20.7912L187.239 20.7117ZM187.004 19.7086L185.254 20.677L185.265 20.6972L185.276 20.717L187.004 19.7086ZM186.3 18.9956L185.259 20.703L185.277 20.7145L185.296 20.7255L186.3 18.9956ZM184.207 18.8806L185.002 20.7158L185.015 20.7102L185.028 20.7044L184.207 18.8806ZM183.404 19.5022L181.815 18.2885L181.806 18.2995L181.798 18.3106L183.404 19.5022ZM183.052 20.4815L181.059 20.3122L181.056 20.3419L181.055 20.3717L183.052 20.4815ZM183.1 24.4106L181.287 25.2551L183.1 24.4106ZM183.815 25.2266L182.732 26.908L183.815 25.2266ZM185.884 25.4854L185.356 23.5561L185.344 23.5596L185.884 25.4854ZM186.603 25.1323L187.842 26.7024L187.855 26.6923L187.867 26.682L186.603 25.1323ZM187.063 24.526L187.173 22.529L185.785 22.4527L185.23 23.7267L187.063 24.526ZM191.352 24.7618L193.306 25.1904L193.81 22.8938L191.462 22.7648L191.352 24.7618ZM190.175 27.07L191.643 28.429L191.648 28.4229L190.175 27.07ZM187.903 28.4985L188.547 30.3921L188.553 30.39L187.903 28.4985ZM184.817 26.8721C183.675 26.8094 182.819 26.5442 182.173 26.1562L180.114 29.5855C181.429 30.3751 182.948 30.7754 184.598 30.8661L184.817 26.8721ZM182.184 26.1632C181.544 25.7727 181.078 25.2551 180.755 24.5729L177.14 26.284C177.796 27.67 178.794 28.7807 180.102 29.5785L182.184 26.1632ZM180.761 24.585C180.444 23.9042 180.272 23.0217 180.335 21.8686L176.341 21.649C176.25 23.3098 176.484 24.8738 177.134 26.2719L180.761 24.585ZM180.335 21.8686C180.394 20.7907 180.657 19.9593 181.055 19.3082L177.644 17.219C176.843 18.5277 176.43 20.0264 176.341 21.649L180.335 21.8686ZM181.055 19.3082C181.46 18.6475 181.989 18.1642 182.673 17.8253L180.898 14.241C179.534 14.9163 178.44 15.9199 177.644 17.219L181.055 19.3082ZM182.673 17.8253C183.335 17.4974 184.167 17.3221 185.237 17.3809L185.456 13.3869C183.825 13.2972 182.283 13.5547 180.898 14.241L182.673 17.8253ZM185.237 17.3809C186.016 17.4237 186.656 17.5799 187.185 17.8164L188.819 14.1651C187.781 13.701 186.651 13.4526 185.456 13.3869L185.237 17.3809ZM187.185 17.8164C187.717 18.0543 188.135 18.3671 188.47 18.7519L191.488 16.1273C190.753 15.281 189.853 14.6279 188.819 14.1651L187.185 17.8164ZM188.476 18.7592C188.81 19.1388 189.077 19.6116 189.263 20.2118L193.085 19.0323C192.748 17.9423 192.22 16.96 191.482 16.1199L188.476 18.7592ZM189.263 20.2118C189.443 20.7948 189.529 21.4949 189.482 22.3373L193.476 22.5569C193.544 21.3229 193.426 20.1396 193.085 19.0323L189.263 20.2118ZM189.482 22.3373L189.422 23.4266L193.416 23.6461L193.476 22.5569L189.482 22.3373ZM191.529 21.5394L179.854 20.8975L179.634 24.8915L191.31 25.5333L191.529 21.5394ZM181.741 23.0043L181.883 20.4173L177.889 20.1977L177.747 22.7847L181.741 23.0043ZM179.776 22.3045L187.129 22.7087L187.348 18.7147L179.996 18.3105L179.776 22.3045ZM189.237 20.7912C189.266 20.0756 189.114 19.3567 188.731 18.7002L185.276 20.717C185.261 20.6904 185.25 20.6612 185.244 20.6362C185.238 20.6126 185.241 20.6085 185.24 20.6322L189.237 20.7912ZM188.754 18.7402C188.408 18.116 187.912 17.6187 187.304 17.2658L185.296 20.7255C185.302 20.7287 185.294 20.7245 185.28 20.7105C185.266 20.6963 185.257 20.683 185.254 20.677L188.754 18.7402ZM187.342 17.2883C186.729 16.9142 186.056 16.7317 185.377 16.6943L185.157 20.6883C185.213 20.6913 185.243 20.6988 185.254 20.702C185.264 20.705 185.263 20.706 185.259 20.703L187.342 17.2883ZM185.377 16.6943C184.698 16.657 184.023 16.7702 183.386 17.0568L185.028 20.7044C185.044 20.6968 185.076 20.6838 185.157 20.6883L185.377 16.6943ZM183.412 17.0453C182.783 17.3175 182.238 17.7339 181.815 18.2885L184.994 20.7159C184.995 20.7148 184.994 20.7156 184.992 20.7176C184.99 20.7195 184.988 20.7215 184.986 20.723C184.984 20.7246 184.984 20.7248 184.985 20.7238C184.987 20.7227 184.992 20.7199 185.002 20.7158L183.412 17.0453ZM181.798 18.3106C181.348 18.9167 181.119 19.6079 181.059 20.3122L185.045 20.6508C185.047 20.6178 185.052 20.6139 185.046 20.6296C185.043 20.6371 185.039 20.6474 185.032 20.6594C185.026 20.6715 185.019 20.6832 185.011 20.6939L181.798 18.3106ZM181.055 20.3717L180.901 23.163L184.895 23.3825L185.049 20.5913L181.055 20.3717ZM180.901 23.163C180.863 23.8695 180.974 24.5825 181.287 25.2551L184.913 23.566C184.911 23.5611 184.888 23.5157 184.895 23.3825L180.901 23.163ZM181.287 25.2551C181.607 25.9414 182.101 26.5014 182.732 26.908L184.898 23.5452C184.892 23.5414 184.891 23.54 184.893 23.5414C184.894 23.5429 184.898 23.5461 184.902 23.5508C184.906 23.5555 184.909 23.5601 184.912 23.5639C184.914 23.5676 184.915 23.5687 184.913 23.566L181.287 25.2551ZM182.732 26.908C183.402 27.3396 184.149 27.5296 184.881 27.5699L185.101 23.5759C184.903 23.5651 184.866 23.5242 184.898 23.5452L182.732 26.908ZM184.881 27.5699C185.392 27.598 185.912 27.5545 186.423 27.4112L185.344 23.5596C185.312 23.5685 185.237 23.5834 185.101 23.5759L184.881 27.5699ZM186.411 27.4146C186.917 27.2763 187.406 27.0465 187.842 26.7024L185.364 23.5623C185.371 23.5571 185.377 23.553 185.381 23.5499C185.386 23.5469 185.389 23.5453 185.39 23.5449C185.392 23.544 185.382 23.5491 185.356 23.5562L186.411 27.4146ZM187.867 26.682C188.316 26.316 188.665 25.8569 188.896 25.3253L185.23 23.7267C185.239 23.7045 185.255 23.6767 185.277 23.6478C185.299 23.6189 185.321 23.5971 185.339 23.5827L187.867 26.682ZM186.953 26.523L191.242 26.7587L191.462 22.7648L187.173 22.529L186.953 26.523ZM189.399 24.3331C189.272 24.9095 189.036 25.3541 188.702 25.717L191.648 28.4229C192.489 27.5074 193.037 26.4132 193.306 25.1904L189.399 24.3331ZM188.708 25.7109C188.375 26.0709 187.912 26.3807 187.253 26.6071L188.553 30.39C189.75 29.9786 190.802 29.3361 191.643 28.429L188.708 25.7109ZM187.259 26.605C186.631 26.8188 185.83 26.9278 184.817 26.8721L184.598 30.8661C186.002 30.9433 187.332 30.8053 188.547 30.3921L187.259 26.605ZM205.469 20.9286L205.36 22.9256L207.44 23.04L207.469 20.9565L205.469 20.9286ZM201.146 20.691L199.147 20.7509L199.202 22.5871L201.037 22.688L201.146 20.691ZM200.903 19.9862L202.494 18.7738L202.494 18.7738L200.903 19.9862ZM200.29 19.5086L199.412 21.3057L199.435 21.3173L199.46 21.3283L200.29 19.5086ZM198.397 19.4643L197.588 17.6354L198.397 19.4643ZM197.937 20.0707L199.93 20.2391L199.934 20.1891L199.936 20.1389L197.937 20.0707ZM198.154 20.6204L196.687 21.9799L196.699 21.9919L196.71 22.0037L198.154 20.6204ZM199.146 21.059L198.681 23.0041L198.685 23.0052L199.146 21.059ZM201.775 21.6815L202.241 19.7365L202.236 19.7353L201.775 21.6815ZM204.694 23.0796L203.287 24.5008L203.293 24.5073L203.3 24.5137L204.694 23.0796ZM205.563 25.4406L207.559 25.5625L207.56 25.5506L207.56 25.5386L205.563 25.4406ZM204.596 27.82L203.106 26.4853L203.105 26.4868L204.596 27.82ZM202.27 29.2798L202.896 31.1794L202.902 31.1774L202.27 29.2798ZM194.393 28.1725L193.13 29.7229L193.134 29.726L194.393 28.1725ZM192.69 24.8353L192.8 22.8383L190.599 22.7173L190.692 24.9198L192.69 24.8353ZM197.354 25.0917L199.345 24.9027L199.182 23.1892L197.463 23.0947L197.354 25.0917ZM197.914 26.087L196.727 27.6968L196.742 27.708L196.757 27.7189L197.914 26.087ZM200.299 26.3291L199.475 24.5067L199.467 24.5101L199.46 24.5136L200.299 26.3291ZM200.767 25.7232L202.762 25.8746L202.765 25.8311L202.766 25.7876L200.767 25.7232ZM200.426 25.1069L199.281 26.7471L199.29 26.7531L199.298 26.759L200.426 25.1069ZM199.322 24.6878L199.78 22.7408L199.777 22.7402L199.322 24.6878ZM197.03 24.152L197.485 22.2045L197.481 22.2036L197.03 24.152ZM194.107 22.6598L195.585 21.3126L195.585 21.3126L194.107 22.6598ZM193.259 20.0866L195.255 20.2075L195.256 20.1957L195.256 20.1839L193.259 20.0866ZM194.1 17.8198L192.583 16.5165L192.581 16.5185L194.1 17.8198ZM196.265 16.4877L196.846 18.4014L196.853 18.3993L196.265 16.4877ZM203.921 17.5829L202.666 19.1404L202.67 19.1435L203.921 17.5829ZM205.579 18.9316L201.256 18.694L201.037 22.688L205.36 22.9256L205.579 18.9316ZM203.146 20.631C203.126 19.9704 202.916 19.3269 202.494 18.7738L199.313 21.1986C199.263 21.1337 199.219 21.0543 199.189 20.9657C199.159 20.878 199.149 20.8028 199.147 20.7509L203.146 20.631ZM202.494 18.7738C202.12 18.2832 201.642 17.9274 201.12 17.689L199.46 21.3283C199.457 21.3272 199.437 21.3174 199.406 21.294C199.376 21.2699 199.343 21.2377 199.313 21.1986L202.494 18.7738ZM201.167 17.7116C200.65 17.4586 200.103 17.3332 199.557 17.3032L199.338 21.2972C199.379 21.2994 199.402 21.3042 199.411 21.3065C199.42 21.3088 199.419 21.3093 199.412 21.3057L201.167 17.7116ZM199.557 17.3032C198.913 17.2678 198.235 17.349 197.588 17.6354L199.206 21.2933C199.154 21.3165 199.176 21.2883 199.338 21.2972L199.557 17.3032ZM197.588 17.6354C197.215 17.8004 196.797 18.0693 196.466 18.5056C196.12 18.9611 195.956 19.4859 195.938 20.0025L199.936 20.1389C199.928 20.3828 199.844 20.6703 199.652 20.9236C199.474 21.1579 199.282 21.2599 199.206 21.2933L197.588 17.6354ZM195.944 19.9022C195.87 20.7793 196.237 21.4943 196.687 21.9799L199.621 19.2609C199.676 19.3198 199.768 19.4366 199.839 19.6172C199.914 19.8068 199.948 20.0218 199.93 20.2391L195.944 19.9022ZM196.71 22.0037C197.307 22.6274 198.145 22.8759 198.681 23.0041L199.611 19.1139C199.528 19.0941 199.464 19.0759 199.416 19.0606C199.368 19.045 199.343 19.0346 199.336 19.0316C199.329 19.0283 199.351 19.0375 199.393 19.0644C199.434 19.0909 199.511 19.1454 199.599 19.237L196.71 22.0037ZM198.685 23.0052L201.314 23.6277L202.236 19.7353L199.607 19.1128L198.685 23.0052ZM201.309 23.6265C202.461 23.9025 203.033 24.2497 203.287 24.5008L206.101 21.6585C205.114 20.6805 203.739 20.0956 202.241 19.7365L201.309 23.6265ZM203.3 24.5137C203.468 24.6776 203.588 24.8837 203.565 25.3425L207.56 25.5386C207.633 24.0678 207.173 22.7001 206.088 21.6456L203.3 24.5137ZM203.567 25.3186C203.535 25.8267 203.375 26.1849 203.106 26.4853L206.085 29.1548C206.992 28.1428 207.476 26.9146 207.559 25.5625L203.567 25.3186ZM203.105 26.4868C202.791 26.8371 202.332 27.1513 201.639 27.3823L202.902 31.1774C204.145 30.7637 205.235 30.1047 206.086 29.1533L203.105 26.4868ZM201.645 27.3803C200.961 27.6056 200.131 27.714 199.125 27.6587L198.905 31.6526C200.315 31.7302 201.656 31.588 202.896 31.1794L201.645 27.3803ZM199.125 27.6587C197.373 27.5624 196.296 27.1403 195.653 26.619L193.134 29.726C194.659 30.9627 196.663 31.5294 198.905 31.6526L199.125 27.6587ZM195.657 26.622C195.005 26.0911 194.72 25.5049 194.688 24.7509L190.692 24.9198C190.774 26.8579 191.625 28.4964 193.13 29.7229L195.657 26.622ZM192.58 26.8323L197.244 27.0887L197.463 23.0947L192.8 22.8383L192.58 26.8323ZM195.363 25.2807C195.455 26.2569 195.929 27.1085 196.727 27.6968L199.1 24.4772C199.141 24.5072 199.209 24.5711 199.267 24.6732C199.324 24.7748 199.341 24.8618 199.345 24.9027L195.363 25.2807ZM196.757 27.7189C197.48 28.2312 198.309 28.4446 199.113 28.4888L199.333 24.4949C199.07 24.4805 199.026 24.424 199.07 24.4551L196.757 27.7189ZM199.113 28.4888C199.756 28.5242 200.466 28.4552 201.138 28.1446L199.46 24.5136C199.512 24.4896 199.536 24.4884 199.516 24.4914C199.495 24.4947 199.437 24.5006 199.333 24.4949L199.113 28.4888ZM201.123 28.1515C201.941 27.7813 202.675 27.0162 202.762 25.8746L198.773 25.5719C198.79 25.3458 198.875 25.085 199.053 24.8551C199.219 24.64 199.397 24.5418 199.475 24.5067L201.123 28.1515ZM202.766 25.7876C202.8 24.7473 202.259 23.9369 201.553 23.4549L199.298 26.759C199.213 26.701 199.062 26.5742 198.939 26.3515C198.809 26.1178 198.762 25.8706 198.768 25.6588L202.766 25.7876ZM201.57 23.4668C201.024 23.086 200.358 22.8768 199.78 22.7408L198.864 26.6347C199.057 26.6799 199.187 26.7209 199.267 26.7514C199.354 26.7843 199.343 26.7901 199.281 26.7471L201.57 23.4668ZM199.777 22.7402L197.485 22.2045L196.575 26.0996L198.867 26.6353L199.777 22.7402ZM197.481 22.2036C196.385 21.9497 195.842 21.5938 195.585 21.3126L192.629 24.0071C193.629 25.1037 195.034 25.7426 196.578 26.1004L197.481 22.2036ZM195.585 21.3126C195.361 21.0663 195.222 20.7562 195.255 20.2075L191.262 19.9658C191.171 21.4702 191.598 22.8756 192.629 24.0071L195.585 21.3126ZM195.256 20.1839C195.282 19.6522 195.432 19.3395 195.619 19.121L192.581 16.5185C191.735 17.5065 191.324 18.7051 191.261 19.9893L195.256 20.1839ZM195.617 19.123C195.847 18.8555 196.216 18.5926 196.846 18.4014L195.683 14.574C194.473 14.9417 193.399 15.5668 192.583 16.5165L195.617 19.123ZM196.853 18.3993C197.499 18.2005 198.337 18.1011 199.408 18.1599L199.627 14.1659C198.213 14.0882 196.882 14.2052 195.677 14.5761L196.853 18.3993ZM199.408 18.1599C201.044 18.2499 202.055 18.6481 202.666 19.1404L205.175 16.0254C203.694 14.8321 201.769 14.2837 199.627 14.1659L199.408 18.1599ZM202.67 19.1435C203.224 19.5879 203.481 20.1089 203.47 20.9007L207.469 20.9565C207.497 18.9736 206.721 17.2641 205.171 16.0223L202.67 19.1435ZM211.53 22.2861L209.533 22.1763L209.423 24.1733L211.42 24.2831L211.53 22.2861ZM211.875 16.0058L211.985 14.0088L209.988 13.899L209.878 15.896L211.875 16.0058ZM216.124 16.504L215.133 18.241L215.133 18.241L216.124 16.504ZM216.883 17.2883L215.095 18.1838L215.101 18.1957L215.107 18.2076L216.883 17.2883ZM216.752 19.5259L218.383 20.6829L218.383 20.6828L216.752 19.5259ZM215.887 20.1869L216.598 22.0563L216.61 22.0516L216.623 22.0468L215.887 20.1869ZM212.615 20.246L210.618 20.1362L210.508 22.1332L212.505 22.243L212.615 20.246ZM212.686 18.9525L212.796 16.9555L210.799 16.8457L210.689 18.8427L212.686 18.9525ZM215.003 18.8835L216.274 20.4275L216.274 20.4275L215.003 18.8835ZM215.067 17.7177L213.605 19.0822L213.619 19.0978L213.634 19.113L215.067 17.7177ZM213.606 17.4325L213.716 15.4355L211.719 15.3257L211.609 17.3227L213.606 17.4325ZM213.334 22.3852L213.224 24.3822L215.221 24.492L215.331 22.495L213.334 22.3852ZM215.84 19.655L217.694 18.9046L217.217 17.7278L215.95 17.6581L215.84 19.655ZM217.027 22.5883L216.917 24.5853L220.063 24.7582L218.881 21.8378L217.027 22.5883ZM215.053 22.4797L213.171 23.156L213.619 24.4039L214.943 24.4767L215.053 22.4797ZM214.002 19.554L214.111 17.557L211.099 17.3914L212.119 20.2303L214.002 19.554ZM211.225 25.4958L212.111 23.7028L211.225 25.4958ZM207.791 21.6623L205.912 22.3465L205.912 22.3465L207.791 21.6623ZM208.082 16.3692L206.289 15.4831L206.289 15.4831L208.082 16.3692ZM211.916 12.9352L212.6 14.8145L211.916 12.9352ZM219.298 14.8092L220.788 13.4747L220.788 13.4747L219.298 14.8092ZM220.643 17.0597L218.764 17.7438L218.764 17.7439L220.643 17.0597ZM220.352 22.3528L218.559 21.4668L218.559 21.4668L220.352 22.3528ZM218.769 24.4424L220.103 25.9321L218.769 24.4424ZM216.452 23.7431L217.375 25.5172L217.379 25.5151L216.452 23.7431ZM218.319 22.0618L216.66 20.9458L216.653 20.9552L218.319 22.0618ZM218.591 17.1261L216.813 18.0434L216.819 18.0534L218.591 17.1261ZM216.918 15.2587L215.802 16.9185L215.811 16.9247L216.918 15.2587ZM211.982 14.9874L212.9 16.7647L212.91 16.7594L211.982 14.9874ZM210.106 16.6597L208.447 15.5437L208.44 15.5531L210.106 16.6597ZM209.835 21.5954L208.058 22.5127L208.062 22.5207L208.066 22.5287L209.835 21.5954ZM211.516 23.4632L210.4 25.1229L211.516 23.4632ZM213.527 22.3959L213.872 16.1156L209.878 15.896L209.533 22.1763L213.527 22.3959ZM211.765 18.0028L214.761 18.1674L214.98 14.1735L211.985 14.0088L211.765 18.0028ZM214.761 18.1674C215.021 18.1818 215.12 18.2339 215.133 18.241L217.115 14.7669C216.444 14.3836 215.707 14.2134 214.98 14.1735L214.761 18.1674ZM215.133 18.241C215.153 18.2526 215.149 18.2533 215.133 18.2375C215.126 18.2301 215.119 18.221 215.111 18.2107C215.104 18.2004 215.099 18.191 215.095 18.1838L218.672 16.3928C218.317 15.6854 217.773 15.1425 217.115 14.7669L215.133 18.241ZM215.107 18.2076C215.1 18.1932 215.099 18.1868 215.101 18.1968C215.104 18.2086 215.109 18.2462 215.105 18.3173L219.099 18.5368C219.139 17.8101 219.019 17.0644 218.659 16.369L215.107 18.2076ZM215.105 18.3173C215.101 18.3892 215.092 18.4202 215.091 18.4215C215.091 18.422 215.093 18.4163 215.098 18.406C215.103 18.3957 215.11 18.3829 215.12 18.369L218.383 20.6828C218.852 20.0212 219.059 19.2718 219.099 18.5368L215.105 18.3173ZM215.12 18.369C215.125 18.3619 215.132 18.3536 215.14 18.345C215.149 18.3365 215.157 18.3295 215.163 18.3243C215.178 18.3131 215.178 18.3165 215.152 18.3269L216.623 22.0468C217.317 21.7723 217.93 21.3223 218.383 20.6829L215.12 18.369ZM215.177 18.3174C215.134 18.3337 214.993 18.3737 214.699 18.3575L214.479 22.3515C215.184 22.3902 215.909 22.3184 216.598 22.0563L215.177 18.3174ZM214.699 18.3575L212.725 18.249L212.505 22.243L214.479 22.3515L214.699 18.3575ZM214.612 20.3558L214.683 19.0623L210.689 18.8427L210.618 20.1362L214.612 20.3558ZM212.576 20.9495L214.261 21.0421L214.481 17.0481L212.796 16.9555L212.576 20.9495ZM214.261 21.0421C214.828 21.0732 215.603 20.9799 216.274 20.4275L213.732 17.3395C214.105 17.0326 214.459 17.0469 214.481 17.0481L214.261 21.0421ZM216.274 20.4275C216.974 19.8516 217.209 19.0686 217.244 18.4348L213.25 18.2153C213.253 18.1548 213.269 18.0205 213.343 17.8509C213.422 17.6712 213.55 17.4888 213.732 17.3396L216.274 20.4275ZM217.244 18.4348C217.277 17.831 217.156 16.9965 216.5 16.3224L213.634 19.113C213.247 18.7154 213.246 18.2859 213.25 18.2153L217.244 18.4348ZM216.529 16.3531C215.926 15.7065 215.154 15.5146 214.567 15.4823L214.347 19.4763C214.305 19.4739 213.94 19.441 213.605 19.0822L216.529 16.3531ZM214.567 15.4823L213.716 15.4355L213.496 19.4295L214.347 19.4763L214.567 15.4823ZM211.609 17.3227L211.337 22.2755L215.331 22.495L215.603 17.5423L211.609 17.3227ZM213.444 20.3883L211.64 20.2891L211.42 24.2831L213.224 24.3822L213.444 20.3883ZM213.986 20.4055L215.173 23.3387L218.881 21.8378L217.694 18.9046L213.986 20.4055ZM217.137 20.5913L215.163 20.4828L214.943 24.4767L216.917 24.5853L217.137 20.5913ZM216.935 21.8035L215.884 18.8777L212.119 20.2303L213.171 23.156L216.935 21.8035ZM213.892 21.551L215.73 21.652L215.95 17.6581L214.111 17.557L213.892 21.551ZM213.953 24.1719C213.266 24.1342 212.66 23.9737 212.111 23.7028L210.339 27.2888C211.397 27.8118 212.536 28.1001 213.733 28.1659L213.953 24.1719ZM212.111 23.7028C211.533 23.4172 211.043 23.0441 210.625 22.5783L207.646 25.2472C208.408 26.0982 209.311 26.7804 210.339 27.2888L212.111 23.7028ZM210.625 22.5783C210.208 22.1126 209.891 21.5838 209.671 20.9781L205.912 22.3465C206.305 23.4247 206.884 24.3963 207.646 25.2472L210.625 22.5783ZM209.671 20.9781C209.461 20.4034 209.368 19.7828 209.406 19.0965L205.412 18.8769C205.346 20.0741 205.508 21.2373 205.912 22.3465L209.671 20.9781ZM209.406 19.0965C209.444 18.4102 209.604 17.8035 209.875 17.2552L206.289 15.4831C205.766 16.5414 205.478 17.6798 205.412 18.8769L209.406 19.0965ZM209.875 17.2552C210.161 16.6773 210.534 16.1865 211 15.7693L208.331 12.7899C207.48 13.5522 206.798 14.4544 206.289 15.4831L209.875 17.2552ZM211 15.7693C211.466 15.3521 211.994 15.0351 212.6 14.8145L211.232 11.0559C210.153 11.4484 209.182 12.0276 208.331 12.7899L211 15.7693ZM212.6 14.8145C213.175 14.6053 213.795 14.5123 214.482 14.5501L214.701 10.5561C213.504 10.4903 212.341 10.6521 211.232 11.0559L212.6 14.8145ZM214.482 14.5501C215.168 14.5878 215.775 14.7482 216.323 15.0192L218.095 11.4332C217.037 10.9102 215.898 10.6219 214.701 10.5561L214.482 14.5501ZM216.323 15.0192C216.901 15.3048 217.392 15.6779 217.809 16.1436L220.788 13.4747C220.026 12.6238 219.124 11.9415 218.095 11.4332L216.323 15.0192ZM217.809 16.1436C218.226 16.6094 218.543 17.1381 218.764 17.7438L222.522 16.3755C222.13 15.2973 221.55 14.3257 220.788 13.4747L217.809 16.1436ZM218.764 17.7439C218.973 18.3186 219.066 18.9391 219.028 19.6255L223.022 19.845C223.088 18.6478 222.926 17.4847 222.522 16.3755L218.764 17.7439ZM219.028 19.6255C218.99 20.3118 218.83 20.9184 218.559 21.4668L222.145 23.2389C222.668 22.1806 222.956 21.0422 223.022 19.845L219.028 19.6255ZM218.559 21.4668C218.273 22.0446 217.9 22.5354 217.434 22.9527L220.103 25.9321C220.954 25.1698 221.637 24.2676 222.145 23.2389L218.559 21.4668ZM217.434 22.9527C216.969 23.3699 216.44 23.6869 215.834 23.9074L217.203 27.6661C218.281 27.2736 219.252 26.6943 220.103 25.9321L217.434 22.9527ZM215.834 23.9074C215.26 24.1167 214.639 24.2096 213.953 24.1719L213.733 28.1659C214.93 28.2317 216.093 28.0699 217.203 27.6661L215.834 23.9074ZM213.838 26.2597C215.082 26.328 216.276 26.089 217.375 25.5172L215.528 21.9689C215.104 22.1898 214.629 22.2971 214.057 22.2657L213.838 26.2597ZM217.379 25.5151C218.444 24.9579 219.321 24.169 219.985 23.1684L216.653 20.9552C216.363 21.393 215.994 21.725 215.524 21.9711L217.379 25.5151ZM219.979 23.1778C220.672 22.1469 221.047 20.9858 221.116 19.7402L217.122 19.5207C217.091 20.0792 216.933 20.539 216.66 20.9458L219.979 23.1778ZM221.116 19.7402C221.184 18.4947 220.939 17.2994 220.363 16.1988L216.819 18.0534C217.046 18.4878 217.153 18.9622 217.122 19.5207L221.116 19.7402ZM220.368 16.2088C219.816 15.139 219.027 14.2589 218.025 13.5928L215.811 16.9247C216.247 17.214 216.574 17.5788 216.813 18.0434L220.368 16.2088ZM218.034 13.599C217.003 12.9059 215.842 12.5308 214.596 12.4623L214.377 16.4563C214.935 16.487 215.395 16.6449 215.802 16.9184L218.034 13.599ZM214.596 12.4623C213.351 12.3938 212.156 12.6394 211.055 13.2154L212.91 16.7594C213.344 16.5321 213.818 16.4256 214.377 16.4563L214.596 12.4623ZM211.065 13.2102C209.997 13.7611 209.117 14.5464 208.447 15.5437L211.766 17.7757C212.062 17.3352 212.433 17.0057 212.9 16.7646L211.065 13.2102ZM208.44 15.5531C207.756 16.5832 207.387 17.7411 207.318 18.9817L211.312 19.2013C211.343 18.6379 211.501 18.1746 211.772 17.7663L208.44 15.5531ZM207.318 18.9817C207.25 20.2224 207.491 21.4138 208.058 22.5127L211.612 20.6781C211.387 20.2425 211.281 19.7647 211.312 19.2013L207.318 18.9817ZM208.066 22.5287C208.623 23.5847 209.409 24.4562 210.4 25.1229L212.632 21.8035C212.186 21.5035 211.851 21.1299 211.604 20.6621L208.066 22.5287ZM210.4 25.1229C211.431 25.8161 212.592 26.1912 213.838 26.2597L214.057 22.2657C213.499 22.235 213.039 22.0771 212.632 21.8035L210.4 25.1229Z" fill="white"/>
</svg>
