<svg width="153" height="27" viewBox="0 0 153 27" fill="none" xmlns="http://www.w3.org/2000/svg">
<path d="M1.88688 0.592813L1.99666 -1.40417L-0.000322228 -1.51395L-0.110105 0.48303L1.88688 0.592813ZM7.77572 0.916549L9.66488 0.260005L9.22462 -1.00682L7.8855 -1.08044L7.77572 0.916549ZM11.2837 11.0107L9.39457 11.6672L9.83483 12.9341L11.174 13.0077L11.2837 11.0107ZM11.488 11.0219L11.3782 13.0189L12.7173 13.0925L13.2938 11.8816L11.488 11.0219ZM16.0814 1.37315L16.1911 -0.623838L14.852 -0.697456L14.2755 0.513474L16.0814 1.37315ZM21.9702 1.69688L23.9672 1.80667L24.077 -0.19032L22.08 -0.300103L21.9702 1.69688ZM21.0121 19.1251L20.9023 21.1221L22.8993 21.2319L23.0091 19.2349L21.0121 19.1251ZM16.3827 18.8706L14.3857 18.7608L14.2759 20.7578L16.2729 20.8676L16.3827 18.8706ZM16.9366 8.79492L18.9336 8.9047L19.0434 6.90772L17.0464 6.79793L16.9366 8.79492ZM16.8005 8.78743L16.9102 6.79045L15.5461 6.71546L14.9801 7.95891L16.8005 8.78743ZM12.3735 18.5136L12.2638 20.5106L13.6279 20.5856L14.1938 19.3422L12.3735 18.5136ZM9.58229 18.3602L7.68069 18.9798L8.10499 20.282L9.47251 20.3572L9.58229 18.3602ZM6.25195 8.13925L8.15355 7.51964L7.72925 6.21744L6.36174 6.14227L6.25195 8.13925ZM6.11579 8.13177L6.22558 6.13478L4.22859 6.025L4.11881 8.02198L6.11579 8.13177ZM5.55815 18.2755L5.44836 20.2725L7.44535 20.3823L7.55513 18.3853L5.55815 18.2755ZM0.928772 18.021L-1.06821 17.9113L-1.178 19.9082L0.818989 20.018L0.928772 18.021ZM1.7771 2.5898L7.66593 2.91353L7.8855 -1.08044L1.99666 -1.40417L1.7771 2.5898ZM5.88655 1.57309L9.39457 11.6672L13.1729 10.3541L9.66488 0.260005L5.88655 1.57309ZM11.174 13.0077L11.3782 13.0189L11.5978 9.02494L11.3935 9.01371L11.174 13.0077ZM13.2938 11.8816L17.8872 2.23282L14.2755 0.513474L9.68216 10.1622L13.2938 11.8816ZM15.9716 3.37013L21.8604 3.69387L22.08 -0.300103L16.1911 -0.623838L15.9716 3.37013ZM19.9732 1.5871L19.0151 19.0153L23.0091 19.2349L23.9672 1.80667L19.9732 1.5871ZM21.1219 17.1281L16.4925 16.8736L16.2729 20.8676L20.9023 21.1221L21.1219 17.1281ZM18.3797 18.9804L18.9336 8.9047L14.9396 8.68514L14.3857 18.7608L18.3797 18.9804ZM17.0464 6.79793L16.9102 6.79045L16.6907 10.7844L16.8268 10.7919L17.0464 6.79793ZM14.9801 7.95891L10.5532 17.6851L14.1938 19.3422L18.6208 9.61596L14.9801 7.95891ZM12.4833 16.5167L9.69208 16.3632L9.47251 20.3572L12.2638 20.5106L12.4833 16.5167ZM11.4839 17.7406L8.15355 7.51964L4.35035 8.75886L7.68069 18.9798L11.4839 17.7406ZM6.36174 6.14227L6.22558 6.13478L6.00601 10.1288L6.14217 10.1362L6.36174 6.14227ZM4.11881 8.02198L3.56116 18.1658L7.55513 18.3853L8.11278 8.24155L4.11881 8.02198ZM5.66793 16.2786L1.03856 16.0241L0.818989 20.018L5.44836 20.2725L5.66793 16.2786ZM2.92576 18.1308L3.88386 0.702596L-0.110105 0.48303L-1.06821 17.9113L2.92576 18.1308ZM39.2153 16.3104L40.8972 17.3926L40.8992 17.3896L39.2153 16.3104ZM35.9942 19.1635L36.8338 20.9787L36.84 20.9758L35.9942 19.1635ZM27.3997 18.6825L26.3513 20.3857L26.3603 20.3912L27.3997 18.6825ZM24.5197 15.4855L22.7248 16.3677L22.7293 16.3768L24.5197 15.4855ZM25.0582 5.69059L23.3743 4.61144L23.3728 4.61381L25.0582 5.69059ZM28.2708 2.83706L29.1137 4.65078L29.1166 4.64942L28.2708 2.83706ZM36.8658 3.30957L35.8264 5.01829L35.8323 5.02185L36.8658 3.30957ZM39.7547 6.49853L37.9627 7.38659L37.9643 7.38987L39.7547 6.49853ZM35.4775 8.53385L33.5706 9.13718L33.5735 9.14627L33.5765 9.15534L35.4775 8.53385ZM34.3504 6.83306L33.113 8.40433L33.1225 8.41182L33.1321 8.41919L34.3504 6.83306ZM30.3933 6.61552L31.4388 8.3205L31.4425 8.31819L30.3933 6.61552ZM29.0866 8.18252L27.2629 7.36124L27.2595 7.36901L29.0866 8.18252ZM28.796 13.4672L26.8892 14.0705L26.8921 14.0796L26.8951 14.0886L28.796 13.4672ZM29.9231 15.1679L28.6858 16.7392L28.6953 16.7467L28.7049 16.7541L29.9231 15.1679ZM33.8802 15.3855L34.9257 17.0905L34.9295 17.0882L33.8802 15.3855ZM35.187 13.8185L33.3633 12.9972L33.3599 13.005L35.187 13.8185ZM38.6201 11.3527C38.5274 13.0384 38.1297 14.2979 37.5315 15.2313L40.8992 17.3896C41.9567 15.7395 42.4934 13.767 42.6141 11.5722L38.6201 11.3527ZM37.5334 15.2282C36.8994 16.2135 36.1088 16.9029 35.1484 17.3511L36.84 20.9758C38.5194 20.1921 39.8762 18.9795 40.8972 17.3926L37.5334 15.2282ZM35.1547 17.3482C34.1571 17.8096 33.0384 18.0222 31.7589 17.9519L31.5393 21.9459C33.4141 22.0489 35.1922 21.738 36.8338 20.9787L35.1547 17.3482ZM31.7589 17.9519C30.4682 17.8809 29.3767 17.5441 28.4391 16.9737L26.3603 20.3912C27.9116 21.3347 29.653 21.8422 31.5393 21.9459L31.7589 17.9519ZM28.4481 16.9793C27.5448 16.4232 26.8341 15.6466 26.3101 14.5941L22.7293 16.3768C23.5685 18.0624 24.7778 19.4171 26.3513 20.3857L28.4481 16.9793ZM26.3146 14.6032C25.825 13.6071 25.5703 12.3147 25.6624 10.6403L21.6684 10.4207C21.5484 12.6042 21.8633 14.615 22.7248 16.3677L26.3146 14.6032ZM25.6624 10.6403C25.7552 8.95185 26.1511 7.69476 26.7436 6.76737L23.3728 4.61381C22.3216 6.25916 21.7889 8.2287 21.6684 10.4207L25.6624 10.6403ZM26.7421 6.76974C27.3776 5.778 28.1648 5.09174 29.1137 4.65077L27.4279 1.02336C25.749 1.80362 24.3944 3.01971 23.3743 4.61144L26.7421 6.76974ZM29.1166 4.64942C30.1111 4.1853 31.233 3.97012 32.5236 4.04107L32.7432 0.0471046C30.8568 -0.0565966 29.0703 0.25687 27.425 1.02471L29.1166 4.64942ZM32.5236 4.04107C33.8004 4.11126 34.8868 4.44673 35.8264 5.01828L37.9051 1.60085C36.3559 0.658512 34.6208 0.150323 32.7432 0.0471046L32.5236 4.04107ZM35.8323 5.02185C36.7324 5.56514 37.4408 6.33349 37.9627 7.38659L41.5468 5.61046C40.7061 3.91417 39.4886 2.55655 37.8993 1.59728L35.8323 5.02185ZM37.9643 7.38987C38.4551 8.37559 38.7128 9.66647 38.6201 11.3527L42.6141 11.5722C42.7347 9.37789 42.4175 7.35951 41.5451 5.60718L37.9643 7.38987ZM37.7464 11.3046C37.8128 10.0968 37.7165 8.94647 37.3785 7.91237L33.5765 9.15534C33.7158 9.58146 33.8008 10.2052 33.7525 11.0851L37.7464 11.3046ZM37.3843 7.93053C37.0508 6.87653 36.4671 5.93698 35.5687 5.24692L33.1321 8.41919C33.2711 8.52591 33.4387 8.72022 33.5706 9.13718L37.3843 7.93053ZM35.5878 5.26178C34.6913 4.55582 33.6259 4.22686 32.5168 4.16589L32.2972 8.15986C32.7538 8.18496 32.9841 8.30279 33.113 8.40433L35.5878 5.26178ZM32.5168 4.16589C31.4068 4.10487 30.3136 4.31541 29.3441 4.91284L31.4425 8.31819C31.5921 8.22602 31.8413 8.13479 32.2972 8.15986L32.5168 4.16589ZM29.3478 4.91054C28.391 5.49727 27.7133 6.36136 27.263 7.36125L30.9102 9.00378C31.0951 8.59323 31.2885 8.41266 31.4388 8.32049L29.3478 4.91054ZM27.2595 7.36901C26.82 8.356 26.6023 9.48422 26.5361 10.6883L30.53 10.9079C30.5786 10.0243 30.7299 9.40875 30.9136 8.99603L27.2595 7.36901ZM26.5361 10.6883C26.4698 11.8932 26.5628 13.0389 26.8892 14.0705L30.7029 12.8638C30.5639 12.4245 30.4815 11.7908 30.53 10.9079L26.5361 10.6883ZM26.8951 14.0886C27.2342 15.1261 27.8113 16.0506 28.6858 16.7392L31.1605 13.5967C31.0095 13.4778 30.8352 13.2684 30.697 12.8457L26.8951 14.0886ZM28.7049 16.7541C29.6023 17.4434 30.6619 17.7664 31.7657 17.8271L31.9853 13.8331C31.5234 13.8077 31.2813 13.6893 31.1414 13.5818L28.7049 16.7541ZM31.7657 17.8271C32.8688 17.8877 33.9591 17.6832 34.9257 17.0905L32.8347 13.6805C32.6942 13.7667 32.448 13.8585 31.9853 13.8331L31.7657 17.8271ZM34.9295 17.0882C35.8859 16.4988 36.5664 15.6372 37.014 14.632L33.3599 13.005C33.1842 13.3995 32.9936 13.5826 32.831 13.6828L34.9295 17.0882ZM37.0106 14.6398C37.4579 13.6464 37.68 12.5133 37.7464 11.3046L33.7525 11.0851C33.7041 11.9642 33.5512 12.5802 33.3634 12.9972L37.0106 14.6398ZM58.3648 3.69766L60.3618 3.80744L60.4716 1.81045L58.4746 1.70067L58.3648 3.69766ZM57.4067 21.1259L57.2969 23.1229L59.2939 23.2327L59.4037 21.2357L57.4067 21.1259ZM53.4581 20.9088L51.7505 21.95L52.2981 22.8481L53.3483 22.9058L53.4581 20.9088ZM47.6642 11.406L49.3718 10.3648L48.8242 9.46675L47.774 9.40901L47.6642 11.406ZM47.5621 11.4004L47.6719 9.4034L45.6749 9.29361L45.5651 11.2906L47.5621 11.4004ZM47.0587 20.557L46.9489 22.554L48.9459 22.6638L49.0557 20.6668L47.0587 20.557ZM42.3272 20.2969L40.3302 20.1871L40.2204 22.1841L42.2174 22.2939L42.3272 20.2969ZM43.2853 2.86867L43.3951 0.871684L41.3981 0.761901L41.2883 2.75889L43.2853 2.86867ZM47.302 3.08948L49.0157 2.05839L48.4695 1.15065L47.4118 1.0925L47.302 3.08948ZM52.9956 12.5526L51.2819 13.5837L51.8281 14.4915L52.8859 14.5496L52.9956 12.5526ZM53.1318 12.5601L53.022 14.5571L55.019 14.6669L55.1288 12.6699L53.1318 12.5601ZM53.6333 3.43754L53.7431 1.44056L51.7461 1.33078L51.6363 3.32776L53.6333 3.43754ZM56.3678 3.58787L55.4097 21.0161L59.4037 21.2357L60.3618 3.80744L56.3678 3.58787ZM57.5165 19.1289L53.5679 18.9118L53.3483 22.9058L57.2969 23.1229L57.5165 19.1289ZM55.1657 19.8677L49.3718 10.3648L45.9566 12.4471L51.7505 21.95L55.1657 19.8677ZM47.774 9.40901L47.6719 9.4034L47.4523 13.3974L47.5544 13.403L47.774 9.40901ZM45.5651 11.2906L45.0617 20.4472L49.0557 20.6668L49.5591 11.5102L45.5651 11.2906ZM47.1685 18.56L42.437 18.2999L42.2174 22.2939L46.9489 22.554L47.1685 18.56ZM44.3242 20.4067L45.2823 2.97845L41.2883 2.75889L40.3302 20.1871L44.3242 20.4067ZM43.1755 4.86565L47.1922 5.08647L47.4118 1.0925L43.3951 0.871684L43.1755 4.86565ZM45.5882 4.12057L51.2819 13.5837L54.7094 11.5216L49.0157 2.05839L45.5882 4.12057ZM52.8859 14.5496L53.022 14.5571L53.2416 10.5631L53.1054 10.5557L52.8859 14.5496ZM55.1288 12.6699L55.6303 3.54733L51.6363 3.32776L51.1348 12.4504L55.1288 12.6699ZM53.5235 5.43453L58.255 5.69464L58.4746 1.70067L53.7431 1.44056L53.5235 5.43453ZM64.1721 21.4978L64.0623 23.4948L65.5454 23.5763L66.0521 22.18L64.1721 21.4978ZM59.0661 21.2171L57.2042 20.4869L56.1942 23.0623L58.9563 23.2141L59.0661 21.2171ZM65.7769 4.10513L65.8867 2.10815L64.4429 2.02878L63.915 3.37494L65.7769 4.10513ZM72.2444 4.46068L74.1752 3.93899L73.798 2.54307L72.3542 2.4637L72.2444 4.46068ZM77.039 22.2052L76.9292 24.2021L79.6913 24.354L78.9698 21.6835L77.039 22.2052ZM71.9331 21.9245L69.9896 22.3965L70.3401 23.8399L71.8233 23.9214L71.9331 21.9245ZM68.8149 9.08622L70.7584 8.61418L70.4078 7.17077L68.9247 7.08924L68.8149 9.08622ZM68.6787 9.07874L68.7885 7.08175L67.3054 7.00022L66.7987 8.3965L68.6787 9.07874ZM63.597 14.5694L63.7067 12.5724L61.7097 12.4627L61.6 14.4596L63.597 14.5694ZM73.1961 15.0971L75.1931 15.2069L75.3029 13.2099L73.3059 13.1002L73.1961 15.0971ZM73.0015 18.6372L72.8917 20.6342L74.8887 20.744L74.9985 18.747L73.0015 18.6372ZM63.4023 18.1095L61.4054 17.9998L61.2956 19.9967L63.2926 20.1065L63.4023 18.1095ZM64.2818 19.5008L59.1759 19.2201L58.9563 23.2141L64.0623 23.4948L64.2818 19.5008ZM60.9281 21.9473L67.6389 4.83533L63.915 3.37494L57.2042 20.4869L60.9281 21.9473ZM65.6671 6.10212L72.1346 6.45766L72.3542 2.4637L65.8867 2.10815L65.6671 6.10212ZM70.3137 4.98237L75.1082 22.7269L78.9698 21.6835L74.1752 3.93899L70.3137 4.98237ZM77.1488 20.2082L72.0428 19.9275L71.8233 23.9214L76.9292 24.2021L77.1488 20.2082ZM73.8766 21.4524L70.7584 8.61418L66.8714 9.55826L69.9896 22.3965L73.8766 21.4524ZM68.9247 7.08924L68.7885 7.08175L68.5689 11.0757L68.7051 11.0832L68.9247 7.08924ZM66.7987 8.3965L62.292 20.8156L66.0521 22.18L70.5588 9.76097L66.7987 8.3965ZM63.4872 16.5664L73.0863 17.0941L73.3059 13.1002L63.7067 12.5724L63.4872 16.5664ZM71.1991 14.9874L71.0045 18.5275L74.9985 18.747L75.1931 15.2069L71.1991 14.9874ZM73.1113 16.6403L63.5121 16.1126L63.2926 20.1065L72.8917 20.6342L73.1113 16.6403ZM65.3993 18.2193L65.5939 14.6792L61.6 14.4596L61.4054 17.9998L65.3993 18.2193ZM78.7176 22.2974L76.7206 22.1877L76.6108 24.1846L78.6078 24.2944L78.7176 22.2974ZM79.6757 4.86921L79.7855 2.87222L77.7885 2.76244L77.6787 4.75943L79.6757 4.86921ZM90.5473 6.00462L89.7097 7.82074L89.7136 7.82253L90.5473 6.00462ZM92.515 7.63212L90.8191 8.69234L90.8253 8.70212L92.515 7.63212ZM92.5641 11.7063L90.8572 10.664L90.8528 10.6711L90.8485 10.6783L92.5641 11.7063ZM91.3168 12.9693L92.3682 14.6706L92.3746 14.6667L92.381 14.6627L91.3168 12.9693ZM89.5065 13.6038L89.2193 11.6246L87.5994 11.8596L87.5095 13.494L89.5065 13.6038ZM89.4971 13.774L87.5001 13.6642L87.3944 15.587L89.3118 15.7654L89.4971 13.774ZM91.5082 14.4565L90.4187 16.1337L90.4305 16.1413L91.5082 14.4565ZM92.8928 15.9751L91.1188 16.8987L91.1226 16.906L92.8928 15.9751ZM92.4308 20.6528L90.8343 19.4481L90.828 19.4566L92.4308 20.6528ZM90.224 22.2898L89.4802 20.4333L90.224 22.2898ZM83.6568 18.7792L81.6598 18.6694L81.55 20.6664L83.547 20.7761L83.6568 18.7792ZM87.6807 18.5565L88.7835 20.2251L88.7911 20.22L88.7987 20.2149L87.6807 18.5565ZM87.3613 15.5174L86.4665 17.3061L86.4773 17.3114L87.3613 15.5174ZM83.8589 15.1029L83.9687 13.1059L81.9717 12.9961L81.8619 14.9931L83.8589 15.1029ZM84.0198 12.1755L82.0228 12.0657L81.913 14.0627L83.91 14.1725L84.0198 12.1755ZM87.0686 12.1468L87.7257 14.0357L87.7257 14.0357L87.0686 12.1468ZM87.8398 11.6258L86.2894 10.3625L86.2841 10.3689L87.8398 11.6258ZM87.6514 9.4645L86.3653 10.9962L86.3726 11.0023L86.3799 11.0083L87.6514 9.4645ZM84.2032 8.83963L84.313 6.84264L82.316 6.73286L82.2062 8.72984L84.2032 8.83963ZM80.7145 22.4072L81.6727 4.97899L77.6787 4.75943L76.7206 22.1877L80.7145 22.4072ZM79.5659 6.86619L87.1227 7.28162L87.3422 3.28765L79.7855 2.87222L79.5659 6.86619ZM87.1227 7.28162C88.285 7.34552 89.1238 7.55049 89.7097 7.82074L91.385 4.1885C90.2061 3.64473 88.835 3.36972 87.3422 3.28765L87.1227 7.28162ZM89.7136 7.82253C90.326 8.10344 90.6446 8.41321 90.8191 8.69232L94.2108 6.57192C93.538 5.49566 92.5448 4.72042 91.3811 4.18671L89.7136 7.82253ZM90.8253 8.70212C91.0087 8.99177 91.1173 9.35198 91.089 9.86688L95.083 10.0864C95.152 8.83128 94.8799 7.62847 94.2047 6.56212L90.8253 8.70212ZM91.089 9.86688C91.0706 10.2017 90.9856 10.4537 90.8572 10.664L94.271 12.7486C94.768 11.9348 95.0309 11.0337 95.083 10.0864L91.089 9.86688ZM90.8485 10.6783C90.7094 10.9105 90.521 11.1072 90.2526 11.2759L92.381 14.6627C93.1617 14.172 93.8048 13.5268 94.2797 12.7343L90.8485 10.6783ZM90.2654 11.2679C90.0004 11.4317 89.6632 11.5601 89.2193 11.6246L89.7937 15.5831C90.715 15.4494 91.5846 15.1549 92.3682 14.6706L90.2654 11.2679ZM87.5095 13.494L87.5001 13.6642L91.4941 13.8838L91.5035 13.7136L87.5095 13.494ZM89.3118 15.7654C89.7569 15.8068 90.1133 15.9353 90.4187 16.1337L92.5976 12.7792C91.7162 12.2067 90.732 11.8803 89.6824 11.7826L89.3118 15.7654ZM90.4305 16.1413C90.7258 16.3302 90.9489 16.5724 91.1188 16.8987L94.6668 15.0515C94.1779 14.1125 93.4779 13.3423 92.5859 12.7717L90.4305 16.1413ZM91.1226 16.906C91.2583 17.1639 91.3512 17.5185 91.3226 18.0397L95.3165 18.2593C95.3783 17.1353 95.1867 16.0403 94.663 15.0442L91.1226 16.906ZM91.3226 18.0397C91.2905 18.6231 91.1194 19.0703 90.8343 19.4481L94.0273 21.8575C94.8224 20.8038 95.2438 19.5821 95.3165 18.2593L91.3226 18.0397ZM90.828 19.4566C90.5412 19.8409 90.1207 20.1767 89.4802 20.4333L90.9677 24.1464C92.2008 23.6524 93.2515 22.8969 94.0336 21.8491L90.828 19.4566ZM89.4802 20.4333C88.8743 20.676 88.0769 20.8089 87.0309 20.7514L86.8113 24.7454C88.2955 24.827 89.7001 24.6542 90.9677 24.1464L89.4802 20.4333ZM87.0309 20.7514L78.8273 20.3005L78.6078 24.2944L86.8113 24.7454L87.0309 20.7514ZM83.547 20.7761L85.7596 20.8978L85.9791 16.9038L83.7666 16.7822L83.547 20.7761ZM85.7596 20.8978C86.7429 20.9518 87.853 20.84 88.7835 20.2251L86.578 16.888C86.6387 16.8479 86.6467 16.8632 86.5444 16.8827C86.4404 16.9024 86.2591 16.9192 85.9791 16.9038L85.7596 20.8978ZM88.7987 20.2149C89.8255 19.5227 90.2866 18.4589 90.3464 17.3715L86.3524 17.152C86.3487 17.219 86.3393 17.1869 86.3811 17.106C86.4017 17.0661 86.43 17.0239 86.4657 16.9841C86.5011 16.9446 86.5358 16.9164 86.5628 16.8981L88.7987 20.2149ZM90.3464 17.3715C90.386 16.6519 90.2588 15.895 89.8528 15.1997L86.3985 17.2165C86.3855 17.1942 86.3753 17.1724 86.3676 17.1524C86.36 17.1325 86.356 17.1169 86.3539 17.1074C86.3499 17.0885 86.3553 17.0998 86.3524 17.152L90.3464 17.3715ZM89.8528 15.1997C89.4624 14.531 88.8962 14.0441 88.2453 13.7233L86.4773 17.3114C86.4963 17.3208 86.4874 17.3191 86.4649 17.2988C86.4413 17.2775 86.4172 17.2485 86.3985 17.2165L89.8528 15.1997ZM88.256 13.7287C87.6176 13.4093 86.9264 13.2685 86.2493 13.2313L86.0297 17.2253C86.3171 17.2411 86.4404 17.293 86.4665 17.3061L88.256 13.7287ZM86.2493 13.2313L83.9687 13.1059L83.7491 17.0999L86.0297 17.2253L86.2493 13.2313ZM81.8619 14.9931L81.6598 18.6694L85.6538 18.8889L85.8559 15.2127L81.8619 14.9931ZM83.91 14.1725L85.8503 14.2791L86.0698 10.2852L84.1296 10.1785L83.91 14.1725ZM85.8503 14.2791C86.4724 14.3133 87.1096 14.2501 87.7257 14.0357L86.4115 10.2578C86.3778 10.2695 86.2761 10.2965 86.0698 10.2852L85.8503 14.2791ZM87.7257 14.0357C88.352 13.8179 88.9397 13.4469 89.3955 12.8827L86.2841 10.3689C86.3179 10.3271 86.3546 10.2954 86.3856 10.2745C86.4151 10.2545 86.4279 10.2521 86.4114 10.2578L87.7257 14.0357ZM89.3903 12.8892C89.8932 12.272 90.1201 11.5504 90.1592 10.84L86.1652 10.6205C86.1647 10.6298 86.1653 10.5999 86.1851 10.5448C86.2058 10.4872 86.2405 10.4225 86.2894 10.3625L89.3903 12.8892ZM90.1592 10.84C90.2187 9.7576 89.8509 8.68505 88.9228 7.92066L86.3799 11.0083C86.3217 10.9604 86.2487 10.8736 86.2021 10.7581C86.1588 10.6508 86.1669 10.59 86.1652 10.6205L90.1592 10.84ZM88.9374 7.93279C88.1676 7.28649 87.2447 7.00381 86.3213 6.95305L86.1017 10.947C86.2344 10.9543 86.3085 10.9747 86.341 10.9864C86.3699 10.9967 86.3721 11.0019 86.3653 10.9962L88.9374 7.93279ZM86.3213 6.95305L84.313 6.84264L84.0934 10.8366L86.1017 10.947L86.3213 6.95305ZM82.2062 8.72984L82.0228 12.0657L86.0168 12.2853L86.2002 8.94941L82.2062 8.72984ZM94.7246 23.1774L92.7277 23.0676L92.6179 25.0646L94.6149 25.1744L94.7246 23.1774ZM95.6827 5.74919L95.7925 3.7522L93.7955 3.64242L93.6858 5.63941L95.6827 5.74919ZM108.243 6.4397L110.24 6.54948L110.35 4.5525L108.353 4.44272L108.243 6.4397ZM108.034 10.2521L107.924 12.2491L109.921 12.3589L110.031 10.3619L108.034 10.2521ZM100.205 9.82173L100.314 7.82474L98.3175 7.71496L98.2077 9.71194L100.205 9.82173ZM100.04 12.8172L98.043 12.7074L97.9332 14.7044L99.9302 14.8142L100.04 12.8172ZM107.222 13.212L109.219 13.3218L109.329 11.3248L107.332 11.2151L107.222 13.212ZM107.013 17.0245L106.903 19.0215L108.9 19.1312L109.01 17.1343L107.013 17.0245ZM99.8304 16.6296L99.9402 14.6326L97.9432 14.5229L97.8334 16.5198L99.8304 16.6296ZM99.6657 19.6251L97.6687 19.5153L97.559 21.5123L99.5559 21.6221L99.6657 19.6251ZM107.461 20.0536L109.458 20.1634L109.568 18.1664L107.571 18.0566L107.461 20.0536ZM107.251 23.8661L107.141 25.863L109.138 25.9728L109.248 23.9758L107.251 23.8661ZM96.7216 23.2872L97.6797 5.85897L93.6858 5.63941L92.7277 23.0676L96.7216 23.2872ZM95.573 7.74617L108.134 8.43668L108.353 4.44272L95.7925 3.7522L95.573 7.74617ZM106.246 6.32992L106.037 10.1423L110.031 10.3619L110.24 6.54948L106.246 6.32992ZM108.144 8.25514L100.314 7.82474L100.095 11.8187L107.924 12.2491L108.144 8.25514ZM98.2077 9.71194L98.043 12.7074L102.037 12.927L102.202 9.93151L98.2077 9.71194ZM99.9302 14.8142L107.113 15.209L107.332 11.2151L100.15 10.8202L99.9302 14.8142ZM105.225 13.1023L105.016 16.9147L109.01 17.1343L109.219 13.3218L105.225 13.1023ZM107.123 15.0275L99.9402 14.6326L99.7206 18.6266L106.903 19.0215L107.123 15.0275ZM97.8334 16.5198L97.6687 19.5153L101.663 19.7349L101.827 16.7394L97.8334 16.5198ZM99.5559 21.6221L107.351 22.0506L107.571 18.0566L99.7755 17.6281L99.5559 21.6221ZM105.464 19.9439L105.254 23.7563L109.248 23.9758L109.458 20.1634L105.464 19.9439ZM107.361 21.8691L94.8344 21.1804L94.6149 25.1744L107.141 25.863L107.361 21.8691ZM109.632 23.9969L107.635 23.8871L107.525 25.8841L109.522 25.9939L109.632 23.9969ZM110.59 6.5687L110.7 4.57172L108.703 4.46194L108.593 6.45892L110.59 6.5687ZM115.321 6.82881L117.318 6.9386L117.428 4.94161L115.431 4.83183L115.321 6.82881ZM114.573 20.4446L112.576 20.3348L112.466 22.3318L114.463 22.4416L114.573 20.4446ZM121.619 20.832L123.616 20.9418L123.726 18.9448L121.729 18.835L121.619 20.832ZM121.409 24.6444L121.3 26.6414L123.297 26.7512L123.406 24.7542L121.409 24.6444ZM111.629 24.1067L112.587 6.67849L108.593 6.45892L107.635 23.8871L111.629 24.1067ZM110.48 8.56569L115.212 8.8258L115.431 4.83183L110.7 4.57172L110.48 8.56569ZM113.324 6.71903L112.576 20.3348L116.57 20.5544L117.318 6.9386L113.324 6.71903ZM114.463 22.4416L121.509 22.829L121.729 18.835L114.683 18.4476L114.463 22.4416ZM119.622 20.7222L119.413 24.5346L123.406 24.7542L123.616 20.9418L119.622 20.7222ZM121.519 22.6474L109.742 21.9999L109.522 25.9939L121.3 26.6414L121.519 22.6474ZM123.322 24.7495L121.325 24.6398L121.215 26.6367L123.212 26.7465L123.322 24.7495ZM124.28 7.32132L124.39 5.32433L122.393 5.21455L122.283 7.21153L124.28 7.32132ZM136.841 8.01183L138.838 8.12161L138.948 6.12463L136.951 6.01484L136.841 8.01183ZM136.631 11.8243L136.521 13.8212L138.518 13.931L138.628 11.934L136.631 11.8243ZM128.802 11.3939L128.912 9.39687L126.915 9.28709L126.805 11.2841L128.802 11.3939ZM128.637 14.3893L126.64 14.2795L126.531 16.2765L128.528 16.3863L128.637 14.3893ZM135.82 14.7842L137.817 14.894L137.927 12.897L135.93 12.7872L135.82 14.7842ZM135.61 18.5966L135.5 20.5936L137.497 20.7034L137.607 18.7064L135.61 18.5966ZM128.428 18.2018L128.538 16.2048L126.541 16.095L126.431 18.092L128.428 18.2018ZM128.263 21.1972L126.266 21.0875L126.156 23.0844L128.153 23.1942L128.263 21.1972ZM136.058 21.6258L138.055 21.7355L138.165 19.7386L136.168 19.6288L136.058 21.6258ZM135.849 25.4382L135.739 27.4352L137.736 27.545L137.846 25.548L135.849 25.4382ZM125.319 24.8593L126.277 7.4311L122.283 7.21153L121.325 24.6398L125.319 24.8593ZM124.17 9.3183L136.731 10.0088L136.951 6.01484L124.39 5.32433L124.17 9.3183ZM134.844 7.90205L134.634 11.7145L138.628 11.934L138.838 8.12161L134.844 7.90205ZM136.741 9.82727L128.912 9.39687L128.692 13.3908L136.521 13.8212L136.741 9.82727ZM126.805 11.2841L126.64 14.2795L130.634 14.4991L130.799 11.5036L126.805 11.2841ZM128.528 16.3863L135.71 16.7812L135.93 12.7872L128.747 12.3923L128.528 16.3863ZM133.823 14.6744L133.613 18.4868L137.607 18.7064L137.817 14.894L133.823 14.6744ZM135.72 16.5996L128.538 16.2048L128.318 20.1987L135.5 20.5936L135.72 16.5996ZM126.431 18.092L126.266 21.0875L130.26 21.307L130.425 18.3115L126.431 18.092ZM128.153 23.1942L135.948 23.6227L136.168 19.6288L128.373 19.2002L128.153 23.1942ZM134.061 21.516L133.852 25.3284L137.846 25.548L138.055 21.7355L134.061 21.516ZM135.958 23.4412L123.432 22.7526L123.212 26.7465L135.739 27.4352L135.958 23.4412ZM142.913 18.0079L140.916 17.8981L140.806 19.8951L142.803 20.0049L142.913 18.0079ZM143.258 11.7276L143.368 9.73065L141.371 9.62087L141.261 11.6179L143.258 11.7276ZM147.507 12.2258L146.516 13.9629L146.516 13.9629L147.507 12.2258ZM148.266 13.0102L146.478 13.9056L146.484 13.9176L146.49 13.9294L148.266 13.0102ZM148.135 15.2478L149.766 16.4047L149.766 16.4047L148.135 15.2478ZM147.27 15.9087L147.981 17.7782L147.993 17.7735L148.006 17.7687L147.27 15.9087ZM143.998 15.9678L142.001 15.858L141.891 17.855L143.888 17.9648L143.998 15.9678ZM144.069 14.6743L144.179 12.6773L142.182 12.5676L142.072 14.5645L144.069 14.6743ZM146.386 14.6054L147.657 16.1494L147.657 16.1494L146.386 14.6054ZM146.45 13.4395L144.988 14.8041L145.002 14.8196L145.017 14.8348L146.45 13.4395ZM144.989 13.1544L145.099 11.1574L143.102 11.0476L142.992 13.0446L144.989 13.1544ZM144.717 18.1071L144.607 20.1041L146.604 20.2139L146.714 18.2169L144.717 18.1071ZM147.223 15.3769L149.077 14.6265L148.6 13.4496L147.333 13.3799L147.223 15.3769ZM148.41 18.3101L148.3 20.3071L151.446 20.4801L150.264 17.5597L148.41 18.3101ZM146.436 18.2016L144.554 18.8779L145.002 20.1258L146.326 20.1986L146.436 18.2016ZM145.385 15.2759L145.494 13.2789L142.482 13.1133L143.502 15.9521L145.385 15.2759ZM142.608 21.2176L143.494 19.4246L142.608 21.2176ZM139.174 17.3842L137.295 18.0683L137.295 18.0683L139.174 17.3842ZM139.465 12.091L137.672 11.205L137.672 11.205L139.465 12.091ZM143.299 8.65706L143.983 10.5364L143.299 8.65706ZM150.681 10.531L152.171 9.19659L152.171 9.19659L150.681 10.531ZM152.026 12.7815L150.147 13.4657L150.147 13.4657L152.026 12.7815ZM151.735 18.0747L149.942 17.1886L149.942 17.1886L151.735 18.0747ZM150.152 20.1642L151.486 21.6539L150.152 20.1642ZM147.834 19.4649L148.758 21.2391L148.762 21.237L147.834 19.4649ZM149.702 17.7837L148.043 16.6677L148.036 16.6771L149.702 17.7837ZM149.974 12.848L148.196 13.7653L148.202 13.7753L149.974 12.848ZM148.301 10.9806L147.185 12.6403L147.194 12.6466L148.301 10.9806ZM143.365 10.7093L144.282 12.4865L144.293 12.4813L143.365 10.7093ZM141.489 12.3815L139.83 11.2655L139.823 11.275L141.489 12.3815ZM141.218 17.3173L139.441 18.2346L139.445 18.2426L139.449 18.2506L141.218 17.3173ZM142.899 19.1851L141.783 20.8448L142.899 19.1851ZM144.91 18.1177L145.255 11.8374L141.261 11.6179L140.916 17.8981L144.91 18.1177ZM143.148 13.7246L146.144 13.8893L146.363 9.89533L143.368 9.73065L143.148 13.7246ZM146.144 13.8893C146.404 13.9036 146.503 13.9558 146.516 13.9629L148.498 10.4888C147.827 10.1055 147.09 9.93526 146.363 9.89533L146.144 13.8893ZM146.516 13.9629C146.536 13.9745 146.532 13.9751 146.516 13.9593C146.509 13.952 146.501 13.9429 146.494 13.9326C146.487 13.9223 146.481 13.9129 146.478 13.9056L150.055 12.1147C149.7 11.4073 149.156 10.8643 148.498 10.4888L146.516 13.9629ZM146.49 13.9294C146.483 13.9151 146.482 13.9086 146.484 13.9187C146.487 13.9304 146.492 13.968 146.488 14.0391L150.482 14.2587C150.522 13.5319 150.402 12.7862 150.042 12.0909L146.49 13.9294ZM146.488 14.0391C146.484 14.1111 146.475 14.1421 146.474 14.1433C146.474 14.1439 146.476 14.1382 146.481 14.1279C146.486 14.1175 146.493 14.1047 146.503 14.0909L149.766 16.4047C150.235 15.743 150.442 14.9937 150.482 14.2587L146.488 14.0391ZM146.503 14.0909C146.508 14.0838 146.515 14.0755 146.523 14.0669C146.531 14.0583 146.54 14.0513 146.546 14.0461C146.561 14.035 146.561 14.0384 146.535 14.0488L148.006 17.7687C148.7 17.4942 149.313 17.0442 149.766 16.4047L146.503 14.0909ZM146.56 14.0393C146.517 14.0556 146.376 14.0956 146.082 14.0794L145.862 18.0733C146.567 18.1121 147.292 18.0403 147.981 17.7782L146.56 14.0393ZM146.082 14.0794L144.108 13.9708L143.888 17.9648L145.862 18.0733L146.082 14.0794ZM145.995 16.0776L146.066 14.7841L142.072 14.5645L142.001 15.858L145.995 16.0776ZM143.959 16.6713L145.644 16.7639L145.864 12.77L144.179 12.6773L143.959 16.6713ZM145.644 16.7639C146.211 16.7951 146.986 16.7017 147.657 16.1494L145.115 13.0614C145.488 12.7544 145.842 12.7688 145.864 12.77L145.644 16.7639ZM147.657 16.1494C148.357 15.5735 148.592 14.7904 148.627 14.1567L144.633 13.9371C144.636 13.8767 144.652 13.7424 144.726 13.5728C144.805 13.3931 144.933 13.2107 145.115 13.0614L147.657 16.1494ZM148.627 14.1567C148.66 13.5528 148.539 12.7184 147.883 12.0442L145.017 14.8348C144.63 14.4372 144.629 14.0077 144.633 13.9371L148.627 14.1567ZM147.912 12.075C147.309 11.4283 146.537 11.2364 145.95 11.2042L145.73 15.1981C145.688 15.1958 145.323 15.1628 144.988 14.8041L147.912 12.075ZM145.95 11.2042L145.099 11.1574L144.879 15.1513L145.73 15.1981L145.95 11.2042ZM142.992 13.0446L142.72 17.9973L146.714 18.2169L146.986 13.2641L142.992 13.0446ZM144.827 16.1101L143.023 16.0109L142.803 20.0049L144.607 20.1041L144.827 16.1101ZM145.369 16.1274L146.556 19.0606L150.264 17.5597L149.077 14.6265L145.369 16.1274ZM148.52 16.3132L146.546 16.2046L146.326 20.1986L148.3 20.3071L148.52 16.3132ZM148.318 17.5253L147.267 14.5996L143.502 15.9521L144.554 18.8779L148.318 17.5253ZM145.275 17.2728L147.113 17.3739L147.333 13.3799L145.494 13.2789L145.275 17.2728ZM145.336 19.8938C144.649 19.856 144.043 19.6956 143.494 19.4246L141.722 23.0107C142.78 23.5336 143.919 23.8219 145.116 23.8877L145.336 19.8938ZM143.494 19.4246C142.916 19.1391 142.426 18.766 142.008 18.3002L139.029 20.9691C139.791 21.8201 140.694 22.5023 141.722 23.0107L143.494 19.4246ZM142.008 18.3002C141.591 17.8344 141.274 17.3057 141.054 16.7L137.295 18.0683C137.687 19.1465 138.267 20.1181 139.029 20.9691L142.008 18.3002ZM141.054 16.7C140.844 16.1253 140.751 15.5047 140.789 14.8184L136.795 14.5988C136.729 15.796 136.891 16.9591 137.295 18.0683L141.054 16.7ZM140.789 14.8184C140.827 14.132 140.987 13.5254 141.258 12.9771L137.672 11.205C137.149 12.2632 136.861 13.4016 136.795 14.5988L140.789 14.8184ZM141.258 12.9771C141.544 12.3992 141.917 11.9084 142.383 11.4912L139.714 8.51176C138.863 9.27403 138.181 10.1763 137.672 11.205L141.258 12.9771ZM142.383 11.4912C142.848 11.0739 143.377 10.7569 143.983 10.5364L142.615 6.77773C141.536 7.17025 140.565 7.74949 139.714 8.51176L142.383 11.4912ZM143.983 10.5364C144.558 10.3272 145.178 10.2342 145.865 10.2719L146.084 6.27796C144.887 6.21214 143.724 6.37392 142.615 6.77773L143.983 10.5364ZM145.865 10.2719C146.551 10.3097 147.158 10.4701 147.706 10.7411L149.478 7.15504C148.42 6.63207 147.281 6.34377 146.084 6.27796L145.865 10.2719ZM147.706 10.7411C148.284 11.0266 148.775 11.3997 149.192 11.8655L152.171 9.19659C151.409 8.34564 150.507 7.66339 149.478 7.15504L147.706 10.7411ZM149.192 11.8655C149.609 12.3313 149.926 12.86 150.147 13.4657L153.905 12.0974C153.513 11.0191 152.933 10.0475 152.171 9.19659L149.192 11.8655ZM150.147 13.4657C150.356 14.0404 150.449 14.661 150.411 15.3473L154.405 15.5669C154.471 14.3697 154.309 13.2066 153.905 12.0973L150.147 13.4657ZM150.411 15.3473C150.373 16.0337 150.213 16.6403 149.942 17.1886L153.528 18.9607C154.051 17.9025 154.339 16.7641 154.405 15.5669L150.411 15.3473ZM149.942 17.1886C149.656 17.7665 149.283 18.2573 148.817 18.6745L151.486 21.6539C152.337 20.8917 153.02 19.9894 153.528 18.9607L149.942 17.1886ZM148.817 18.6745C148.352 19.0917 147.823 19.4088 147.217 19.6293L148.586 23.388C149.664 22.9954 150.635 22.4162 151.486 21.6539L148.817 18.6745ZM147.217 19.6293C146.643 19.8385 146.022 19.9315 145.336 19.8938L145.116 23.8877C146.313 23.9535 147.476 23.7918 148.586 23.388L147.217 19.6293ZM145.221 21.9815C146.465 22.0499 147.659 21.8108 148.758 21.2391L146.911 17.6908C146.487 17.9117 146.012 18.019 145.44 17.9876L145.221 21.9815ZM148.762 21.237C149.827 20.6798 150.704 19.8909 151.368 18.8903L148.036 16.6771C147.746 17.1149 147.377 17.4468 146.907 17.6929L148.762 21.237ZM151.362 18.8997C152.055 17.8688 152.43 16.7077 152.499 15.4621L148.505 15.2425C148.474 15.801 148.316 16.2609 148.043 16.6677L151.362 18.8997ZM152.499 15.4621C152.567 14.2165 152.322 13.0213 151.746 11.9206L148.202 13.7753C148.429 14.2097 148.535 14.684 148.505 15.2425L152.499 15.4621ZM151.751 11.9307C151.199 10.8609 150.41 9.98072 149.407 9.31462L147.194 12.6466C147.63 12.9359 147.957 13.3006 148.196 13.7653L151.751 11.9307ZM149.417 9.3209C148.386 8.62773 147.225 8.25265 145.979 8.18417L145.76 12.1781C146.318 12.2088 146.778 12.3667 147.185 12.6403L149.417 9.3209ZM145.979 8.18417C144.734 8.1157 143.539 8.36124 142.438 8.93724L144.293 12.4813C144.727 12.254 145.201 12.1474 145.76 12.1781L145.979 8.18417ZM142.448 8.93202C141.38 9.48296 140.5 10.2683 139.83 11.2656L143.149 13.4975C143.445 13.0571 143.815 12.7275 144.282 12.4865L142.448 8.93202ZM139.823 11.275C139.139 12.305 138.77 13.4629 138.701 14.7036L142.695 14.9232C142.726 14.3597 142.884 13.8964 143.155 13.4881L139.823 11.275ZM138.701 14.7036C138.633 15.9443 138.874 17.1357 139.441 18.2346L142.995 16.4C142.77 15.9644 142.664 15.4866 142.695 14.9232L138.701 14.7036ZM139.449 18.2506C140.006 19.3065 140.792 20.1781 141.783 20.8448L144.015 17.5254C143.569 17.2254 143.234 16.8517 142.987 16.384L139.449 18.2506ZM141.783 20.8448C142.814 21.538 143.975 21.913 145.221 21.9815L145.44 17.9876C144.882 17.9568 144.422 17.799 144.015 17.5254L141.783 20.8448Z" fill="white"/>
</svg>
