<svg width="114" height="25" viewBox="0 0 114 25" fill="none" xmlns="http://www.w3.org/2000/svg">
<path d="M0.944219 17.8652L-1.05277 17.7555L-1.16255 19.7524L0.834436 19.8622L0.944219 17.8652ZM1.90233 0.437006L2.01211 -1.55998L0.0151244 -1.66976L-0.0946587 0.327222L1.90233 0.437006ZM14.4629 1.12752L16.4599 1.2373L16.5697 -0.759685L14.5727 -0.869468L14.4629 1.12752ZM14.2533 4.93994L14.1435 6.93693L16.1405 7.04671L16.2503 5.04973L14.2533 4.93994ZM6.42423 4.50954L6.53402 2.51256L4.53703 2.40277L4.42725 4.39976L6.42423 4.50954ZM6.25956 7.50502L4.26257 7.39524L4.15279 9.39222L6.14977 9.502L6.25956 7.50502ZM13.4419 7.89986L15.4389 8.00965L15.5487 6.01266L13.5517 5.90288L13.4419 7.89986ZM13.2323 11.7123L13.1225 13.7093L15.1195 13.8191L15.2293 11.8221L13.2323 11.7123ZM6.04997 11.3174L6.15975 9.32046L4.16277 9.21068L4.05299 11.2077L6.04997 11.3174ZM5.8853 14.3129L3.88831 14.2031L3.77853 16.2001L5.77551 16.3099L5.8853 14.3129ZM13.6803 14.7414L15.6773 14.8512L15.7871 12.8542L13.7901 12.7445L13.6803 14.7414ZM13.4708 18.5539L13.361 20.5509L15.358 20.6606L15.4677 18.6637L13.4708 18.5539ZM2.9412 17.975L3.89931 0.546789L-0.0946587 0.327222L-1.05277 17.7555L2.9412 17.975ZM1.79254 2.43399L14.3531 3.1245L14.5727 -0.869468L2.01211 -1.55998L1.79254 2.43399ZM12.4659 1.01773L12.2563 4.83016L16.2503 5.04973L16.4599 1.2373L12.4659 1.01773ZM14.3631 2.94296L6.53402 2.51256L6.31445 6.50653L14.1435 6.93693L14.3631 2.94296ZM4.42725 4.39976L4.26257 7.39524L8.25654 7.6148L8.42122 4.61933L4.42725 4.39976ZM6.14977 9.502L13.3321 9.89685L13.5517 5.90288L6.36934 5.50803L6.14977 9.502ZM11.4449 7.79008L11.2353 11.6025L15.2293 11.8221L15.4389 8.00965L11.4449 7.79008ZM13.3421 9.7153L6.15975 9.32046L5.94019 13.3144L13.1225 13.7093L13.3421 9.7153ZM4.05299 11.2077L3.88831 14.2031L7.88228 14.4227L8.04696 11.4272L4.05299 11.2077ZM5.77551 16.3099L13.5706 16.7384L13.7901 12.7445L5.99508 12.3159L5.77551 16.3099ZM11.6834 14.6317L11.4738 18.4441L15.4677 18.6637L15.6773 14.8512L11.6834 14.6317ZM13.5805 16.5569L1.054 15.8683L0.834436 19.8622L13.361 20.5509L13.5805 16.5569ZM29.8113 6.34151L31.6694 7.08152L32.6986 4.49722L29.9211 4.34453L29.8113 6.34151ZM24.7017 19.1713L24.5919 21.1683L26.0277 21.2472L26.5597 19.9113L24.7017 19.1713ZM19.2553 18.8719L17.3274 19.4037L17.7098 20.7899L19.1456 20.8689L19.2553 18.8719ZM15.5828 5.55931L15.6926 3.56232L12.9151 3.40963L13.6548 6.09118L15.5828 5.55931ZM20.5186 5.83065L22.4846 5.46375L22.1965 3.91987L20.6283 3.83366L20.5186 5.83065ZM22.1537 14.5927L20.1876 14.9596L20.4758 16.5035L22.0439 16.5897L22.1537 14.5927ZM22.2899 14.6002L22.1801 16.5972L23.7482 16.6834L24.2038 15.1804L22.2899 14.6002ZM24.8756 6.07017L24.9854 4.07319L23.4172 3.98698L22.9616 5.48997L24.8756 6.07017ZM27.9533 5.60151L22.8436 18.4313L26.5597 19.9113L31.6694 7.08152L27.9533 5.60151ZM24.8115 17.1743L19.3651 16.8749L19.1456 20.8689L24.5919 21.1683L24.8115 17.1743ZM21.1833 18.34L17.5108 5.02744L13.6548 6.09118L17.3274 19.4037L21.1833 18.34ZM15.473 7.55629L20.4088 7.82763L20.6283 3.83366L15.6926 3.56232L15.473 7.55629ZM18.5525 6.19755L20.1876 14.9596L24.1198 14.2258L22.4846 5.46375L18.5525 6.19755ZM22.0439 16.5897L22.1801 16.5972L22.3996 12.6032L22.2635 12.5957L22.0439 16.5897ZM24.2038 15.1804L26.7896 6.65038L22.9616 5.48997L20.3759 14.02L24.2038 15.1804ZM24.7658 8.06716L29.7016 8.3385L29.9211 4.34453L24.9854 4.07319L24.7658 8.06716ZM32.7169 19.0486L31.6758 20.7563L31.6873 20.7632L32.7169 19.0486ZM30.521 16.6062L28.7075 17.4496L28.7132 17.4618L30.521 16.6062ZM30.9234 9.44132L32.629 10.4859L30.9234 9.44132ZM33.3592 7.21087L34.2469 9.00305L34.2469 9.00305L33.3592 7.21087ZM39.5754 7.1685L40.3922 5.34286L39.5754 7.1685ZM41.5528 8.6173L40.0436 9.92961L40.05 9.93693L41.5528 8.6173ZM42.7473 10.7998L40.8363 11.3896L40.8363 11.3896L42.7473 10.7998ZM42.9931 14.7141L42.8833 16.7111L44.8803 16.8208L44.9901 14.8238L42.9931 14.7141ZM31.3175 14.0722L29.3205 13.9624L29.2108 15.9594L31.2078 16.0692L31.3175 14.0722ZM31.4598 11.4852L31.5695 9.48822L29.5726 9.37844L29.4628 11.3754L31.4598 11.4852ZM38.8123 11.8894L38.7025 13.8864L40.73 13.9979L40.8107 11.9689L38.8123 11.8894ZM38.5772 10.8864L36.8273 11.8547L36.8384 11.8749L36.85 11.8948L38.5772 10.8864ZM37.8738 10.1734L36.8323 11.8808L36.851 11.8922L36.87 11.9032L37.8738 10.1734ZM35.7804 10.0583L36.5753 11.8935L36.5883 11.8879L36.6012 11.8821L35.7804 10.0583ZM34.978 10.68L33.3884 9.46625L33.38 9.47722L33.3718 9.48831L34.978 10.68ZM34.6254 11.6592L32.6326 11.4899L32.6301 11.5197L32.6284 11.5495L34.6254 11.6592ZM34.674 15.5883L32.8611 16.4328L34.674 15.5883ZM35.3888 16.4043L34.3059 18.0857L35.3888 16.4043ZM37.4573 16.6631L36.9299 14.7339L36.9177 14.7373L37.4573 16.6631ZM38.1766 16.31L39.4156 17.8801L39.4284 17.87L39.441 17.8597L38.1766 16.31ZM38.6367 15.7037L38.7465 13.7067L37.3588 13.6304L36.8034 14.9044L38.6367 15.7037ZM42.9257 15.9395L44.8792 16.3682L45.3832 14.0716L43.0355 13.9425L42.9257 15.9395ZM41.749 18.2477L43.2162 19.6068L43.2219 19.6006L41.749 18.2477ZM39.4768 19.6763L40.1206 21.5698L40.1267 21.5677L39.4768 19.6763ZM36.3909 18.0499C35.249 17.9871 34.3926 17.7219 33.7466 17.334L31.6873 20.7632C33.0023 21.5528 34.522 21.9532 36.1714 22.0438L36.3909 18.0499ZM33.7581 17.3409C33.1176 16.9504 32.6516 16.4328 32.3287 15.7506L28.7132 17.4618C29.3692 18.8477 30.3672 19.9584 31.6758 20.7562L33.7581 17.3409ZM32.3345 15.7628C32.0178 15.0819 31.8454 14.1995 31.9088 13.0463L27.9149 12.8267C27.8236 14.4875 28.0573 16.0515 28.7075 17.4496L32.3345 15.7628ZM31.9088 13.0463C31.9681 11.9684 32.2302 11.137 32.629 10.4859L29.2179 8.39675C28.4164 9.70542 28.0041 11.2042 27.9149 12.8267L31.9088 13.0463ZM32.629 10.4859C33.0336 9.82526 33.5629 9.34188 34.2469 9.00305L32.4714 5.41868C31.1081 6.094 30.0136 7.09759 29.2179 8.39675L32.629 10.4859ZM34.2469 9.00305C34.9089 8.67513 35.7411 8.49981 36.8103 8.55858L37.0299 4.56462C35.3985 4.47494 33.8568 4.73246 32.4714 5.41868L34.2469 9.00305ZM36.8103 8.55858C37.59 8.60145 38.2301 8.75764 38.7587 8.99413L40.3922 5.34286C39.3546 4.87869 38.2244 4.63029 37.0299 4.56462L36.8103 8.55858ZM38.7587 8.99413C39.2904 9.23201 39.709 9.5448 40.0436 9.92959L43.0621 7.305C42.3263 6.45872 41.4266 5.80565 40.3922 5.34286L38.7587 8.99413ZM40.05 9.93693C40.3834 10.3166 40.651 10.7893 40.8363 11.3896L44.6584 10.21C44.322 9.11998 43.7934 8.13773 43.0557 7.29766L40.05 9.93693ZM40.8363 11.3896C41.0162 11.9726 41.1023 12.6726 41.056 13.515L45.05 13.7346C45.1178 12.5006 45.0001 11.3173 44.6584 10.21L40.8363 11.3896ZM41.056 13.515L40.9961 14.6043L44.9901 14.8238L45.05 13.7346L41.056 13.515ZM43.1029 12.7171L31.4273 12.0752L31.2078 16.0692L42.8833 16.7111L43.1029 12.7171ZM33.3145 14.182L33.4567 11.595L29.4628 11.3754L29.3205 13.9624L33.3145 14.182ZM31.35 13.4822L38.7025 13.8864L38.9221 9.89242L31.5695 9.48822L31.35 13.4822ZM40.8107 11.9689C40.8392 11.2533 40.6876 10.5344 40.3044 9.87796L36.85 11.8948C36.8345 11.8682 36.8233 11.839 36.8175 11.8139C36.8119 11.7903 36.8148 11.7862 36.8139 11.8099L40.8107 11.9689ZM40.3271 9.91797C39.9817 9.29378 39.4857 8.79641 38.8777 8.44354L36.87 11.9032C36.8756 11.9065 36.8672 11.9022 36.8534 11.8882C36.8394 11.874 36.8306 11.8607 36.8273 11.8547L40.3271 9.91797ZM38.9154 8.46599C38.3023 8.09197 37.6296 7.9094 36.9505 7.87206L36.7309 11.866C36.7863 11.8691 36.8164 11.8765 36.8274 11.8798C36.8375 11.8827 36.8371 11.8837 36.8323 11.8808L38.9154 8.46599ZM36.9505 7.87206C36.2713 7.83472 35.5963 7.94789 34.9596 8.2345L36.6012 11.8821C36.6179 11.8746 36.6499 11.8616 36.7309 11.866L36.9505 7.87206ZM34.9855 8.22304C34.357 8.49526 33.8118 8.91163 33.3884 9.46625L36.5676 11.8937C36.5685 11.8926 36.568 11.8934 36.566 11.8953C36.5641 11.8972 36.5619 11.8992 36.5599 11.9007C36.5579 11.9023 36.5574 11.9025 36.5591 11.9015C36.5608 11.9005 36.5659 11.8976 36.5753 11.8935L34.9855 8.22304ZM33.3718 9.48831C32.9221 10.0944 32.6924 10.7856 32.6326 11.4899L36.6182 11.8286C36.6211 11.7956 36.6252 11.7916 36.6195 11.8073C36.6168 11.8148 36.6125 11.8251 36.6061 11.8371C36.5996 11.8492 36.5922 11.8609 36.5842 11.8716L33.3718 9.48831ZM32.6284 11.5495L32.475 14.3407L36.469 14.5603L36.6224 11.769L32.6284 11.5495ZM32.475 14.3407C32.4362 15.0472 32.5478 15.7603 32.8611 16.4328L36.487 14.7438C36.4847 14.7389 36.4616 14.6934 36.469 14.5603L32.475 14.3407ZM32.8611 16.4328C33.1808 17.1191 33.6746 17.6791 34.3059 18.0857L36.4718 14.7229C36.466 14.7191 36.4646 14.7177 36.4662 14.7191C36.468 14.7206 36.4714 14.7238 36.4755 14.7285C36.4797 14.7332 36.4831 14.7379 36.4855 14.7416C36.4879 14.7453 36.4882 14.7464 36.487 14.7438L32.8611 16.4328ZM34.3059 18.0857C34.9759 18.5173 35.7221 18.7073 36.455 18.7476L36.6746 14.7537C36.477 14.7428 36.4393 14.702 36.4718 14.7229L34.3059 18.0857ZM36.455 18.7476C36.9654 18.7757 37.4855 18.7323 37.9969 18.589L36.9177 14.7373C36.8858 14.7462 36.8109 14.7612 36.6746 14.7537L36.455 18.7476ZM37.9847 18.5924C38.4908 18.454 38.9795 18.2242 39.4156 17.8801L36.9377 14.74C36.9443 14.7348 36.9502 14.7307 36.9551 14.7277C36.9599 14.7246 36.963 14.723 36.9638 14.7226C36.9657 14.7217 36.9558 14.7268 36.9299 14.7339L37.9847 18.5924ZM39.441 17.8597C39.8895 17.4938 40.2383 17.0347 40.4701 16.503L36.8034 14.9044C36.8131 14.8823 36.8284 14.8544 36.8504 14.8255C36.8723 14.7966 36.8946 14.7748 36.9123 14.7604L39.441 17.8597ZM38.527 17.7007L42.8159 17.9365L43.0355 13.9425L38.7465 13.7067L38.527 17.7007ZM40.9722 15.5108C40.8457 16.0872 40.6093 16.5318 40.276 16.8948L43.2219 19.6006C44.0628 18.6852 44.6109 17.591 44.8792 16.3682L40.9722 15.5108ZM40.2817 16.8886C39.9482 17.2486 39.4857 17.5584 38.8269 17.7848L40.1267 21.5677C41.3238 21.1564 42.3761 20.5138 43.2162 19.6068L40.2817 16.8886ZM38.8329 17.7827C38.2042 17.9965 37.4037 18.1056 36.3909 18.0499L36.1714 22.0438C37.5754 22.121 38.9053 21.983 40.1206 21.5698L38.8329 17.7827ZM44.6105 20.2658L42.6135 20.156L42.5038 22.153L44.5007 22.2628L44.6105 20.2658ZM45.3291 7.19459L45.4389 5.19761L43.4419 5.08783L43.3321 7.08481L45.3291 7.19459ZM49.8904 7.44535L51.8874 7.55513L51.9972 5.55815L50.0002 5.44836L49.8904 7.44535ZM49.7538 9.93023L47.7568 9.82045L47.647 11.8174L49.644 11.9272L49.7538 9.93023ZM49.89 9.93772L49.7802 11.9347L51.3254 12.0197L51.7955 10.5452L49.89 9.93772ZM51.1326 7.9831L49.9559 6.36588L49.9473 6.37223L51.1326 7.9831ZM53.5987 7.52972L53.1531 9.47944L53.1841 9.48652L53.2153 9.49261L53.5987 7.52972ZM54.1789 7.68964L56.1759 7.79943L56.2573 6.31791L54.8631 5.81032L54.1789 7.68964ZM53.9586 11.6978L53.2094 13.5522L55.8021 14.5997L55.9556 11.8076L53.9586 11.6978ZM53.1089 11.4718L53.4494 9.50103L53.4493 9.50103L53.1089 11.4718ZM50.9759 11.6106L51.8593 13.405L51.8684 13.4005L50.9759 11.6106ZM50.0687 12.4314L51.7499 13.5147L51.7569 13.5037L50.0687 12.4314ZM49.308 20.524L49.1982 22.521L51.1952 22.6308L51.305 20.6338L49.308 20.524ZM46.6075 20.3755L47.3261 7.30438L43.3321 7.08481L42.6135 20.156L46.6075 20.3755ZM45.2193 9.19158L49.7806 9.44233L50.0002 5.44836L45.4389 5.19761L45.2193 9.19158ZM47.8934 7.33557L47.7568 9.82045L51.7508 10.04L51.8874 7.55513L47.8934 7.33557ZM49.644 11.9272L49.7802 11.9347L49.9997 7.94073L49.8636 7.93325L49.644 11.9272ZM51.7955 10.5452C52.0081 9.87825 52.2341 9.65571 52.318 9.59396L49.9473 6.37223C48.9519 7.10471 48.3494 8.18525 47.9844 9.33028L51.7955 10.5452ZM52.3094 9.60029C52.468 9.48487 52.6315 9.42834 52.8876 9.44242L53.1071 5.44846C51.9676 5.38581 50.888 5.68772 49.9559 6.3659L52.3094 9.60029ZM52.8876 9.44242C52.9803 9.44752 53.0684 9.46006 53.1531 9.47944L54.0444 5.57999C53.7358 5.50946 53.4229 5.46581 53.1071 5.44846L52.8876 9.44242ZM53.2153 9.49261C53.3212 9.5133 53.4136 9.53945 53.4947 9.56897L54.8631 5.81032C54.576 5.70578 54.2817 5.62532 53.9822 5.56682L53.2153 9.49261ZM52.1819 7.57986L51.9616 11.588L55.9556 11.8076L56.1759 7.79943L52.1819 7.57986ZM54.7078 9.84343C54.3077 9.68177 53.8772 9.57495 53.4494 9.50103L52.7684 13.4426C53.017 13.4856 53.153 13.5294 53.2094 13.5522L54.7078 9.84343ZM53.4493 9.50103C53.0627 9.43424 52.6906 9.38607 52.3454 9.3671L52.1259 13.3611C52.2686 13.3689 52.4786 13.3926 52.7684 13.4426L53.4493 9.50103ZM52.3454 9.3671C51.5691 9.32442 50.7997 9.46365 50.0834 9.82083L51.8684 13.4005C51.9127 13.3784 51.9831 13.3532 52.1259 13.3611L52.3454 9.3671ZM50.0925 9.8163C49.3783 10.1679 48.8016 10.6961 48.3804 11.3591L51.7569 13.5037C51.7968 13.4409 51.8248 13.4219 51.8593 13.405L50.0925 9.8163ZM48.3875 11.3481C47.9386 12.0447 47.7284 12.8222 47.6853 13.6063L51.6792 13.8259C51.691 13.6115 51.7384 13.5325 51.7499 13.5147L48.3875 11.3481ZM47.6853 13.6063L47.311 20.4142L51.305 20.6338L51.6792 13.8259L47.6853 13.6063ZM49.4178 18.527L44.7203 18.2688L44.5007 22.2628L49.1982 22.521L49.4178 18.527ZM80.442 18.4202L82.1239 19.5024L82.1259 19.4993L80.442 18.4202ZM77.2209 21.2732L78.0604 23.0885L78.0667 23.0856L77.2209 21.2732ZM68.6264 20.7922L67.578 22.4954L67.587 22.5009L68.6264 20.7922ZM65.7464 17.5952L63.9515 18.4775L63.956 18.4866L65.7464 17.5952ZM66.2848 7.80035L64.601 6.7212L64.5995 6.72357L66.2848 7.80035ZM69.4975 4.94682L70.3403 6.76053L70.3433 6.75917L69.4975 4.94682ZM78.0924 5.41932L77.0531 7.12805L77.0589 7.13161L78.0924 5.41932ZM80.9814 8.60828L79.1894 9.49635L79.191 9.49962L80.9814 8.60828ZM76.7041 10.6436L74.7973 11.2469L74.8002 11.256L74.8031 11.2651L76.7041 10.6436ZM75.577 8.94281L74.3397 10.5141L74.3492 10.5216L74.3588 10.5289L75.577 8.94281ZM71.62 8.72527L72.6655 10.4303L72.6692 10.428L71.62 8.72527ZM70.3132 10.2923L68.4896 9.471L68.4861 9.47876L70.3132 10.2923ZM70.0227 15.5769L68.1159 16.1802L68.1187 16.1893L68.1217 16.1984L70.0227 15.5769ZM71.1498 17.2777L69.9124 18.849L69.9219 18.8565L69.9315 18.8638L71.1498 17.2777ZM75.1069 17.4952L76.1524 19.2002L76.1561 19.1979L75.1069 17.4952ZM76.4136 15.9282L74.59 15.107L74.5865 15.1147L76.4136 15.9282ZM79.8468 13.4624C79.7541 15.1482 79.3563 16.4076 78.7581 17.341L82.1259 19.4993C83.1833 17.8493 83.7201 15.8767 83.8407 13.682L79.8468 13.4624ZM78.7601 17.3379C78.1261 18.3232 77.3355 19.0127 76.3751 19.4609L78.0667 23.0856C79.7461 22.3018 81.1028 21.0892 82.1239 19.5024L78.7601 17.3379ZM76.3813 19.458C75.3838 19.9193 74.265 20.132 72.9855 20.0616L72.766 24.0556C74.6408 24.1587 76.4188 23.8477 78.0604 23.0885L76.3813 19.458ZM72.9855 20.0616C71.6949 19.9907 70.6033 19.6538 69.6657 19.0835L67.587 22.5009C69.1382 23.4445 70.8796 23.9519 72.766 24.0556L72.9855 20.0616ZM69.6748 19.089C68.7714 18.533 68.0607 17.7563 67.5368 16.7039L63.956 18.4866C64.7951 20.1721 66.0044 21.5268 67.578 22.4954L69.6748 19.089ZM67.5412 16.7129C67.0517 15.7169 66.797 14.4244 66.889 12.7501L62.8951 12.5305C62.7751 14.7139 63.0899 16.7248 63.9515 18.4775L67.5412 16.7129ZM66.889 12.7501C66.9819 11.0616 67.3777 9.80452 67.9702 8.87713L64.5995 6.72357C63.5482 8.36892 63.0156 10.3385 62.8951 12.5305L66.889 12.7501ZM67.9687 8.87949C68.6043 7.88776 69.3915 7.2015 70.3403 6.76053L68.6546 3.13311C66.9756 3.91337 65.6211 5.12947 64.601 6.7212L67.9687 8.87949ZM70.3433 6.75917C71.3377 6.29506 72.4596 6.07988 73.7503 6.15083L73.9698 2.15686C72.0835 2.05316 70.297 2.36663 68.6517 3.13447L70.3433 6.75917ZM73.7503 6.15083C75.027 6.22102 76.1134 6.55648 77.0531 7.12804L79.1318 3.71061C77.5826 2.76827 75.8474 2.26008 73.9698 2.15686L73.7503 6.15083ZM77.0589 7.13161C77.9591 7.6749 78.6675 8.44325 79.1894 9.49634L82.7734 7.72022C81.9328 6.02393 80.7152 4.6663 79.1259 3.70704L77.0589 7.13161ZM79.191 9.49962C79.6817 10.4853 79.9395 11.7762 79.8468 13.4624L83.8407 13.682C83.9614 11.4876 83.6442 9.46926 82.7718 7.71694L79.191 9.49962ZM78.9731 13.4144C79.0395 12.2065 78.9432 11.0562 78.6051 10.0221L74.8031 11.2651C74.9425 11.6912 75.0275 12.3149 74.9791 13.1948L78.9731 13.4144ZM78.611 10.0403C78.2775 8.98629 77.6937 8.04674 76.7953 7.35668L74.3588 10.5289C74.4977 10.6357 74.6654 10.83 74.7973 11.2469L78.611 10.0403ZM76.8144 7.37154C75.918 6.66558 74.8526 6.33662 73.7434 6.27564L73.5238 10.2696C73.9805 10.2947 74.2107 10.4125 74.3397 10.5141L76.8144 7.37154ZM73.7434 6.27564C72.6335 6.21462 71.5402 6.42516 70.5707 7.0226L72.6692 10.428C72.8188 10.3358 73.068 10.2445 73.5238 10.2696L73.7434 6.27564ZM70.5745 7.0203C69.6176 7.60703 68.9399 8.47111 68.4896 9.47101L72.1368 11.1135C72.3217 10.703 72.5151 10.5224 72.6654 10.4302L70.5745 7.0203ZM68.4861 9.47876C68.0467 10.4658 67.8289 11.594 67.7627 12.7981L71.7567 13.0177C71.8053 12.134 71.9565 11.5185 72.1403 11.1058L68.4861 9.47876ZM67.7627 12.7981C67.6965 14.003 67.7895 15.1486 68.1159 16.1802L71.9295 14.9736C71.7905 14.5342 71.7082 13.9005 71.7567 13.0177L67.7627 12.7981ZM68.1217 16.1984C68.4609 17.2358 69.038 18.1604 69.9124 18.849L72.3872 15.7064C72.2362 15.5875 72.0619 15.3782 71.9237 14.9554L68.1217 16.1984ZM69.9315 18.8638C70.829 19.5531 71.8885 19.8761 72.9924 19.9368L73.212 15.9429C72.75 15.9175 72.508 15.799 72.3681 15.6916L69.9315 18.8638ZM72.9924 19.9368C74.0955 19.9975 75.1858 19.7929 76.1524 19.2002L74.0614 15.7903C73.9208 15.8764 73.6747 15.9683 73.212 15.9429L72.9924 19.9368ZM76.1561 19.1979C77.1126 18.6085 77.7931 17.747 78.2407 16.7418L74.5865 15.1147C74.4109 15.5092 74.2203 15.6923 74.0576 15.7926L76.1561 19.1979ZM78.2372 16.7495C78.6846 15.7561 78.9066 14.623 78.9731 13.4144L74.9791 13.1948C74.9308 14.0739 74.7778 14.6899 74.59 15.107L78.2372 16.7495ZM88.7236 15.3161L86.7282 15.1801L86.7273 15.1932L86.7266 15.2063L88.7236 15.3161ZM88.3194 22.6686L88.2096 24.6656L90.2066 24.7754L90.3164 22.7784L88.3194 22.6686ZM83.6219 22.4104L81.625 22.3006L81.5152 24.2976L83.5122 24.4074L83.6219 22.4104ZM84.3405 9.33922L84.4503 7.34224L82.4533 7.23246L82.3435 9.22944L84.3405 9.33922ZM88.7997 9.58437L90.7967 9.69415L90.9065 7.69716L88.9095 7.58738L88.7997 9.58437ZM88.6631 12.0692L86.6661 11.9595L86.5563 13.9565L88.5533 14.0662L88.6631 12.0692ZM88.7992 12.0767L88.6895 14.0737L90.1164 14.1522L90.6529 12.8276L88.7992 12.0767ZM90.4041 10.2103L89.4035 8.47859L89.3972 8.48224L90.4041 10.2103ZM95.3351 10.4131L94.1836 12.0484L94.1915 12.054L94.1995 12.0595L95.3351 10.4131ZM96.831 12.2366L95.0006 13.0427L95.0056 13.0539L96.831 12.2366ZM97.2537 14.7949L95.2574 14.6732L95.2567 14.6851L97.2537 14.7949ZM96.7952 23.1346L96.6854 25.1316L98.6824 25.2414L98.7922 23.2444L96.7952 23.1346ZM92.0978 22.8764L90.1008 22.7666L89.991 24.7636L91.988 24.8733L92.0978 22.8764ZM92.502 15.5238L90.506 15.3965L90.5055 15.4053L90.505 15.414L92.502 15.5238ZM92.0921 13.9734L90.529 15.2211L90.5343 15.2277L90.5397 15.2343L92.0921 13.9734ZM89.7172 13.5441L90.6242 15.3267L90.6351 15.321L89.7172 13.5441ZM89.0227 14.2229L90.7597 15.2142L90.7634 15.2079L90.7669 15.2015L89.0227 14.2229ZM86.7266 15.2063L86.3224 22.5589L90.3164 22.7784L90.7206 15.4259L86.7266 15.2063ZM88.4292 20.6717L83.7317 20.4134L83.5122 24.4074L88.2096 24.6656L88.4292 20.6717ZM85.6189 22.5202L86.3375 9.44901L82.3435 9.22944L81.625 22.3006L85.6189 22.5202ZM84.2307 11.3362L88.6899 11.5813L88.9095 7.58738L84.4503 7.34224L84.2307 11.3362ZM86.8027 9.47458L86.6661 11.9595L90.6601 12.179L90.7967 9.69415L86.8027 9.47458ZM88.5533 14.0662L88.6895 14.0737L88.909 10.0798L88.7729 10.0723L88.5533 14.0662ZM90.6529 12.8276C90.82 12.4153 91.0623 12.1415 91.411 11.9384L89.3972 8.48224C88.2645 9.14224 87.4369 10.1128 86.9455 11.3259L90.6529 12.8276ZM91.4047 11.942C91.777 11.7269 92.2356 11.6056 92.8521 11.6395L93.0717 7.64548C91.7706 7.57396 90.524 7.83117 89.4035 8.4786L91.4047 11.942ZM92.8521 11.6395C93.4606 11.6729 93.8769 11.8324 94.1836 12.0484L96.4866 8.77785C95.4784 8.06793 94.3126 7.7137 93.0717 7.64548L92.8521 11.6395ZM94.1995 12.0595C94.5491 12.3006 94.8117 12.6137 95.0006 13.0427L98.6613 11.4305C98.1825 10.3433 97.4478 9.44072 96.4706 8.76674L94.1995 12.0595ZM95.0056 13.0539C95.1956 13.4782 95.2983 14.0022 95.2574 14.6732L99.25 14.9167C99.3246 13.6934 99.1455 12.5118 98.6564 11.4193L95.0056 13.0539ZM95.2567 14.6851L94.7982 23.0248L98.7922 23.2444L99.2507 14.9047L95.2567 14.6851ZM96.905 21.1376L92.2076 20.8794L91.988 24.8733L96.6854 25.1316L96.905 21.1376ZM94.0948 22.9861L94.499 15.6336L90.505 15.414L90.1008 22.7666L94.0948 22.9861ZM94.4979 15.6511C94.5613 14.6571 94.3619 13.5957 93.6446 12.7125L90.5397 15.2343C90.5249 15.2161 90.5132 15.1973 90.505 15.1811C90.4971 15.1652 90.4955 15.1575 90.4969 15.1625C90.4999 15.1742 90.5157 15.2441 90.506 15.3965L94.4979 15.6511ZM93.6553 12.7258C92.922 11.8071 91.8924 11.4046 90.8537 11.3475L90.6342 15.3415C90.7222 15.3463 90.7243 15.3601 90.678 15.3385C90.6551 15.3278 90.6268 15.3114 90.5975 15.2883C90.5682 15.2653 90.5453 15.2415 90.529 15.2211L93.6553 12.7258ZM90.8537 11.3475C90.1659 11.3097 89.4597 11.4261 88.7994 11.7672L90.6351 15.321C90.6232 15.3272 90.6115 15.3321 90.6009 15.3358C90.5904 15.3394 90.583 15.3411 90.5796 15.3417C90.5726 15.3431 90.5884 15.339 90.6342 15.3415L90.8537 11.3475ZM88.8103 11.7616C88.1435 12.1008 87.63 12.6177 87.2784 13.2443L90.7669 15.2015C90.7658 15.2035 90.7525 15.226 90.722 15.2558C90.6907 15.2864 90.6557 15.3106 90.6242 15.3266L88.8103 11.7616ZM87.2856 13.2316C86.9326 13.8503 86.7729 14.5241 86.7282 15.1801L90.719 15.4521C90.733 15.2464 90.7728 15.1914 90.7597 15.2142L87.2856 13.2316ZM103.519 15.6856L101.522 15.5758L101.412 17.5728L103.409 17.6826L103.519 15.6856ZM103.864 9.40533L103.974 7.40834L101.977 7.29856L101.867 9.29554L103.864 9.40533ZM108.113 9.90351L107.122 11.6406L107.122 11.6406L108.113 9.90351ZM108.872 10.6878L107.084 11.5833L107.09 11.5953L107.096 11.6071L108.872 10.6878ZM108.741 12.9255L110.372 14.0824L110.372 14.0824L108.741 12.9255ZM107.877 13.5864L108.587 15.4559L108.6 15.4512L108.612 15.4463L107.877 13.5864ZM104.604 13.6455L102.607 13.5357L102.497 15.5327L104.494 15.6425L104.604 13.6455ZM104.675 12.352L104.785 10.355L102.788 10.2453L102.678 12.2422L104.675 12.352ZM106.992 12.2831L108.263 13.827L108.263 13.827L106.992 12.2831ZM107.056 11.1172L105.594 12.4818L105.609 12.4973L105.623 12.5125L107.056 11.1172ZM105.595 10.832L105.705 8.83506L103.708 8.72528L103.598 10.7223L105.595 10.832ZM105.323 15.7848L105.213 17.7818L107.21 17.8916L107.32 15.8946L105.323 15.7848ZM107.829 13.0546L109.683 12.3042L109.206 11.1273L107.939 11.0576L107.829 13.0546ZM109.016 15.9878L108.907 17.9848L112.052 18.1578L110.87 15.2374L109.016 15.9878ZM107.042 15.8793L105.16 16.5556L105.608 17.8035L106.932 17.8763L107.042 15.8793ZM105.991 12.9535L106.101 10.9566L103.089 10.791L104.109 13.6298L105.991 12.9535ZM103.214 18.8953L104.101 17.1023L103.214 18.8953ZM99.7805 15.0619L97.9012 15.746L97.9012 15.746L99.7805 15.0619ZM100.071 9.76871L98.2785 8.88264L98.2785 8.88265L100.071 9.76871ZM103.905 6.33475L104.589 8.21409L103.905 6.33475ZM111.288 8.20874L112.777 6.87428L112.777 6.87428L111.288 8.20874ZM112.632 10.4592L110.753 11.1434L110.753 11.1434L112.632 10.4592ZM112.341 15.7524L110.548 14.8663L110.548 14.8663L112.341 15.7524ZM110.758 17.8419L112.093 19.3316L110.758 17.8419ZM108.441 17.1426L109.364 18.9168L109.368 18.9147L108.441 17.1426ZM110.309 15.4614L108.649 14.3454L108.643 14.3548L110.309 15.4614ZM110.58 10.5256L108.803 11.443L108.808 11.453L110.58 10.5256ZM108.907 8.65829L107.791 10.318L107.801 10.3243L108.907 8.65829ZM103.971 8.38695L104.889 10.1642L104.899 10.159L103.971 8.38695ZM102.096 10.0592L100.436 8.94323L100.43 8.95265L102.096 10.0592ZM101.824 14.995L100.047 15.9123L100.051 15.9203L100.055 15.9283L101.824 14.995ZM103.505 16.8628L102.389 18.5225L103.505 16.8628ZM105.516 15.7954L105.861 9.51511L101.867 9.29554L101.522 15.5758L105.516 15.7954ZM103.754 11.4023L106.75 11.567L106.969 7.57302L103.974 7.40834L103.754 11.4023ZM106.75 11.567C107.011 11.5813 107.109 11.6335 107.122 11.6406L109.104 8.16646C108.433 7.78316 107.696 7.61295 106.969 7.57302L106.75 11.567ZM107.122 11.6406C107.142 11.6522 107.138 11.6528 107.122 11.637C107.115 11.6297 107.108 11.6206 107.1 11.6103C107.093 11.6 107.088 11.5906 107.084 11.5833L110.661 9.79239C110.306 9.08496 109.763 8.54203 109.104 8.16645L107.122 11.6406ZM107.096 11.6071C107.089 11.5928 107.089 11.5863 107.09 11.5964C107.093 11.6081 107.098 11.6457 107.094 11.7168L111.088 11.9364C111.128 11.2096 111.008 10.4639 110.649 9.76858L107.096 11.6071ZM107.094 11.7168C107.09 11.7888 107.081 11.8198 107.08 11.821C107.08 11.8216 107.082 11.8159 107.087 11.8056C107.092 11.7952 107.1 11.7824 107.109 11.7686L110.372 14.0824C110.841 13.4207 111.048 12.6714 111.088 11.9364L107.094 11.7168ZM107.109 11.7686C107.114 11.7615 107.121 11.7532 107.129 11.7446C107.138 11.736 107.146 11.729 107.153 11.7238C107.167 11.7126 107.168 11.7161 107.141 11.7265L108.612 15.4463C109.306 15.1718 109.919 14.7219 110.372 14.0824L107.109 11.7686ZM107.166 11.717C107.123 11.7333 106.982 11.7732 106.688 11.7571L106.469 15.751C107.173 15.7898 107.898 15.718 108.587 15.4559L107.166 11.717ZM106.688 11.7571L104.714 11.6485L104.494 15.6425L106.469 15.751L106.688 11.7571ZM106.601 13.7553L106.672 12.4618L102.678 12.2422L102.607 13.5357L106.601 13.7553ZM104.565 14.349L106.25 14.4416L106.47 10.4477L104.785 10.355L104.565 14.349ZM106.25 14.4416C106.817 14.4728 107.593 14.3794 108.263 13.827L105.721 10.7391C106.094 10.4321 106.448 10.4465 106.47 10.4477L106.25 14.4416ZM108.263 13.827C108.963 13.2512 109.198 12.4681 109.233 11.8344L105.239 11.6148C105.243 11.5543 105.258 11.42 105.332 11.2505C105.411 11.0708 105.54 10.8884 105.721 10.7391L108.263 13.827ZM109.233 11.8344C109.266 11.2305 109.146 10.3961 108.489 9.72191L105.623 12.5125C105.236 12.1149 105.235 11.6854 105.239 11.6148L109.233 11.8344ZM108.518 9.75265C107.915 9.10601 107.143 8.91411 106.556 8.88185L106.337 12.8758C106.294 12.8735 105.929 12.8405 105.594 12.4818L108.518 9.75265ZM106.556 8.88185L105.705 8.83506L105.486 12.829L106.337 12.8758L106.556 8.88185ZM103.598 10.7223L103.326 15.675L107.32 15.8946L107.592 10.9418L103.598 10.7223ZM105.433 13.7878L103.629 13.6886L103.409 17.6826L105.213 17.7818L105.433 13.7878ZM105.975 13.805L107.162 16.7383L110.87 15.2374L109.683 12.3042L105.975 13.805ZM109.126 13.9908L107.152 13.8823L106.932 17.8763L108.907 17.9848L109.126 13.9908ZM108.924 15.203L107.873 12.2773L104.109 13.6298L105.16 16.5556L108.924 15.203ZM105.881 14.9505L107.719 15.0516L107.939 11.0576L106.101 10.9566L105.881 14.9505ZM105.942 17.5715C105.255 17.5337 104.649 17.3733 104.101 17.1023L102.328 20.6883C103.387 21.2113 104.525 21.4996 105.722 21.5654L105.942 17.5715ZM104.101 17.1023C103.523 16.8167 103.032 16.4437 102.615 15.9779L99.6352 18.6468C100.397 19.4977 101.3 20.18 102.328 20.6883L104.101 17.1023ZM102.615 15.9779C102.197 15.5121 101.88 14.9834 101.66 14.3777L97.9012 15.746C98.2937 16.8242 98.8729 17.7958 99.6352 18.6468L102.615 15.9779ZM101.66 14.3777C101.451 13.803 101.358 13.1824 101.395 12.4961L97.4014 12.2765C97.3356 13.4737 97.4973 14.6368 97.9012 15.746L101.66 14.3777ZM101.395 12.4961C101.433 11.8097 101.594 11.2031 101.864 10.6548L98.2785 8.88265C97.7555 9.9409 97.4672 11.0793 97.4014 12.2765L101.395 12.4961ZM101.864 10.6548C102.15 10.0769 102.523 9.5861 102.989 9.16887L100.32 6.18945C99.4691 6.95172 98.7868 7.85397 98.2785 8.88264L101.864 10.6548ZM102.989 9.16887C103.455 8.75164 103.983 8.4346 104.589 8.21409L103.221 4.45542C102.143 4.84794 101.171 5.42718 100.32 6.18945L102.989 9.16887ZM104.589 8.21409C105.164 8.00486 105.784 7.91189 106.471 7.94962L106.69 3.95565C105.493 3.88984 104.33 4.05161 103.221 4.45542L104.589 8.21409ZM106.471 7.94962C107.157 7.98735 107.764 8.14779 108.312 8.41875L110.084 4.83273C109.026 4.30976 107.888 4.02147 106.69 3.95565L106.471 7.94962ZM108.312 8.41875C108.89 8.70433 109.381 9.07742 109.798 9.54319L112.777 6.87428C112.015 6.02333 111.113 5.34108 110.084 4.83273L108.312 8.41875ZM109.798 9.54319C110.215 10.009 110.532 10.5377 110.753 11.1434L114.511 9.77504C114.119 8.69684 113.54 7.72524 112.777 6.87428L109.798 9.54319ZM110.753 11.1434C110.962 11.7181 111.055 12.3387 111.017 13.025L115.011 13.2446C115.077 12.0474 114.915 10.8842 114.511 9.77504L110.753 11.1434ZM111.017 13.025C110.979 13.7113 110.819 14.318 110.548 14.8663L114.134 16.6384C114.657 15.5802 114.945 14.4418 115.011 13.2446L111.017 13.025ZM110.548 14.8663C110.262 15.4442 109.889 15.935 109.424 16.3522L112.093 19.3316C112.943 18.5694 113.626 17.6671 114.134 16.6384L110.548 14.8663ZM109.424 16.3522C108.958 16.7694 108.429 17.0865 107.823 17.307L109.192 21.0657C110.27 20.6731 111.242 20.0939 112.093 19.3316L109.424 16.3522ZM107.823 17.307C107.249 17.5162 106.628 17.6092 105.942 17.5715L105.722 21.5654C106.919 21.6312 108.083 21.4695 109.192 21.0657L107.823 17.307ZM105.827 19.6592C107.071 19.7276 108.265 19.4885 109.364 18.9168L107.517 15.3685C107.093 15.5894 106.618 15.6967 106.047 15.6652L105.827 19.6592ZM109.368 18.9147C110.433 18.3574 111.31 17.5686 111.975 16.568L108.643 14.3548C108.352 14.7925 107.984 15.1245 107.513 15.3706L109.368 18.9147ZM111.968 16.5774C112.661 15.5465 113.036 14.3854 113.105 13.1398L109.111 12.9202C109.08 13.4787 108.922 13.9385 108.649 14.3454L111.968 16.5774ZM113.105 13.1398C113.173 11.8942 112.928 10.699 112.352 9.59832L108.808 11.453C109.035 11.8874 109.142 12.3617 109.111 12.9202L113.105 13.1398ZM112.357 9.60836C111.805 8.53856 111.017 7.65841 110.014 6.99231L107.801 10.3243C108.236 10.6136 108.563 10.9783 108.803 11.4429L112.357 9.60836ZM110.023 6.99859C108.992 6.30542 107.831 5.93034 106.586 5.86186L106.366 9.85583C106.924 9.88654 107.384 10.0444 107.791 10.318L110.023 6.99859ZM106.586 5.86186C105.34 5.79339 104.145 6.03893 103.044 6.61493L104.899 10.159C105.333 9.93165 105.807 9.82513 106.366 9.85583L106.586 5.86186ZM103.054 6.60971C101.987 7.16065 101.106 7.94596 100.436 8.94324L103.755 11.1752C104.051 10.7348 104.422 10.4052 104.889 10.1642L103.054 6.60971ZM100.43 8.95265C99.7454 9.98271 99.3758 11.1406 99.3076 12.3813L103.302 12.6009C103.333 12.0374 103.49 11.5741 103.761 11.1658L100.43 8.95265ZM99.3076 12.3813C99.2394 13.6219 99.4798 14.8134 100.047 15.9123L103.601 14.0777C103.377 13.6421 103.271 13.1643 103.302 12.6009L99.3076 12.3813ZM100.055 15.9283C100.612 16.9842 101.398 17.8557 102.389 18.5225L104.621 15.2031C104.175 14.9031 103.84 14.5294 103.593 14.0617L100.055 15.9283ZM102.389 18.5225C103.42 19.2157 104.581 19.5907 105.827 19.6592L106.047 15.6652C105.488 15.6345 105.028 15.4767 104.621 15.2031L102.389 18.5225Z" fill="white"/>
</svg>
