<svg width="165" height="44" viewBox="0 0 165 44" fill="none" xmlns="http://www.w3.org/2000/svg">
<g id="Monabele logotipo" clip-path="url(#clip0_155_37)">
<g id="Layer 2">
<g id="Layer 1">
<path id="Vector" d="M165 9.31785C165 11.0692 163.652 12.4446 161.897 12.4446C160.161 12.4446 158.776 11.0692 158.776 9.31785C158.776 7.60357 160.161 6.229 161.897 6.229C163.652 6.229 165 7.60357 165 9.31785ZM159.552 9.31785C159.552 10.6932 160.549 11.785 161.916 11.785C163.245 11.785 164.225 10.6932 164.225 9.33682C164.225 7.96143 163.245 6.85073 161.897 6.85073C160.549 6.85073 159.552 7.96143 159.552 9.31785ZM161.417 10.9373H160.715V7.84846C161.099 7.77862 161.489 7.74604 161.879 7.75116C162.451 7.75116 162.71 7.84517 162.93 7.9771C163.026 8.06032 163.103 8.16453 163.154 8.28201C163.205 8.39948 163.23 8.52721 163.226 8.65572C163.226 8.99462 162.967 9.25848 162.598 9.37145V9.40855C162.893 9.52152 163.059 9.74745 163.151 10.1622C163.244 10.633 163.299 10.8219 163.373 10.934H162.616C162.523 10.821 162.468 10.539 162.374 10.1812C162.318 9.84228 162.131 9.69138 161.745 9.69138H161.413L161.417 10.9373ZM161.436 9.18592H161.768C162.156 9.18592 162.47 9.05399 162.47 8.73405C162.47 8.45123 162.267 8.26322 161.823 8.26322C161.693 8.26034 161.562 8.27307 161.435 8.30115L161.436 9.18592Z" fill="white"/>
<path id="Vector_2" d="M6.65492 44L4.37219 38.5166L12.1406 35.154V9.3053L4.50481 5.29623L7.1789 0L17.982 5.67141V39.0971L6.65492 44Z" fill="white"/>
<path id="Vector_3" d="M5.84226 12.4595H0V31.4477H5.84226V12.4595Z" fill="white"/>
<path id="Vector_4" d="M18.7947 44L16.5128 38.5166L24.2803 35.154V9.3053L16.6454 5.29623L19.3195 0L30.1226 5.67141V39.0971L18.7947 44Z" fill="white"/>
<path id="Vector_5" d="M36.1064 30.1217C34.6412 28.5709 33.9083 26.1599 33.9078 22.8885V21.1965C33.8999 20.2263 33.9879 19.2577 34.1706 18.3055C34.3299 17.4794 34.5949 16.6782 34.959 15.9225C35.6598 14.4746 36.6506 13.3839 37.9315 12.6506C39.2123 11.9173 40.7012 11.5509 42.3983 11.5515C43.203 11.5464 44.0057 11.6363 44.7901 11.8195C45.5219 11.9921 46.2251 12.272 46.878 12.6506C48.1502 13.3845 49.1413 14.4655 49.8513 15.8937C50.5613 17.3218 50.916 19.0892 50.9154 21.1957V22.8877C50.9154 26.1217 50.1459 28.5234 48.6068 30.0928C47.0678 31.6622 44.9893 32.4475 42.3716 32.4486C39.6605 32.4486 37.5722 31.673 36.1064 30.1217ZM45.9659 27.4426C46.7583 26.3613 47.1545 24.7963 47.1545 22.7475V21.3655C47.1545 19.2414 46.7583 17.6294 45.9659 16.5294C45.1734 15.4294 43.9842 14.8797 42.3983 14.8803C40.794 14.8803 39.6048 15.4396 38.8306 16.5583C38.0565 17.6769 37.6695 19.2711 37.6695 21.3408V22.7508C37.6695 24.8001 38.0565 26.3652 38.8306 27.4459C39.6048 28.5267 40.794 29.0673 42.3983 29.0679C43.9832 29.0657 45.1724 28.5239 45.9659 27.4426Z" fill="white"/>
<path id="Vector_6" d="M57.4692 32.0257H54.0407V11.9185H57.4975L65.9322 25.5115L66.457 26.8366L66.3471 25.3969V11.9185H69.7756V32.0257H66.4295L57.8841 18.2635L57.331 16.9385L57.4692 18.3485V32.0257Z" fill="white"/>
<path id="Vector_7" d="M84.7641 27.5136H76.9383L75.444 32.0257H71.7389L78.9016 11.9185H82.6625L89.991 32.0257H86.3134L84.7641 27.5136ZM77.9612 24.3802H83.6862L80.9757 16.4915L80.7809 15.3874L80.5884 16.4915L77.9612 24.3802Z" fill="white"/>
<path id="Vector_8" d="M91.9269 32.0257V11.9185H99.4761C102.076 11.9185 103.965 12.3651 105.145 13.2584C106.325 14.1517 106.915 15.4347 106.915 17.1075C106.915 18.3108 106.68 19.2885 106.21 20.0405C105.74 20.7925 105.044 21.3565 104.122 21.7325C105.155 22.0893 105.943 22.6297 106.487 23.3536C107.031 24.0776 107.303 25.061 107.304 26.3039C107.304 28.1279 106.691 29.5379 105.465 30.534C104.239 31.5301 102.354 32.0284 99.8093 32.029L91.9269 32.0257ZM95.4662 14.9075V20.2376H99.6144C100.832 20.2376 101.758 20.0215 102.394 19.5895C103.031 19.1574 103.348 18.4617 103.348 17.5025C103.348 16.6185 103.053 15.9652 102.463 15.5425C101.873 15.1197 100.915 14.9081 99.5869 14.9075H95.4662ZM95.4662 23.2266V28.8667H99.3379C100.887 28.8667 101.984 28.6224 102.629 28.1337C103.274 27.645 103.597 26.9303 103.599 25.9898C103.599 25.0129 103.254 24.3079 102.563 23.8748C101.872 23.4416 100.816 23.2253 99.3961 23.2258L95.4662 23.2266Z" fill="white"/>
<path id="Vector_9" d="M124.034 32.0257H110.041V11.9185H123.564V15.1054H113.553V20.2656H122.043V23.4814H113.553V28.7265H124.034V32.0257Z" fill="white"/>
<path id="Vector_10" d="M126.578 32.0257V11.9185H130.229V28.5567H139.741V32.0257H126.578Z" fill="white"/>
<path id="Vector_11" d="M156.306 32.0257H142.317V11.9185H155.84V15.1054H145.829V20.2656H154.32V23.4814H145.829V28.7265H156.306V32.0257Z" fill="white"/>
</g>
</g>
</g>
<defs>
<clipPath id="clip0_155_37">
<rect width="165" height="44" fill="white"/>
</clipPath>
</defs>
</svg>
